<svg width="11" height="11" viewBox="0 0 11 11" fill="none" xmlns="http://www.w3.org/2000/svg">
<path d="M10.1667 4.11988H2.78801V2.53874C2.78801 1.9574 3.26078 1.48464 3.84211 1.48464C4.42345 1.48464 4.89621 1.9574 4.89621 2.53874H5.95031C5.95031 1.37607 5.00478 0.430542 3.84211 0.430542C2.67944 0.430542 1.73392 1.37607 1.73392 2.53874V4.11988H0.67982C0.540038 4.11988 0.405981 4.17541 0.30714 4.27425C0.208299 4.37309 0.152771 4.50715 0.152771 4.64693V5.70103C0.152771 7.07452 1.03505 8.24298 2.26097 8.67885V10.4445H3.31506V8.86332H7.53145V10.4445H8.58555V8.67885C9.81146 8.24298 10.6937 7.07452 10.6937 5.70103V4.64693C10.6937 4.50715 10.6382 4.37309 10.5394 4.27425C10.4405 4.17541 10.3065 4.11988 10.1667 4.11988ZM9.63965 5.70103C9.63965 6.8637 8.69412 7.80922 7.53145 7.80922H3.31506C2.15239 7.80922 1.20687 6.8637 1.20687 5.70103V5.17398H9.63965V5.70103Z" fill="black"/>
</svg>
