<svg width="12" height="11" viewBox="0 0 12 11" fill="none" xmlns="http://www.w3.org/2000/svg">
<path d="M10.1002 3.78254V0.25H9.02272V1.32749H2.5578V0.25H1.48032V3.78254C0.839214 4.15588 0.402832 4.84278 0.402832 5.63743V7.7924C0.402832 7.93528 0.459592 8.07231 0.560626 8.17335C0.66166 8.27438 0.798691 8.33114 0.941575 8.33114H1.48032V10.4861H2.5578V8.33114H9.02272V10.4861H10.1002V8.33114H10.6389C10.7818 8.33114 10.9189 8.27438 11.0199 8.17335C11.1209 8.07231 11.1777 7.93528 11.1777 7.7924V5.63743C11.1777 4.84278 10.7408 4.15588 10.1002 3.78254ZM9.02272 2.40497V3.48246H6.329V2.40497H9.02272ZM2.5578 2.40497H5.25152V3.48246H2.5578V2.40497ZM10.1002 7.25365H1.48032V5.63743C1.48032 5.04319 1.96357 4.55994 2.5578 4.55994H9.02272C9.61695 4.55994 10.1002 5.04319 10.1002 5.63743V7.25365Z" fill="black"/>
</svg>
