<svg width="21" height="21" viewBox="0 0 21 21" fill="none" xmlns="http://www.w3.org/2000/svg">
<path d="M5.14207 0.642759C5.14207 0.472288 5.07435 0.3088 4.95381 0.18826C4.83327 0.067719 4.66978 0 4.49931 0C4.32884 0 4.16535 0.067719 4.04481 0.18826C3.92427 0.3088 3.85655 0.472288 3.85655 0.642759V1.28552H2.57103C1.88915 1.28552 1.2352 1.55639 0.753039 2.03856C0.270876 2.52072 0 3.17467 0 3.85655L0 5.14207H20.5683V3.85655C20.5683 3.17467 20.2974 2.52072 19.8152 2.03856C19.3331 1.55639 18.6791 1.28552 17.9972 1.28552H16.7117V0.642759C16.7117 0.472288 16.644 0.3088 16.5235 0.18826C16.4029 0.067719 16.2394 0 16.069 0C15.8985 0 15.735 0.067719 15.6145 0.18826C15.4939 0.3088 15.4262 0.472288 15.4262 0.642759V1.28552H5.14207V0.642759ZM20.5683 17.9972V6.42759H0V17.9972C0 18.6791 0.270876 19.3331 0.753039 19.8152C1.2352 20.2974 1.88915 20.5683 2.57103 20.5683H17.9972C18.6791 20.5683 19.3331 20.2974 19.8152 19.8152C20.2974 19.3331 20.5683 18.6791 20.5683 17.9972ZM13.953 11.382L10.0965 15.2385C10.0367 15.2984 9.96582 15.3459 9.88773 15.3783C9.80964 15.4107 9.72593 15.4274 9.64138 15.4274C9.55684 15.4274 9.47312 15.4107 9.39503 15.3783C9.31694 15.3459 9.24601 15.2984 9.18631 15.2385L7.25803 13.3102C7.13734 13.1896 7.06953 13.0259 7.06953 12.8552C7.06953 12.6845 7.13734 12.5208 7.25803 12.4001C7.37872 12.2794 7.54242 12.2116 7.7131 12.2116C7.88379 12.2116 8.04748 12.2794 8.16818 12.4001L9.64138 13.8746L13.0429 10.4718C13.1636 10.3511 13.3272 10.2833 13.4979 10.2833C13.6686 10.2833 13.8323 10.3511 13.953 10.4718C14.0737 10.5925 14.1415 10.7562 14.1415 10.9269C14.1415 11.0976 14.0737 11.2613 13.953 11.382Z" fill="#104B86"/>
</svg>
