<svg width="29" height="29" viewBox="0 0 29 29" fill="none" xmlns="http://www.w3.org/2000/svg">
<rect width="29" height="29" rx="14.5" fill="#FFFDFD"/>
<path d="M14.4997 17.1227C15.9481 17.1227 17.1223 15.9485 17.1223 14.5001C17.1223 13.0516 15.9481 11.8774 14.4997 11.8774C13.0513 11.8774 11.8771 13.0516 11.8771 14.5001C11.8771 15.9485 13.0513 17.1227 14.4997 17.1227Z" fill="#8E8E8E"/>
<path d="M12.0412 6.30432L10.5414 7.94345H7.94333C7.04181 7.94345 6.3042 8.68106 6.3042 9.58258V19.4174C6.3042 20.3189 7.04181 21.0565 7.94333 21.0565H21.0564C21.9579 21.0565 22.6955 20.3189 22.6955 19.4174V9.58258C22.6955 8.68106 21.9579 7.94345 21.0564 7.94345H18.4584L16.9585 6.30432H12.0412ZM14.4999 18.5978C12.2379 18.5978 10.402 16.762 10.402 14.5C10.402 12.238 12.2379 10.4021 14.4999 10.4021C16.7619 10.4021 18.5977 12.238 18.5977 14.5C18.5977 16.762 16.7619 18.5978 14.4999 18.5978Z" fill="#8E8E8E"/>
</svg>
