<svg width="35" height="36" viewBox="0 0 35 36" fill="none" xmlns="http://www.w3.org/2000/svg">
<rect x="1.29506" y="1.8611" width="32.2949" height="32.2937" rx="16.1469" fill="white" stroke="#25A586" stroke-width="1.86111"/>
<path d="M9.99895 9.30554C9.70859 9.30554 9.43014 9.42088 9.22483 9.62619C9.01952 9.8315 8.90417 10.11 8.90417 10.4003C8.90417 10.6907 9.01952 10.9691 9.22483 11.1744C9.43014 11.3797 9.70859 11.4951 9.99895 11.4951H11.3346L11.6685 12.8329C11.6718 12.8483 11.6754 12.8636 11.6794 12.8789L13.1661 18.8235L12.1885 19.8C10.8091 21.1794 11.7856 23.5376 13.7365 23.5376H23.1362C23.4266 23.5376 23.705 23.4222 23.9103 23.2169C24.1156 23.0116 24.231 22.7331 24.231 22.4428C24.231 22.1524 24.1156 21.874 23.9103 21.6687C23.705 21.4634 23.4266 21.348 23.1362 21.348H13.7365L14.8313 20.2533H22.0414C22.2447 20.2531 22.4439 20.1965 22.6168 20.0895C22.7896 19.9826 22.9293 19.8297 23.0202 19.6478L26.3045 13.0792C26.3879 12.9124 26.4272 12.7269 26.4188 12.5406C26.4104 12.3542 26.3546 12.1731 26.2565 12.0144C26.1585 11.8557 26.0215 11.7247 25.8586 11.6338C25.6957 11.5429 25.5123 11.4952 25.3257 11.4951H13.5898L13.2504 10.1343C13.1911 9.89754 13.0544 9.68741 12.862 9.53726C12.6696 9.3871 12.4325 9.30555 12.1885 9.30554H9.99895Z" fill="#25A586"/>
<path d="M24.2311 26.2745C24.2311 26.71 24.0581 27.1277 23.7501 27.4357C23.4422 27.7437 23.0245 27.9167 22.5889 27.9167C22.1534 27.9167 21.7357 27.7437 21.4278 27.4357C21.1198 27.1277 20.9468 26.71 20.9468 26.2745C20.9468 25.839 21.1198 25.4213 21.4278 25.1133C21.7357 24.8054 22.1534 24.6324 22.5889 24.6324C23.0245 24.6324 23.4422 24.8054 23.7501 25.1133C24.0581 25.4213 24.2311 25.839 24.2311 26.2745Z" fill="#25A586"/>
<path d="M13.8306 27.9167C14.2662 27.9167 14.6838 27.7437 14.9918 27.4357C15.2998 27.1277 15.4728 26.71 15.4728 26.2745C15.4728 25.839 15.2998 25.4213 14.9918 25.1133C14.6838 24.8054 14.2662 24.6324 13.8306 24.6324C13.3951 24.6324 12.9774 24.8054 12.6695 25.1133C12.3615 25.4213 12.1885 25.839 12.1885 26.2745C12.1885 26.71 12.3615 27.1277 12.6695 27.4357C12.9774 27.7437 13.3951 27.9167 13.8306 27.9167Z" fill="#25A586"/>
</svg>
