<svg width="31" height="30" viewBox="0 0 31 30" fill="none" xmlns="http://www.w3.org/2000/svg">
<path d="M31 14.9168H30.6311H30.959L30.2418 15.0623C29.4106 15.1454 28.5734 15.1454 27.7422 15.0623C27.5166 14.9655 27.2692 14.9337 27.0271 14.9704C26.7849 15.0071 26.5573 15.1109 26.3694 15.2703C26.4786 15.0614 26.651 14.8937 26.8612 14.7919C26.2437 14.7362 25.6237 14.8665 25.0786 15.1665C25.1634 14.939 25.3225 14.7481 25.5294 14.6255C24.8136 14.5584 24.0955 14.7261 23.4805 15.104C23.5742 14.8996 23.7065 14.7158 23.8698 14.5631C23.2248 14.5928 22.6067 14.8336 22.1077 15.2495C22.1626 15.0476 22.2528 14.8575 22.374 14.688C21.6492 14.7984 20.953 15.0529 20.3251 15.4369C20.3735 15.2252 20.4886 15.0353 20.653 14.896C20.2734 15.0013 19.9085 15.155 19.5671 15.3536C19.731 15.208 19.9154 15.1041 20.0793 14.9377C19.7191 14.9897 19.3535 14.9897 18.9934 14.9377C19.8829 14.5084 20.6669 13.8829 21.2881 13.1069C21.0175 13.2107 20.7187 13.2107 20.4481 13.1069C21.2356 12.5623 21.8993 11.8529 22.3946 11.0264C22.1248 11.0888 21.8447 11.0888 21.575 11.0264C22.3405 10.6434 22.9599 10.0145 23.337 9.23727C23.0593 9.35754 22.757 9.4074 22.456 9.38279C23.2286 8.84398 23.8047 8.06169 24.0951 7.15684C23.8267 7.32835 23.5087 7.40169 23.1937 7.36483C23.8722 6.84718 24.3622 6.11542 24.5869 5.28439C24.3475 5.47799 24.0527 5.58755 23.7468 5.59651C24.0392 5.44816 24.2846 5.21925 24.4549 4.93596C24.6252 4.65267 24.7135 4.3264 24.7098 3.99453C25.078 2.59139 25.6366 1.24694 26.3694 0C25.5133 1.11019 24.4733 2.06052 23.2961 2.80854L23.1321 2.93349C22.8266 3.04437 22.5573 3.2388 22.3536 3.49525C22.1414 3.74334 21.9997 4.04524 21.9438 4.36887C21.8407 4.07272 21.8407 3.74975 21.9438 3.4536C21.6174 3.70177 21.3276 3.99584 21.0832 4.32722C20.8389 4.66044 20.6519 5.03331 20.53 5.42991C20.4286 5.12635 20.4286 4.79738 20.53 4.49382C20.1559 4.76917 19.8303 5.10676 19.5671 5.49239C19.3055 5.88462 19.0987 6.31166 18.9524 6.76142C18.8503 6.48244 18.8084 6.18438 18.8295 5.88755C18.2146 6.49413 17.8177 7.29279 17.7025 8.15541C17.5716 7.91024 17.4882 7.64187 17.4567 7.36483C16.8631 8.09575 16.43 8.94678 16.1864 9.86125C16.0254 9.61669 15.9597 9.32004 16.002 9.02903C15.4742 9.87078 15.1447 10.8249 15.039 11.817C14.8531 11.4967 14.728 11.1439 14.6702 10.7768C14.2406 11.6398 14.0293 12.5978 14.0555 13.5645C13.8092 13.3471 13.6133 13.0772 13.4818 12.7739C13.493 12.5521 13.493 12.3301 13.4818 12.1083C13.3219 12.326 13.1281 12.5155 12.9081 12.6698C13.1496 11.9549 13.2404 11.1966 13.1745 10.4438C13.1073 10.6574 12.9698 10.841 12.7852 10.9639C12.9104 10.2763 12.9104 9.57116 12.7852 8.88351C12.6768 9.05987 12.538 9.21487 12.3754 9.34114C12.5801 8.71296 12.5801 8.03466 12.3754 7.40648C12.3015 7.61751 12.1826 7.80911 12.0271 7.96798C12.1289 7.26092 12.0294 6.53903 11.7402 5.88755C11.6825 6.12403 11.5621 6.34001 11.3919 6.51178C11.4713 5.88621 11.3717 5.25066 11.1051 4.68098C11.0945 4.91513 10.9997 5.13731 10.8387 5.30522C10.919 5.07005 10.9328 4.81677 10.8784 4.57407C10.8241 4.33136 10.7039 4.10889 10.5314 3.93206C10.1504 3.19725 9.84813 2.42309 9.62983 1.6228L9.48646 0.832226C9.48646 0.957052 9.48646 1.10256 9.48646 1.22739C9.43335 1.09984 9.39219 0.967614 9.36353 0.832226C9.47992 1.93869 9.41062 3.05711 9.15862 4.14005C9.06282 4.35974 9.02201 4.60013 9.03988 4.83971C9.05776 5.07929 9.13374 5.31068 9.26104 5.51321C9.10219 5.40329 8.97494 5.25261 8.89226 5.0764C8.80036 5.67758 8.8859 6.29287 9.13811 6.84472C8.966 6.74979 8.81308 6.62263 8.68735 6.47013C8.58594 7.18132 8.7003 7.90701 9.01519 8.55057L8.76933 8.38422C8.76933 8.38422 8.58494 8.25945 8.52347 8.17623C8.51159 8.82423 8.70555 9.45888 9.07665 9.9862H8.91277C8.78599 9.93719 8.66821 9.86691 8.56442 9.77821C8.6292 10.504 8.83095 11.2103 9.15862 11.8586C9.06289 11.8155 8.97329 11.7594 8.89226 11.692C8.89226 11.692 8.72831 11.6921 8.66684 11.5257C8.80316 12.2775 9.10432 12.9885 9.54792 13.6061L9.0357 13.3773C9.0357 13.3773 8.91273 13.3773 8.87175 13.3773C9.0797 14.0644 9.44483 14.6917 9.93722 15.2081C9.68494 15.2297 9.43133 15.1867 9.19958 15.0832C9.41652 15.7465 9.78922 16.3463 10.2855 16.8307C10.2592 16.8972 10.2248 16.9603 10.1831 17.0181H9.99868C9.81876 16.6616 9.54126 16.3653 9.19958 16.165C9.23051 16.316 9.23051 16.4717 9.19958 16.6227C8.90517 16.211 8.51904 15.876 8.07271 15.6449C8.10795 15.697 8.12679 15.7585 8.12679 15.8217C8.12679 15.8848 8.10795 15.9467 8.07271 15.9987C7.72031 15.6425 7.30267 15.3598 6.84335 15.1665C6.86407 15.2834 6.86407 15.403 6.84335 15.52C6.5668 15.1524 6.17747 14.8889 5.73692 14.7711C5.7791 14.8922 5.7791 15.0245 5.73692 15.1456C5.35512 14.7818 4.87884 14.5364 4.36419 14.4384C4.41291 14.4912 4.45066 14.5533 4.4753 14.6212C4.49993 14.6891 4.51091 14.7613 4.50756 14.8335C4.1591 14.5232 3.73427 14.3146 3.27827 14.2301C3.27827 14.2301 3.5036 14.4175 3.48311 14.5839C3.48311 14.5839 3.27826 14.2095 2.49967 14.1679C1.6445 14.011 0.807049 13.7668 0 13.4395C0.641447 13.7936 1.22257 14.2503 1.72108 14.7919C1.8133 14.931 1.93448 15.0479 2.07611 15.1342C2.21773 15.2205 2.37633 15.274 2.54063 15.2912C2.37813 15.3222 2.2114 15.3222 2.04891 15.2912C2.39112 15.5827 2.79956 15.783 3.23725 15.8737C3.06099 15.9048 2.88083 15.9048 2.70457 15.8737C3.10346 16.1993 3.57473 16.4208 4.07731 16.5188H3.58559C3.99718 16.7911 4.46881 16.9555 4.95832 16.9973H4.50756C4.99295 17.2482 5.51002 17.4303 6.04424 17.5382C5.88858 17.5685 5.7287 17.5685 5.57303 17.5382C6.11639 17.7619 6.68953 17.902 7.2736 17.9542L6.6794 18.1C7.23486 18.2843 7.8162 18.3754 8.40054 18.3702C8.24499 18.4823 8.07177 18.567 7.88831 18.6201C8.33465 18.7516 8.79634 18.8215 9.26104 18.8281C8.83103 18.6864 8.38133 18.6162 7.92927 18.6201L8.29806 18.8697C7.83637 18.7974 7.3665 18.7974 6.90481 18.8697C7.02053 18.895 7.12697 18.9526 7.21214 19.0361C6.76347 18.9736 6.30851 18.9736 5.85985 19.0361C5.96681 19.0784 6.06437 19.142 6.14673 19.2232C5.74791 19.1403 5.33669 19.1403 4.93788 19.2232C5.06587 19.2482 5.1856 19.3056 5.28616 19.3898C4.84544 19.3276 4.39654 19.3702 3.97489 19.5145C4.11404 19.5317 4.24734 19.5817 4.36419 19.6603C3.97733 19.6182 3.5861 19.6607 3.2168 19.785C3.35251 19.8043 3.48403 19.8466 3.60604 19.9099C3.31143 19.8438 3.00308 19.8959 2.74553 20.0554C2.11332 20.2827 1.46168 20.4498 0.799042 20.5547H1.57764C2.01421 20.5238 2.4524 20.5238 2.88897 20.5547C3.1684 20.6484 3.47004 20.6484 3.74948 20.5547C3.66158 20.6343 3.55621 20.6913 3.44215 20.7211C3.81444 20.7931 4.19674 20.7931 4.56903 20.7211C4.49138 20.8129 4.39298 20.8845 4.28221 20.9293C4.71104 20.975 5.14451 20.9251 5.55253 20.7836C5.49294 20.8685 5.41611 20.9394 5.32718 20.9915C5.70942 20.9905 6.08685 20.9054 6.43354 20.7419C6.39612 20.8236 6.33993 20.8951 6.26966 20.9501C6.6956 20.9123 7.11532 20.8214 7.51946 20.6797C7.47557 20.77 7.4036 20.8431 7.31462 20.8877C7.74381 20.829 8.15969 20.6951 8.54391 20.4923C8.4947 20.6018 8.42518 20.7007 8.33907 20.7836C8.74245 20.7022 9.12563 20.5395 9.46595 20.3051C9.50582 20.4052 9.50582 20.5171 9.46595 20.6172C9.92242 20.5272 10.351 20.3274 10.7158 20.0346C10.7134 20.1532 10.6779 20.2687 10.6133 20.3676C11.0232 19.9949 11.4949 19.699 12.0066 19.4937V19.7225L6.80239 26.4839L7.92927 27.3162L12.4984 20.3259C12.5101 20.4226 12.5101 20.5205 12.4984 20.6172C12.5627 20.5205 12.6561 20.4476 12.7647 20.4092C12.651 20.8667 12.651 21.3455 12.7647 21.8029C12.831 21.717 12.9255 21.658 13.031 21.6366C12.9493 22.0486 12.9493 22.4729 13.031 22.8848C13.0874 22.7796 13.1563 22.6818 13.2359 22.5935C13.1645 23.0274 13.1645 23.4703 13.2359 23.9042C13.2461 23.8027 13.2893 23.7075 13.3589 23.6337C13.355 24.0656 13.4243 24.4948 13.5638 24.9028C13.5992 24.8192 13.6477 24.742 13.7072 24.674C13.6884 25.0643 13.7512 25.4544 13.8916 25.8183C13.8945 25.7127 13.9304 25.6106 13.994 25.527C14.0085 25.963 14.1206 26.3898 14.3219 26.7752C14.3242 26.6566 14.3597 26.5411 14.4243 26.4423C14.4467 26.8281 14.5516 27.2044 14.7317 27.545C14.7101 27.4351 14.7101 27.3219 14.7317 27.212C14.7253 27.5056 14.8195 27.7924 14.998 28.0234C15.1828 28.4023 15.347 28.7914 15.4897 29.1886C15.5922 29.4591 15.7561 29.7087 15.838 30C15.6974 29.3155 15.6219 28.6188 15.6127 27.9196C15.6401 27.7688 15.6379 27.6139 15.6062 27.464C15.5746 27.314 15.5141 27.1718 15.4283 27.0457C15.538 27.1324 15.6229 27.2474 15.6741 27.3786C15.6516 26.9821 15.5542 26.5935 15.3873 26.2343C15.4981 26.3227 15.5949 26.428 15.6741 26.5464C15.6361 26.096 15.5107 25.6576 15.3054 25.2565C15.4153 25.3297 15.5122 25.4211 15.5922 25.527C15.5192 25.122 15.3734 24.734 15.1619 24.3827L15.4283 24.5909C15.3254 24.146 15.1598 23.7184 14.9365 23.3216C15.0499 23.3623 15.1446 23.4439 15.2029 23.5507C15.0767 23.0902 14.8759 22.6543 14.6087 22.2608L14.957 22.5105C14.8073 22.0861 14.5854 21.6917 14.3013 21.3453C14.4693 21.778 14.697 22.1842 14.9775 22.5519C14.9574 22.3652 14.9574 22.177 14.9775 21.9904C15.1785 22.5484 15.4692 23.0686 15.838 23.5299C15.8267 23.3289 15.8267 23.1274 15.838 22.9265C16.0987 23.4604 16.4372 23.9512 16.842 24.3827C16.8021 24.2257 16.8021 24.0611 16.842 23.9042C17.1198 24.3764 17.465 24.804 17.8665 25.1732C17.8452 25.0214 17.8452 24.8674 17.8665 24.7156C18.0805 25.1656 18.3964 25.5579 18.7885 25.8599C18.7282 25.699 18.687 25.5314 18.6655 25.3607C18.9435 25.8062 19.323 26.177 19.772 26.4423C19.6898 26.2791 19.6345 26.1034 19.6081 25.9222C19.8552 26.2986 20.1848 26.6121 20.571 26.8377C20.4701 26.7024 20.4002 26.5462 20.3662 26.3801C20.532 26.678 20.8029 26.9009 21.1242 27.004C21.8034 27.2789 22.4333 27.6656 22.9888 28.1484C22.398 27.5133 21.876 26.8159 21.4316 26.0679C21.1037 25.3398 20.694 25.2982 20.694 25.2982C20.8374 25.2982 21.1037 25.2982 21.1037 25.2982C20.873 24.8901 20.5317 24.558 20.1203 24.3413C20.245 24.2892 20.3848 24.2892 20.5095 24.3413C20.2343 23.8914 19.8452 23.525 19.3827 23.2802C19.5037 23.2494 19.6304 23.2494 19.7514 23.2802C19.4886 22.9124 19.1145 22.642 18.686 22.5105C18.7259 22.4691 18.7738 22.4365 18.8267 22.415C18.8796 22.3935 18.9364 22.3835 18.9934 22.3855C18.6455 22.0173 18.2363 21.7143 17.7845 21.4908C17.8375 21.4598 17.8975 21.4436 17.9587 21.4436C18.0198 21.4436 18.0799 21.4598 18.1329 21.4908C17.764 21.1498 17.3221 20.9005 16.842 20.7627C16.9651 20.6777 17.1049 20.621 17.2518 20.5964C16.9346 20.3515 16.5606 20.1939 16.1659 20.1387C16.1726 20.0904 16.1726 20.0413 16.1659 19.993C16.2083 19.9206 16.264 19.8571 16.3298 19.8058C16.9659 20.1219 17.6718 20.2652 18.3787 20.2218C18.198 20.0384 18.0704 19.8082 18.0099 19.5562C18.6531 19.8456 19.3574 19.9673 20.0588 19.9099C19.9812 19.8588 19.9121 19.7954 19.8539 19.7225L19.5261 19.3898C20.1946 19.5659 20.8905 19.6082 21.575 19.5145C21.4521 19.5145 21.3906 19.3689 21.2881 19.3065C21.1857 19.2441 21.1447 19.3064 21.1037 19.1607C21.7898 19.2351 22.4834 19.1859 23.1526 19.0152C23.0168 18.928 22.8929 18.823 22.7839 18.7031C23.3513 18.8798 23.958 18.8798 24.5254 18.7031H24.6484C24.5238 18.6496 24.4066 18.5797 24.3 18.4951L24.1156 18.3702C24.8238 18.4337 25.535 18.2894 26.1645 17.9542H26.0211C25.8579 17.9124 25.7091 17.8261 25.5908 17.7045C26.1973 17.7531 26.8041 17.6155 27.3324 17.3094H27.2095C27.01 17.2921 26.8187 17.22 26.6563 17.1011C26.8931 17.1531 27.139 17.1443 27.3716 17.0752C27.6042 17.0062 27.8161 16.8793 27.9881 16.706C28.8795 15.9328 29.8994 15.327 31 14.9168Z" fill="#C9E265"/>
</svg>
