<svg width="36" height="13" viewBox="0 0 36 13" fill="none" xmlns="http://www.w3.org/2000/svg">
<g clip-path="url(#clip0_2472_27428)">
<path d="M8.71012 1.96209C8.56436 1.82608 8.47449 1.64804 8.45575 1.4582C8.43701 1.26836 8.49057 1.07843 8.60733 0.92067C8.72409 0.762911 8.89686 0.64705 9.09627 0.592767C9.29569 0.538483 9.50946 0.549124 9.70129 0.622883C9.89311 0.696642 10.0512 0.828971 10.1486 0.997392C10.246 1.16581 10.2768 1.35994 10.2357 1.5468C10.1946 1.73366 10.0842 1.90174 9.92327 2.02248C9.7623 2.14322 9.56067 2.20917 9.35264 2.20914C9.23283 2.21018 9.11405 2.18881 9.00357 2.14633C8.8931 2.10385 8.79324 2.04115 8.71012 1.96209ZM10.0611 9.47893H8.62693V3.21052H10.0611V9.47893Z" fill="white"/>
<path d="M1.20883 8.71471C0.881047 8.40111 0.626314 8.02969 0.460133 7.62304C0.293952 7.21639 0.219797 6.78301 0.242181 6.34927C0.219797 5.91823 0.296589 5.4877 0.467569 5.08562C0.63855 4.68354 0.899899 4.3189 1.23465 4.01537C1.54434 3.73326 1.91247 3.51074 2.31739 3.36088C2.7223 3.21103 3.15583 3.13688 3.59248 3.14278C4.02701 3.13371 4.45701 3.22531 4.84261 3.40909C5.22821 3.59287 5.55693 3.86288 5.79829 4.19409V0.777344H7.23249V9.52159H5.79829V8.58067C5.53857 8.92023 5.18867 9.19351 4.78163 9.3747C4.37459 9.5559 3.92385 9.63902 3.47201 9.61621C3.04765 9.6183 2.62743 9.53973 2.23789 9.38546C1.84835 9.2312 1.49795 9.0046 1.20883 8.71997V8.71471ZM1.68212 6.41761C1.67152 6.68869 1.72209 6.95886 1.83068 7.21121C1.93926 7.46356 2.10352 7.69266 2.31317 7.88418C2.50561 8.06487 2.73592 8.20806 2.99026 8.30517C3.24461 8.40227 3.51774 8.45128 3.79327 8.44926C4.06273 8.45241 4.32987 8.40322 4.57707 8.30491C4.82428 8.20661 5.04595 8.06142 5.22747 7.87892C5.42639 7.68209 5.58097 7.45123 5.68236 7.19957C5.78376 6.94791 5.82997 6.6804 5.81836 6.41235C5.83891 5.86195 5.62729 5.32544 5.22747 4.91424C5.04788 4.72254 4.82457 4.56929 4.57329 4.4653C4.32201 4.3613 4.04889 4.3091 3.77319 4.31236C3.49443 4.31077 3.2185 4.36362 2.96377 4.4674C2.70905 4.57119 2.48139 4.72351 2.29596 4.91424C1.88034 5.32043 1.65752 5.86108 1.67638 6.41761" fill="white"/>
<path d="M15.7434 8.46421C15.6337 8.33247 15.5484 8.18506 15.491 8.02791C15.1713 8.21562 14.8007 8.31759 14.4211 8.32228C14.1248 8.32507 13.8308 8.27383 13.5563 8.17153C13.2818 8.06923 13.0322 7.91791 12.8221 7.7264C12.612 7.53488 12.4456 7.30699 12.3326 7.05599C12.2195 6.80498 12.1621 6.53588 12.1637 6.26435C12.1549 6.00005 12.2094 5.7372 12.3234 5.49428C12.4374 5.25136 12.6081 5.03425 12.8234 4.85822C13.0263 4.69194 13.2656 4.56724 13.5253 4.49245C13.7849 4.41767 14.0591 4.39452 14.3293 4.42456C14.7185 4.4485 15.0996 4.53758 15.4537 4.68739C15.5093 4.55515 15.5775 4.42763 15.6574 4.30629C15.8103 4.05772 16.0306 3.84951 16.297 3.70179C15.7565 3.31335 15.0908 3.09986 14.4039 3.09466C13.442 3.07435 12.5088 3.39547 11.7994 3.9909C11.1242 4.60228 10.7406 5.43375 10.7325 6.30352C10.7245 7.1733 11.0926 8.01061 11.7563 8.63242C12.363 9.13977 13.1371 9.44709 13.956 9.50565C14.7749 9.56421 15.5917 9.37066 16.277 8.95569C16.0637 8.8277 15.882 8.6603 15.7434 8.46421Z" fill="white"/>
<path d="M21.2677 8.50693C20.6161 9.07239 19.7528 9.38754 18.8554 9.38754C17.9579 9.38754 17.0946 9.07239 16.443 8.50693C15.8259 7.93476 15.4798 7.16276 15.4798 6.35832C15.4798 5.55389 15.8259 4.78188 16.443 4.20971C17.0946 3.64425 17.9579 3.3291 18.8554 3.3291C19.7528 3.3291 20.6161 3.64425 21.2677 4.20971C21.8848 4.78188 22.2309 5.55389 22.2309 6.35832C22.2309 7.16276 21.8848 7.93476 21.2677 8.50693ZM17.4011 7.74473C17.7921 8.08879 18.3132 8.28092 18.8554 8.28092C19.3975 8.28092 19.9186 8.08879 20.3096 7.74473C20.6768 7.3612 20.8792 6.86846 20.8792 6.35832C20.8792 5.84818 20.6768 5.35544 20.3096 4.97191C19.9186 4.62786 19.3975 4.43572 18.8554 4.43572C18.3132 4.43572 17.7921 4.62786 17.4011 4.97191C17.034 5.35544 16.8316 5.84818 16.8316 6.35832C16.8316 6.86846 17.034 7.3612 17.4011 7.74473Z" fill="white"/>
<path d="M26.8096 0.808594V4.1938C26.5605 3.86342 26.2262 3.59456 25.8364 3.41115C25.4466 3.22773 25.0133 3.13544 24.5751 3.14249C23.6859 3.12957 22.8268 3.43728 22.1829 3.99931C22.105 4.06457 22.0312 4.1339 21.962 4.20694C22.3643 4.61052 22.6373 5.10801 22.7508 5.64461C22.852 5.34849 23.0279 5.07838 23.2643 4.85613C23.4562 4.66814 23.6886 4.51873 23.9469 4.41739C24.2051 4.31604 24.4835 4.26496 24.7644 4.26739C25.0414 4.26337 25.3161 4.31384 25.5699 4.4154C25.8238 4.51697 26.0509 4.66726 26.2359 4.85613C26.6375 5.25535 26.8526 5.78265 26.8354 6.32533C26.8461 6.58997 26.7985 6.85387 26.6955 7.10131C26.5925 7.34875 26.4362 7.57467 26.2359 7.76561C26.0481 7.94646 25.8214 8.08959 25.5701 8.18596C25.3187 8.28232 25.0483 8.32982 24.7759 8.32544C24.4987 8.32814 24.2237 8.28052 23.9667 8.18534C23.7098 8.09016 23.4759 7.94929 23.2786 7.77087C23.0295 7.55465 22.8457 7.28301 22.7451 6.98239C22.6281 7.50697 22.3585 7.99282 21.9649 8.38852C22.0252 8.45473 22.0893 8.5179 22.1571 8.57775C22.4551 8.85861 22.812 9.08138 23.2063 9.23269C23.6006 9.38399 24.0243 9.4607 24.4518 9.45822C24.9064 9.48138 25.3601 9.40025 25.7718 9.22218C26.1835 9.04411 26.5402 8.77473 26.8096 8.43845V9.3636H28.2782V0.808594H26.8096Z" fill="white"/>
<path d="M35.914 5.7948L30.7508 7.34022C30.8385 7.54254 30.9768 7.72314 31.1547 7.86742C31.3326 8.01169 31.5451 8.1156 31.7749 8.17075C32.2737 8.31038 32.8081 8.30118 33.3009 8.14446C34.127 7.89741 34.672 7.47952 34.9359 6.89078L36.0029 7.41644C35.7546 7.85372 35.4112 8.23977 34.9939 8.55076C34.5765 8.86176 34.0941 9.09111 33.5762 9.22468C32.7102 9.50359 31.7598 9.46307 30.9258 9.11167C30.5003 8.92848 30.1231 8.6631 29.8201 8.33373C29.5171 8.00436 29.2954 7.61881 29.1704 7.20355C29.0034 6.80055 28.9355 6.36873 28.9717 5.93893C29.0079 5.50913 29.1472 5.09196 29.3798 4.71721C29.8259 3.99211 30.5575 3.45057 31.4249 3.20332C32.2492 2.93444 33.1517 2.9475 33.9663 3.24012C34.3656 3.38885 34.722 3.61986 35.008 3.91522C35.2941 4.21058 35.502 4.56235 35.6157 4.94324L35.914 5.7948ZM30.4038 6.37302L34.1815 5.24286C34.1199 5.0258 34.0045 4.82467 33.8444 4.6551C33.6842 4.48553 33.4835 4.35209 33.2578 4.26514C32.7971 4.10274 32.2878 4.09808 31.8236 4.252C31.3292 4.39652 30.9 4.68546 30.6017 5.07465C30.4526 5.25843 30.3554 5.47317 30.3189 5.69972C30.2824 5.92626 30.3076 6.15757 30.3923 6.37302" fill="white"/>
</g>
<defs>
<clipPath id="clip0_2472_27428">
<rect width="35.7576" height="11.9192" fill="white" transform="translate(0.242554 0.53418)"/>
</clipPath>
</defs>
</svg>
