<svg width="23" height="23" viewBox="0 0 23 23" fill="none" xmlns="http://www.w3.org/2000/svg">
<circle cx="11.5" cy="11.5" r="11.5" fill="#EBE8E8"/>
<path d="M15.4684 12.3532L15.4684 4.00184L15.4625 12.3532L15.4684 12.3532ZM4.96681 14.0761L11.1015 14.0761L10.9142 17.9474C10.9025 18.1796 11.0059 18.3981 11.1991 18.5425C11.3181 18.6303 11.4644 18.6752 11.6108 18.6732C11.9932 18.6713 12.3308 18.4118 12.4342 18.043C13.1581 15.4205 13.7006 13.4537 14.0635 12.1405L14.0635 5.40479L6.27024 5.40479C6.0752 5.4922 5.90957 5.63409 5.79326 5.8134C5.67695 5.99271 5.61491 6.2018 5.61462 6.41553C5.61462 6.6048 5.6595 6.78431 5.74926 6.94822L6.02048 7.44383L5.59316 7.81457C5.47288 7.91874 5.37646 8.04761 5.31047 8.19239C5.24447 8.33718 5.21045 8.49448 5.21071 8.6536C5.21071 8.84287 5.25559 9.02239 5.34535 9.18629L5.61657 9.68191L5.18925 10.0526C5.06897 10.1568 4.97255 10.2857 4.90656 10.4305C4.84056 10.5752 4.80654 10.7326 4.80681 10.8917C4.80681 11.0809 4.85169 11.2605 4.94144 11.4244L5.21462 11.9219L4.78729 12.2927C4.66702 12.3968 4.5706 12.5257 4.5046 12.6705C4.43861 12.8153 4.40459 12.9726 4.40485 13.1317C4.40485 13.5044 4.61949 13.8634 4.96681 14.0761Z" fill="#C4302B"/>
<path d="M18.6099 11.7268L18.6099 4.62428C18.6099 4.27891 18.3308 3.99989 17.9855 3.99989L16.7172 3.99989L16.7172 12.3512L17.9855 12.3512C18.3308 12.3512 18.6099 12.0722 18.6099 11.7268ZM3.50922 11.6156C3.18141 12.0488 2.99994 12.5795 2.99994 13.1317C2.99994 14.0078 3.4897 14.839 4.27801 15.2976C4.48095 15.4166 4.71201 15.4793 4.94728 15.479L9.62831 15.479L9.51123 17.8771C9.48196 18.4566 9.68684 19.0069 10.0868 19.4264C10.282 19.6334 10.5177 19.798 10.7792 19.9101C11.0406 20.0222 11.3224 20.0794 11.6069 20.0781C12.6215 20.0781 13.5191 19.3952 13.7883 18.4176L15.4625 12.3531L15.4684 4.00184L6.25656 4.00184C6.0751 4.00184 5.90144 4.03696 5.73948 4.10721C4.81069 4.50331 4.21166 5.41063 4.21166 6.41747C4.21166 6.66333 4.24678 6.90528 4.31703 7.13943C3.98922 7.57261 3.80776 8.10334 3.80776 8.65555C3.80776 8.9014 3.84288 9.14336 3.91312 9.3775C3.58531 9.81068 3.40385 10.3414 3.40385 10.8936C3.40385 11.1395 3.43897 11.3814 3.50922 11.6156ZM4.78728 12.2927L5.2146 11.9219L4.94143 11.4244C4.85207 11.2611 4.80574 11.0778 4.80679 10.8917C4.80679 10.5697 4.94533 10.2634 5.18923 10.0526L5.61655 9.6819L5.34533 9.18628C5.25598 9.02302 5.20964 8.83971 5.2107 8.65359C5.2107 8.33164 5.34924 8.0253 5.59314 7.81456L6.02046 7.44383L5.74924 6.94821C5.65988 6.78495 5.61355 6.60163 5.6146 6.41552C5.6146 5.97844 5.87217 5.58429 6.27022 5.40478L14.0635 5.40478L14.0635 12.1405C13.7005 13.4517 13.1581 15.4185 12.4342 18.043C12.3836 18.223 12.276 18.3817 12.1275 18.4953C11.9791 18.609 11.7977 18.6714 11.6108 18.6732C11.4644 18.6752 11.3181 18.6303 11.1991 18.5425C11.0059 18.3981 10.9025 18.1795 10.9142 17.9473L11.1015 14.0761L4.96679 14.0761C4.61947 13.8634 4.40484 13.5044 4.40484 13.1317C4.40484 12.8097 4.54337 12.5034 4.78728 12.2927Z" fill="#680300"/>
</svg>
