<svg width="21" height="21" viewBox="0 0 21 21" fill="none" xmlns="http://www.w3.org/2000/svg">
<path d="M20.2172 10.1052C20.2166 8.17358 19.6625 6.28254 18.6206 4.65599C17.5787 3.02944 16.0925 1.73554 14.3381 0.92734C12.5836 0.119139 10.6343 -0.169465 8.72095 0.0957057C6.80758 0.360877 5.01026 1.16872 3.54173 2.42358C2.0732 3.67845 0.994931 5.32779 0.434616 7.1764C-0.1257 9.025 -0.144623 10.9954 0.380083 12.8544C0.904789 14.7134 1.95117 16.3833 3.39534 17.6661C4.8395 18.949 6.62098 19.7911 8.5289 20.093V13.0317H5.93916V10.1052H8.5289V7.8781C8.5289 5.34879 10.0396 3.95028 12.3531 3.95028C13.1106 3.95778 13.8666 4.02123 14.6148 4.14017V6.63497H13.3372C13.1471 6.60828 12.9537 6.61964 12.768 6.66827C12.5824 6.7169 12.4082 6.80179 12.2557 6.91822C12.1031 7.03465 11.9751 7.18024 11.8792 7.34647C11.7834 7.51271 11.7214 7.69639 11.697 7.88674C11.684 7.9957 11.684 8.10582 11.697 8.21478V10.1139H14.5026L14.0537 13.0317H11.697V20.1016C14.0743 19.7216 16.2382 18.5064 17.7999 16.6741C19.3616 14.8419 20.2187 12.5127 20.2172 10.1052Z" fill="#19592A"/>
</svg>
