<svg width="37" height="37" viewBox="0 0 37 37" fill="none" xmlns="http://www.w3.org/2000/svg">
<path fill-rule="evenodd" clip-rule="evenodd" d="M18.3691 36.1034C28.3387 36.1034 36.4207 28.0214 36.4207 18.0517C36.4207 8.08201 28.3387 0 18.3691 0C8.3994 0 0.317383 8.08201 0.317383 18.0517C0.317383 28.0214 8.3994 36.1034 18.3691 36.1034ZM18.3693 6.01704C15.1003 6.01704 14.6912 6.03016 13.4078 6.08924C12.1278 6.14832 11.2515 6.35181 10.4857 6.6483C9.68315 6.95074 8.95623 7.42452 8.35556 8.03664C7.74303 8.63761 7.26887 9.36489 6.96613 10.1678C6.66964 10.9337 6.46506 11.8089 6.40707 13.0911C6.34909 14.3733 6.33487 14.7825 6.33487 18.0515C6.33487 21.3194 6.34799 21.7286 6.40707 23.0141C6.46615 24.2941 6.66964 25.1693 6.96613 25.9352C7.26843 26.7381 7.74222 27.4654 8.35447 28.0663C8.95599 28.6782 9.68364 29.1516 10.4868 29.4536C11.2526 29.7512 12.1278 29.9558 13.4078 30.0137C14.6912 30.0717 15.1003 30.0859 18.3693 30.0859C21.6383 30.0859 22.0475 30.0728 23.3319 30.0137C24.6119 29.9547 25.4872 29.7512 26.253 29.4536C27.0549 29.1516 27.7825 28.679 28.3842 28.0663C28.996 27.4648 29.4695 26.7372 29.7714 25.9341C30.069 25.1682 30.2736 24.293 30.3316 23.013C30.3896 21.7297 30.4038 21.3205 30.4038 18.0515C30.4038 14.7836 30.3906 14.3744 30.3316 13.0889C30.2725 11.8089 30.069 10.9337 29.7714 10.1678C29.4695 9.3648 28.9968 8.63836 28.3842 8.03773C27.7825 7.42507 27.0549 6.95135 26.253 6.6483C25.4872 6.35181 24.6119 6.14723 23.3297 6.08924C22.0475 6.03126 21.6383 6.01704 18.3693 6.01704ZM18.3693 8.18543C21.5825 8.18543 21.9632 8.19746 23.2323 8.25544C24.4062 8.30905 25.043 8.50489 25.4675 8.67009C25.9901 8.86287 26.463 9.17014 26.8514 9.56939C27.2726 9.99059 27.5319 10.3921 27.7507 10.9534C27.9159 11.3778 28.1118 12.0146 28.1654 13.1885C28.2234 14.4576 28.2354 14.8383 28.2354 18.0515C28.2354 21.2647 28.2234 21.6454 28.1654 22.9145C28.1118 24.0884 27.9159 24.7251 27.7507 25.1496C27.5582 25.6715 27.2507 26.1452 26.8514 26.5336C26.4302 26.9548 26.0287 27.2141 25.4675 27.4329C25.043 27.5981 24.4062 27.7939 23.2323 27.8475C21.9632 27.9055 21.5836 27.9176 18.3693 27.9176C15.155 27.9176 14.7754 27.9055 13.5063 27.8475C12.3324 27.7939 11.6957 27.5981 11.2712 27.4329C10.7493 27.2403 10.2756 26.9329 9.88722 26.5336C9.48789 26.1452 9.18047 25.6715 8.98792 25.1496C8.82272 24.7251 8.62688 24.0884 8.57327 22.9145C8.51529 21.6454 8.50326 21.2647 8.50326 18.0515C8.50326 14.8383 8.51529 14.4576 8.57327 13.1885C8.62688 12.0146 8.82272 11.3778 8.98792 10.9534C9.18066 10.4307 9.48794 9.95783 9.88722 9.56939C10.3084 9.14818 10.7099 8.88889 11.2712 8.67009C11.6957 8.50489 12.3324 8.30905 13.5063 8.25544C14.7754 8.19746 15.1561 8.18543 18.3693 8.18543ZM19.5366 21.8978C18.6465 22.167 17.6906 22.1187 16.8322 21.7614C16.2839 21.534 15.7928 21.1879 15.3943 20.748C14.9958 20.3081 14.6998 19.7853 14.5276 19.2172C14.3554 18.6492 14.3113 18.05 14.3985 17.4629C14.4857 16.8757 14.7019 16.3152 15.0317 15.8217C15.3615 15.3281 15.7966 14.9139 16.3057 14.6087C16.8149 14.3035 17.3853 14.115 17.976 14.0567C18.5667 13.9985 19.163 14.0719 19.7219 14.2717C20.2808 14.4716 20.7885 14.7929 21.2084 15.2125C21.867 15.8688 22.2773 16.7335 22.3692 17.6588C22.4611 18.5841 22.2289 19.5127 21.7123 20.2858C21.1957 21.0589 20.4266 21.6287 19.5366 21.8978ZM16.0021 12.3366C15.2517 12.6475 14.5697 13.1031 13.9953 13.6775C12.8353 14.8376 12.1836 16.4109 12.1836 18.0515C12.1836 19.6921 12.8353 21.2654 13.9953 22.4255C15.1554 23.5855 16.7288 24.2372 18.3693 24.2372C20.0099 24.2372 21.5832 23.5855 22.7433 22.4255C23.3177 21.8511 23.7733 21.1692 24.0842 20.4187C24.3951 19.6682 24.5551 18.8638 24.5551 18.0515C24.5551 17.2392 24.3951 16.4348 24.0842 15.6843C23.7733 14.9338 23.3177 14.2519 22.7433 13.6775C22.1689 13.1031 21.487 12.6475 20.7365 12.3366C19.986 12.0258 19.1816 11.8658 18.3693 11.8658C17.557 11.8658 16.7526 12.0258 16.0021 12.3366ZM26.2621 12.3121C26.1833 12.4912 26.0693 12.6527 25.927 12.787C25.6501 13.0481 25.2824 13.1911 24.9019 13.1855C24.5214 13.18 24.158 13.0263 23.8889 12.7573C23.6198 12.4882 23.4662 12.1248 23.4607 11.7443C23.4551 11.3637 23.5981 10.996 23.8592 10.7192C23.9935 10.5769 24.155 10.4629 24.3341 10.3841C24.5132 10.3053 24.7063 10.2632 24.9019 10.2604C25.0976 10.2575 25.2918 10.2939 25.4731 10.3675C25.6545 10.4411 25.8192 10.5503 25.9575 10.6886C26.0959 10.827 26.2051 10.9917 26.2787 11.173C26.3522 11.3544 26.3887 11.5486 26.3858 11.7443C26.383 11.9399 26.3409 12.133 26.2621 12.3121Z" fill="url(#paint0_linear_78_791)"/>
<defs>
<linearGradient id="paint0_linear_78_791" x1="32.66" y1="-7.47198e-09" x2="4.8303" y2="34.5991" gradientUnits="userSpaceOnUse">
<stop stop-color="#8134AF"/>
<stop offset="1" stop-color="#DD2A7B"/>
</linearGradient>
</defs>
</svg>
