<svg width="21" height="21" viewBox="0 0 21 21" fill="none" xmlns="http://www.w3.org/2000/svg">
<path d="M16.9384 4.71329C16.9401 4.95439 16.8702 5.19052 16.7375 5.39182C16.6048 5.59311 16.4153 5.75054 16.193 5.84399C15.9708 5.93744 15.7257 5.96279 15.4891 5.9168C15.2524 5.87082 15.0347 5.75559 14.8636 5.58571C14.6925 5.41583 14.5758 5.19896 14.5281 4.96262C14.4804 4.72627 14.504 4.48109 14.5959 4.25817C14.6877 4.03526 14.8437 3.84466 15.0441 3.71053C15.2444 3.5764 15.4801 3.50473 15.7212 3.50473C15.8806 3.50359 16.0387 3.53407 16.1864 3.5943C16.334 3.65452 16.4682 3.7433 16.5814 3.85563C16.6945 3.96797 16.7843 4.1016 16.8456 4.24879C16.9068 4.39599 16.9384 4.55386 16.9384 4.71329ZM10.3259 13.4839C9.66004 13.4839 9.00913 13.2864 8.45549 12.9165C7.90184 12.5465 7.47033 12.0207 7.21552 11.4056C6.9607 10.7904 6.89404 10.1135 7.02394 9.46041C7.15385 8.80735 7.47449 8.2075 7.94533 7.73666C8.41617 7.26582 9.01604 6.94515 9.66911 6.81525C10.3222 6.68534 10.9991 6.75201 11.6143 7.00682C12.2295 7.26164 12.7552 7.69315 13.1252 8.24679C13.4951 8.80044 13.6926 9.45137 13.6926 10.1172C13.6903 11.0094 13.3349 11.8644 12.704 12.4953C12.0731 13.1261 11.2181 13.4816 10.3259 13.4839ZM10.3259 4.92047C9.30149 4.92047 8.30011 5.22428 7.44835 5.79341C6.59659 6.36254 5.93271 7.17138 5.54069 8.11781C5.14866 9.06424 5.04609 10.1057 5.24595 11.1104C5.4458 12.1151 5.93911 13.0381 6.66348 13.7624C7.38784 14.4868 8.31072 14.9801 9.31544 15.18C10.3202 15.3798 11.3616 15.2772 12.308 14.8852C13.2544 14.4932 14.0634 13.8292 14.6325 12.9775C15.2016 12.1257 15.5054 11.1244 15.5054 10.0999C15.5054 8.72626 14.9597 7.40881 13.9883 6.43747C13.017 5.46613 11.6996 4.92047 10.3259 4.92047ZM10.3259 1.82144C13.0279 1.82144 13.3473 1.82139 14.4177 1.88182C15.0577 1.88436 15.6921 2.00132 16.2909 2.22714C16.7271 2.39401 17.1232 2.65091 17.4534 2.98111C17.7836 3.31131 18.0405 3.70738 18.2073 4.14352C18.4332 4.74237 18.5501 5.3768 18.5527 6.01681C18.6045 7.08723 18.6131 7.40662 18.6131 10.1086C18.6131 12.8106 18.6131 13.1299 18.5527 14.1917C18.5429 14.8346 18.4232 15.4711 18.1987 16.0737C18.0327 16.5125 17.7735 16.91 17.4391 17.239C17.1106 17.5679 16.7164 17.8238 16.2823 17.99C15.6766 18.2125 15.0371 18.3293 14.3918 18.3354C13.3214 18.3872 13.002 18.3957 10.3 18.3957C7.59804 18.3957 7.27865 18.3958 6.20822 18.3354C5.5661 18.3182 4.93084 18.1986 4.32635 17.9814C3.8894 17.8118 3.49258 17.553 3.16114 17.2215C2.82971 16.8901 2.57092 16.4933 2.4013 16.0564C2.1748 15.4658 2.04932 14.8413 2.03011 14.209C2.03011 13.1472 1.97832 12.8192 1.97832 10.1259C1.97832 7.43254 1.97831 7.10451 2.03011 6.03409C2.03835 5.39105 2.15811 4.75426 2.38404 4.15216C2.55085 3.71497 2.80762 3.31768 3.13775 2.98606C3.46788 2.65444 3.86402 2.39591 4.30045 2.22714C4.89997 2.00268 5.5336 1.88293 6.17368 1.87318C7.25274 1.87318 7.56353 1.82144 10.2655 1.82144H10.3086H10.3259ZM10.3259 1.09131e-10C7.58077 1.09131e-10 7.23549 -4.63661e-05 6.15643 0.0603809C5.31881 0.0766474 4.48995 0.234281 3.70481 0.526568C3.03235 0.786818 2.42164 1.18459 1.91177 1.69446C1.4019 2.20433 1.00413 2.81499 0.743879 3.48745C0.451593 4.27258 0.293985 5.10152 0.277719 5.93914C0.225924 7.0182 0.217285 7.36346 0.217285 10.1086C0.217285 12.8537 0.217291 13.199 0.277719 14.278C0.293985 15.1157 0.451593 15.9446 0.743879 16.7297C1.00413 17.4022 1.4019 18.0128 1.91177 18.5227C2.42164 19.0326 3.03235 19.4304 3.70481 19.6906C4.49061 19.9817 5.31878 20.1421 6.15643 20.1654C7.23549 20.1654 7.58077 20.2258 10.3259 20.2258C13.071 20.2258 13.4163 20.2259 14.4954 20.1654C15.333 20.1421 16.1612 19.9817 16.947 19.6906C17.6195 19.4304 18.2302 19.0326 18.7401 18.5227C19.2499 18.0128 19.6477 17.4022 19.9079 16.7297C20.2002 15.9446 20.3578 15.1157 20.3741 14.278C20.4259 13.199 20.4345 12.8537 20.4345 10.1086C20.4345 7.36346 20.4345 7.0182 20.3741 5.93914C20.3578 5.10152 20.2002 4.27258 19.9079 3.48745C19.6477 2.81499 19.2499 2.20433 18.7401 1.69446C18.2302 1.18459 17.6195 0.786818 16.947 0.526568C16.1619 0.234281 15.333 0.0766474 14.4954 0.0603809C13.4163 0.0085861 13.071 1.09131e-10 10.3259 1.09131e-10Z" fill="#19592A"/>
</svg>
