<svg width="17" height="15" viewBox="0 0 17 15" fill="none" xmlns="http://www.w3.org/2000/svg">
<path d="M8.13523 2.31323L8.49845 2.69719L8.86168 2.31323C9.60887 1.52339 10.8652 0.5 12.2624 0.5C13.5364 0.5 14.589 0.946369 15.3223 1.68565C16.0559 2.42523 16.5 3.48822 16.5 4.77578C16.5 6.18098 15.9553 7.34985 15.1056 8.4194C14.2463 9.50098 13.0993 10.4524 11.9206 11.4277C11.9205 11.4278 11.9205 11.4278 11.9205 11.4278L11.9143 11.4329C10.8181 12.3396 9.64063 13.3134 8.72913 14.4014C8.67554 14.4652 8.59915 14.5 8.52164 14.5H8.47682C8.39918 14.5 8.32243 14.4653 8.26872 14.4016C7.36646 13.3228 6.20027 12.3568 5.11345 11.4565L5.07896 11.428L5.07876 11.4278C3.89969 10.4521 2.75282 9.50046 1.89382 8.41888C1.04438 7.34934 0.5 6.18064 0.5 4.77578C0.5 3.48822 0.944076 2.42524 1.67777 1.68567C2.41118 0.946394 3.46391 0.5 4.73836 0.5C6.13448 0.5 7.38765 1.52297 8.13523 2.31323Z" fill="#36BF5A" stroke="#19592A"/>
</svg>
