<svg width="26" height="26" viewBox="0 0 26 26" fill="none" xmlns="http://www.w3.org/2000/svg">
<circle cx="13" cy="13" r="13" fill="#EBE8E8"/>
<path d="M12.6348 8.22236L12.9981 8.60631L13.3613 8.22236C14.2077 7.32768 15.6445 6.15222 17.253 6.15222C18.7089 6.15222 19.9159 6.66264 20.7583 7.51181C21.6009 8.36128 22.1085 9.58 22.1085 11.0509C22.1085 12.6582 21.4848 13.9934 20.518 15.2104C19.5417 16.4393 18.2394 17.5192 16.9081 18.6208C16.9081 18.6208 16.908 18.6208 16.908 18.6209L16.9035 18.6246C15.6626 19.6509 14.3353 20.7487 13.3088 21.974C13.236 22.0606 13.1315 22.1087 13.0243 22.1087H12.9736C12.8664 22.1087 12.7615 22.0609 12.6885 21.9743C11.6724 20.7594 10.3579 19.6705 9.12764 18.6514L9.09095 18.621L9.09075 18.6209C7.75903 17.5189 6.45694 16.4387 5.48088 15.2098C4.51438 13.9929 3.89111 12.6578 3.89111 11.0509C3.89111 9.58001 4.39871 8.36129 5.24143 7.51183C6.08385 6.66266 7.29109 6.15222 8.74752 6.15222C10.3548 6.15222 11.7881 7.32726 12.6348 8.22236Z" stroke="#585858"/>
</svg>
