<svg width="23" height="23" viewBox="0 0 23 23" fill="none" xmlns="http://www.w3.org/2000/svg">
<circle cx="11.5" cy="11.5" r="11.5" fill="#EBE8E8"/>
<path d="M7.14148 9.72497V18.0763L7.14733 9.72497H7.14148ZM17.6431 8.00203H11.5084L11.6957 4.13077C11.7074 3.89857 11.604 3.68003 11.4108 3.53564C11.2918 3.44783 11.1454 3.40296 10.9991 3.40491C10.6166 3.40686 10.2791 3.66637 10.1757 4.03516C9.45175 6.65762 8.9093 8.62447 8.54637 9.93766V16.6733H16.3396C16.5347 16.5859 16.7003 16.444 16.8166 16.2647C16.9329 16.0854 16.9949 15.8763 16.9952 15.6626C16.9952 15.4733 16.9504 15.2938 16.8606 15.1299L16.5894 14.6343L17.0167 14.2636C17.137 14.1594 17.2334 14.0305 17.2994 13.8857C17.3654 13.7409 17.3994 13.5836 17.3991 13.4245C17.3991 13.2353 17.3543 13.0557 17.2645 12.8918L16.9933 12.3962L17.4206 12.0255C17.5409 11.9213 17.6373 11.7924 17.7033 11.6477C17.7693 11.5029 17.8033 11.3456 17.8031 11.1865C17.8031 10.9972 17.7582 10.8177 17.6684 10.6538L17.3952 10.1562L17.8226 9.78546C17.9428 9.68129 18.0393 9.55242 18.1053 9.40764C18.1713 9.26285 18.2053 9.10555 18.205 8.94643C18.205 8.57374 17.9904 8.21471 17.6431 8.00203Z" fill="#EBE8E8"/>
<path d="M4 10.3513V17.4538C4 17.7992 4.27903 18.0782 4.6244 18.0782H5.8927V9.72693H4.6244C4.27903 9.72693 4 10.006 4 10.3513ZM19.1006 10.4625C19.4285 10.0294 19.6099 9.49864 19.6099 8.94644C19.6099 8.07033 19.1202 7.2391 18.3319 6.78056C18.1289 6.66152 17.8979 6.59888 17.6626 6.59909H12.9816L13.0986 4.20102C13.1279 3.6215 12.923 3.07125 12.523 2.65174C12.3278 2.44476 12.0922 2.2801 11.8307 2.16799C11.5692 2.05588 11.2875 1.99871 11.003 2.00002C9.98836 2.00002 9.09079 2.68296 8.82151 3.66053L7.14735 9.72498L7.1415 18.0763H16.3533C16.5348 18.0763 16.7084 18.0412 16.8704 17.9709C17.7992 17.5748 18.3982 16.6675 18.3982 15.6607C18.3982 15.4148 18.3631 15.1728 18.2928 14.9387C18.6206 14.5055 18.8021 13.9748 18.8021 13.4226C18.8021 13.1767 18.767 12.9348 18.6967 12.7006C19.0245 12.2674 19.206 11.7367 19.206 11.1845C19.206 10.9387 19.1709 10.6967 19.1006 10.4625ZM17.8226 9.78547L17.3953 10.1562L17.6684 10.6538C17.7578 10.817 17.8041 11.0003 17.8031 11.1865C17.8031 11.5084 17.6645 11.8148 17.4206 12.0255L16.9933 12.3962L17.2645 12.8918C17.3539 13.0551 17.4002 13.2384 17.3992 13.4245C17.3992 13.7465 17.2606 14.0528 17.0167 14.2636L16.5894 14.6343L16.8606 15.1299C16.95 15.2932 16.9963 15.4765 16.9953 15.6626C16.9953 16.0997 16.7377 16.4938 16.3396 16.6733H8.54639V9.93767C8.90932 8.62643 9.45176 6.65958 10.1757 4.03517C10.2263 3.85516 10.3339 3.69642 10.4823 3.58278C10.6308 3.46914 10.8121 3.40673 10.9991 3.40491C11.1454 3.40296 11.2918 3.44784 11.4108 3.53565C11.604 3.68004 11.7074 3.89858 11.6957 4.13078L11.5084 8.00204H17.6431C17.9904 8.21472 18.205 8.57375 18.205 8.94644C18.205 9.26839 18.0665 9.57474 17.8226 9.78547Z" fill="black"/>
</svg>
