<svg width="37" height="34" viewBox="0 0 37 34" fill="none" xmlns="http://www.w3.org/2000/svg">
<path d="M0.409814 31.6305H1.27183C1.34225 31.6323 1.41196 31.6161 1.47438 31.5834C1.53892 31.5572 1.59684 31.517 1.64396 31.4657C1.68793 31.4093 1.72143 31.3455 1.74288 31.2772C1.76598 31.2041 1.77712 31.1278 1.77585 31.0511C1.77798 30.9741 1.76519 30.8973 1.73817 30.825C1.71075 30.7566 1.67259 30.693 1.62512 30.6366C1.57776 30.5852 1.52201 30.5422 1.46025 30.5094C1.39852 30.4795 1.331 30.4634 1.26241 30.4623H0.409814V31.6305ZM0.0518188 32.973V30.1467H1.26712C1.3879 30.1465 1.50714 30.1739 1.6157 30.2268C1.76335 30.3054 1.88743 30.4218 1.97518 30.5642C2.06293 30.7066 2.11119 30.8698 2.11501 31.037C2.11509 31.1344 2.1008 31.2312 2.07261 31.3243C2.04526 31.4135 2.00392 31.4978 1.95014 31.574C1.84688 31.7255 1.69338 31.8356 1.51678 31.8849L2.2045 32.973H1.7994L1.17291 31.9367H0.419235V32.973H0.0518188Z" fill="#104B86"/>
<path d="M4.72929 31.7858C4.72156 31.6909 4.69599 31.5982 4.65392 31.5126C4.61428 31.4324 4.56177 31.3592 4.49847 31.296C4.37074 31.1767 4.20216 31.111 4.02743 31.1123C3.93734 31.1114 3.84788 31.1274 3.76364 31.1594C3.68285 31.1918 3.60923 31.2398 3.54696 31.3007C3.48481 31.3621 3.43381 31.4338 3.39622 31.5126C3.35351 31.5976 3.32942 31.6908 3.32557 31.7858H4.72929ZM3.99916 33.0106C3.85036 33.013 3.7027 32.9842 3.5658 32.9258C3.43784 32.8713 3.32241 32.7911 3.22665 32.6903C3.13253 32.591 3.0589 32.4741 3.00997 32.3464C2.95723 32.2129 2.93006 32.0707 2.92989 31.9272C2.92962 31.7851 2.95681 31.6444 3.00997 31.5126C3.06052 31.3832 3.13571 31.2648 3.23136 31.1641C3.32739 31.0647 3.44283 30.9861 3.57051 30.9333C3.70557 30.8738 3.85159 30.8433 3.99916 30.8438C4.14825 30.8433 4.29581 30.8738 4.43253 30.9333C4.55668 30.9896 4.66868 31.0696 4.76226 31.1688C4.85227 31.2685 4.92403 31.3833 4.97423 31.5079C5.02127 31.6378 5.04518 31.7749 5.04489 31.913V31.9931C5.04489 31.9931 5.04489 32.0355 5.04489 32.0496H3.31615C3.32327 32.1477 3.34884 32.2436 3.39151 32.3323C3.42782 32.4158 3.48071 32.4911 3.54696 32.5537C3.61001 32.6135 3.68343 32.6614 3.76364 32.695C3.84529 32.7306 3.93364 32.7483 4.02272 32.7468C4.08532 32.754 4.14854 32.754 4.21114 32.7468C4.2711 32.7281 4.3294 32.7045 4.38542 32.6761C4.43745 32.6469 4.48503 32.6104 4.52674 32.5678C4.56768 32.526 4.59973 32.4763 4.62095 32.4218L4.92242 32.5066C4.88987 32.5859 4.84182 32.658 4.7811 32.7185C4.72081 32.785 4.65096 32.8422 4.57384 32.8881C4.49001 32.9335 4.40158 32.9698 4.31006 32.9964C4.21351 33.0234 4.11353 33.0361 4.0133 33.0341" fill="#104B86"/>
<path d="M6.60879 32.7471C6.73017 32.7483 6.85048 32.7243 6.96208 32.6765C7.05944 32.6396 7.14436 32.5759 7.20702 32.4928C7.22936 32.4732 7.24754 32.4494 7.26049 32.4227C7.27344 32.396 7.28088 32.367 7.28239 32.3373V32.0264C7.11206 31.9638 6.93155 31.9334 6.7501 31.9369C6.59905 31.9302 6.44953 31.9696 6.32145 32.05C6.26981 32.0793 6.22689 32.1217 6.19709 32.173C6.16729 32.2244 6.15168 32.2827 6.15187 32.342C6.15255 32.3991 6.1654 32.4553 6.18956 32.5069C6.21102 32.5572 6.24317 32.6022 6.28377 32.6388C6.32703 32.6767 6.37641 32.7069 6.42979 32.7283C6.48757 32.7472 6.548 32.7568 6.60879 32.7566V32.7471ZM6.51929 33.0204C6.42454 33.0219 6.33031 33.006 6.24137 32.9732C6.15855 32.9421 6.08314 32.8939 6.01998 32.8319C5.95801 32.7751 5.90832 32.7061 5.87396 32.6294C5.83582 32.5484 5.81649 32.4598 5.81743 32.3703C5.81683 32.2782 5.83952 32.1875 5.88338 32.1065C5.92721 32.0265 5.98837 31.9573 6.06237 31.904C6.14894 31.8452 6.24436 31.8007 6.345 31.7721C6.4598 31.739 6.57885 31.7232 6.69829 31.725C6.80255 31.7253 6.90658 31.7347 7.00918 31.7532C7.10264 31.7687 7.19422 31.7939 7.28239 31.8286V31.659C7.28985 31.585 7.28068 31.5103 7.25555 31.4403C7.23042 31.3703 7.18996 31.3068 7.13714 31.2544C7.08432 31.202 7.02046 31.1621 6.95024 31.1376C6.88002 31.113 6.8052 31.1045 6.73126 31.1126C6.48961 31.1224 6.25719 31.2081 6.06709 31.3576L5.94932 31.1267C6.18767 30.9565 6.47144 30.8614 6.76424 30.8535C6.99861 30.84 7.22886 30.9196 7.40486 31.0749C7.48502 31.1564 7.54702 31.254 7.5868 31.3611C7.62659 31.4683 7.64324 31.5827 7.63567 31.6967V32.5493C7.63567 32.6341 7.67336 32.6765 7.74872 32.6765V32.9827H7.65451H7.57915C7.54891 32.9846 7.51862 32.9801 7.49022 32.9695C7.46182 32.959 7.43595 32.9426 7.41428 32.9214C7.37306 32.881 7.34653 32.8279 7.33891 32.7707V32.6247C7.24821 32.7496 7.12642 32.8487 6.98563 32.912C6.83774 32.9786 6.67669 33.0108 6.51458 33.0062" fill="#104B86"/>
<path d="M8.73793 30.053H9.09121V32.4365C9.08867 32.4696 9.09278 32.503 9.10329 32.5345C9.11381 32.5661 9.13052 32.5952 9.15245 32.6202C9.17548 32.6425 9.20282 32.6598 9.23279 32.6711C9.26276 32.6825 9.29473 32.6876 9.32673 32.6861H9.43036L9.54342 32.6532L9.59994 32.9358C9.53233 32.9609 9.46309 32.9814 9.39268 32.997C9.32127 33.0111 9.24877 33.019 9.176 33.0206C9.11742 33.0236 9.05882 33.0148 9.00376 32.9946C8.9487 32.9743 8.89833 32.9431 8.85569 32.9028C8.81433 32.86 8.78246 32.8089 8.76217 32.7528C8.74188 32.6968 8.73362 32.6372 8.73793 32.5778V30.053Z" fill="#104B86"/>
<path d="M13.8111 32.653V32.9733H11.8798V30.1282H13.7781V30.4485H12.2425V31.3717H13.5756V31.6732H12.2425V32.653H13.8111Z" fill="#104B86"/>
<path d="M15.5116 33.0106C15.3422 33.0114 15.1738 32.986 15.0123 32.9353C14.8592 32.8877 14.7168 32.8109 14.593 32.7092L14.7438 32.4736C14.8577 32.5594 14.983 32.6292 15.1159 32.6809C15.2391 32.7283 15.3701 32.7523 15.5022 32.7516C15.6293 32.7587 15.7556 32.7275 15.8649 32.6621C15.9077 32.6351 15.9428 32.5975 15.9668 32.5529C15.9907 32.5084 16.0027 32.4583 16.0015 32.4077C16.002 32.361 15.9889 32.3152 15.9638 32.2758C15.9343 32.2375 15.8975 32.2055 15.8554 32.1816C15.7961 32.1533 15.7347 32.1297 15.6717 32.1109L15.4127 32.045L15.0876 31.9508C15.008 31.9264 14.932 31.8915 14.8615 31.8472C14.8082 31.8092 14.7646 31.7592 14.7343 31.7011C14.7047 31.6361 14.6902 31.5653 14.692 31.4939C14.6908 31.3972 14.7134 31.3018 14.7579 31.216C14.7925 31.1277 14.8513 31.0509 14.9275 30.9946C15.0029 30.9356 15.0894 30.8923 15.1818 30.8674C15.2829 30.8385 15.3876 30.8242 15.4927 30.825C15.644 30.8243 15.7941 30.8515 15.9355 30.9051C16.0615 30.9489 16.1782 31.016 16.2794 31.1029L16.1192 31.3149C16.0318 31.239 15.9312 31.18 15.8225 31.1406C15.7149 31.1032 15.6019 31.0841 15.488 31.0841C15.373 31.0813 15.2593 31.1089 15.1583 31.1641C15.1141 31.1917 15.0785 31.2309 15.0552 31.2775C15.0319 31.324 15.022 31.3761 15.0264 31.4279C15.0254 31.4684 15.0335 31.5087 15.0499 31.5457C15.0712 31.5818 15.1022 31.6113 15.1394 31.6305C15.188 31.6595 15.2403 31.6817 15.2949 31.6964L15.521 31.7577C15.6441 31.782 15.7653 31.815 15.8837 31.8566C15.9733 31.8844 16.0589 31.924 16.1381 31.9743C16.201 32.0142 16.2528 32.0693 16.2888 32.1345C16.3239 32.2029 16.3417 32.279 16.3406 32.3559C16.3448 32.447 16.3264 32.5377 16.2869 32.6199C16.2475 32.7021 16.1882 32.7732 16.1145 32.8269C15.9377 32.9482 15.7257 33.0078 15.5116 32.9965" fill="#104B86"/>
<path d="M18.3661 32.8794L18.2813 32.9171L18.1636 32.9595C18.116 32.976 18.0672 32.9886 18.0176 32.9972C17.9643 33.0021 17.9107 33.0021 17.8574 32.9972C17.737 32.9989 17.6195 32.9608 17.523 32.8889C17.4759 32.8485 17.4391 32.7976 17.4154 32.7403C17.3916 32.683 17.3817 32.621 17.3864 32.5591V31.146H17.099V30.8681H17.3864V30.1851H17.7396V30.8822H18.2107V31.1601H17.7396V32.4555C17.7382 32.4877 17.7442 32.5198 17.7573 32.5492C17.7704 32.5786 17.7901 32.6046 17.815 32.6251C17.8611 32.6597 17.9175 32.6779 17.9752 32.6769C18.0395 32.6783 18.1035 32.6671 18.1636 32.6439C18.2045 32.6288 18.244 32.6099 18.2813 32.5874L18.3661 32.8794Z" fill="#104B86"/>
<path d="M19.8546 32.7468C19.9744 32.7475 20.0931 32.7234 20.2032 32.6761C20.3006 32.6393 20.3855 32.5756 20.4481 32.4924C20.4705 32.4729 20.4887 32.4491 20.5016 32.4224C20.5146 32.3957 20.522 32.3666 20.5235 32.337V32.0261C20.3606 31.9663 20.1883 31.936 20.0148 31.9366C19.8637 31.9299 19.7142 31.9693 19.5861 32.0497C19.535 32.0791 19.4928 32.1218 19.4638 32.1732C19.4348 32.2245 19.4201 32.2827 19.4213 32.3417C19.4203 32.3984 19.4316 32.4546 19.4542 32.5066C19.4778 32.5556 19.5097 32.6003 19.5484 32.6385C19.5917 32.6763 19.6411 32.7066 19.6945 32.728C19.7538 32.7472 19.8158 32.7567 19.8782 32.7562L19.8546 32.7468ZM19.784 33.02C19.6892 33.0216 19.595 33.0056 19.5061 32.9729C19.4232 32.9417 19.3478 32.8936 19.2847 32.8316C19.2227 32.7747 19.173 32.7058 19.1386 32.629C19.0958 32.546 19.0732 32.454 19.0727 32.3605C19.0721 32.2685 19.0948 32.1777 19.1386 32.0968C19.1825 32.0167 19.2436 31.9475 19.3176 31.8942C19.4042 31.8354 19.4996 31.7909 19.6003 31.7623C19.7151 31.7293 19.8341 31.7134 19.9535 31.7152C20.0578 31.7153 20.1619 31.7247 20.2644 31.7435C20.3579 31.7589 20.4495 31.7842 20.5376 31.8188V31.6493C20.5454 31.5024 20.4946 31.3584 20.3963 31.2489C20.3417 31.1978 20.2771 31.1584 20.2066 31.1333C20.1361 31.1082 20.0612 31.0978 19.9865 31.1028C19.7449 31.1126 19.5125 31.1983 19.3223 31.3478L19.2046 31.117C19.4419 30.9481 19.7237 30.8531 20.0148 30.8438C20.2492 30.8302 20.4794 30.9098 20.6554 31.0652C20.7356 31.1467 20.7976 31.2442 20.8374 31.3514C20.8771 31.4585 20.8938 31.5729 20.8862 31.6869V32.5395C20.8862 32.6243 20.9239 32.6667 20.9993 32.6667V32.9729H20.9098H20.8297C20.7995 32.9742 20.7694 32.9695 20.7411 32.959C20.7127 32.9485 20.6868 32.9324 20.6648 32.9117C20.6236 32.8712 20.5971 32.8182 20.5895 32.7609V32.6149C20.4956 32.7387 20.3727 32.8375 20.2315 32.9022C20.0837 32.9693 19.9226 33.0015 19.7604 32.9965" fill="#104B86"/>
<path d="M23.0389 32.8794L22.9541 32.9171L22.8364 32.9595L22.6903 32.9972C22.6371 33.0018 22.5835 33.0018 22.5302 32.9972C22.4097 32.9996 22.2919 32.9615 22.1957 32.8889C22.147 32.8497 22.1086 32.7991 22.0839 32.7416C22.0593 32.6841 22.0492 32.6215 22.0544 32.5591V31.146H21.7718V30.8681H22.0544V30.1851H22.4077V30.8822H22.8788V31.1601H22.4077V32.4555C22.4073 32.4875 22.4138 32.5193 22.4268 32.5486C22.4398 32.5778 22.459 32.604 22.4831 32.6251C22.5297 32.6588 22.5857 32.6769 22.6432 32.6769C22.7107 32.6789 22.7779 32.6677 22.8411 32.6439L22.9588 32.5874L23.0389 32.8794Z" fill="#104B86"/>
<path d="M25.5072 31.7858C25.5011 31.6911 25.4771 31.5984 25.4366 31.5126C25.3969 31.4312 25.3426 31.3578 25.2764 31.296C25.2135 31.2371 25.14 31.1907 25.0597 31.1594C24.9756 31.127 24.8861 31.111 24.7959 31.1123C24.7058 31.1106 24.6162 31.1266 24.5321 31.1594C24.4499 31.1917 24.3747 31.2397 24.3108 31.3007C24.2486 31.3621 24.1976 31.4338 24.16 31.5126C24.1217 31.5992 24.0978 31.6915 24.0894 31.7858H25.5072ZM24.7912 33.0106C24.6425 33.0121 24.495 32.9832 24.3579 32.9258C24.2313 32.8712 24.1174 32.791 24.0234 32.6903C23.9278 32.5912 23.8526 32.4744 23.802 32.3464C23.7508 32.2126 23.7252 32.0704 23.7266 31.9272C23.7187 31.7866 23.7379 31.6459 23.7832 31.5126C23.8337 31.3832 23.9089 31.2648 24.0046 31.1641C24.1006 31.0647 24.216 30.9861 24.3437 30.9333C24.4804 30.8738 24.628 30.8433 24.7771 30.8438C24.9247 30.8433 25.0707 30.8738 25.2057 30.9333C25.3306 30.9884 25.4428 31.0686 25.5355 31.1688C25.6287 31.2661 25.7009 31.3815 25.7474 31.5079C25.7982 31.6369 25.8238 31.7744 25.8228 31.913C25.8253 31.9397 25.8253 31.9665 25.8228 31.9931C25.8256 32.0119 25.8256 32.0309 25.8228 32.0496H24.0988C24.1067 32.1471 24.1305 32.2426 24.1694 32.3323C24.2091 32.4139 24.2616 32.4887 24.3249 32.5537C24.3888 32.6146 24.464 32.6626 24.5463 32.695C24.6276 32.7315 24.7162 32.7492 24.8053 32.7468C24.868 32.7537 24.9311 32.7537 24.9938 32.7468C25.0525 32.729 25.1093 32.7053 25.1633 32.6761C25.2162 32.6481 25.2639 32.6115 25.3047 32.5678C25.3471 32.5272 25.3794 32.4772 25.3989 32.4218L25.705 32.5066C25.6708 32.585 25.623 32.6568 25.5637 32.7185C25.5024 32.7839 25.4327 32.8409 25.3565 32.8881C25.2723 32.9327 25.1839 32.9689 25.0927 32.9964C24.9945 33.0232 24.893 33.0358 24.7912 33.0341" fill="#104B86"/>
<path d="M2.08673 0L2.45415 0.701861L3.23609 0.833753L2.68025 1.39901L2.7933 2.18566L2.08673 1.83237L1.37545 2.18566L1.4885 1.39901L0.937378 0.833753L1.71932 0.701861L2.08673 0Z" fill="#E81D2C"/>
<path d="M5.11085 0L5.47826 0.701861L6.2602 0.833753L5.70908 1.39901L5.82213 2.18566L5.11085 1.83237L4.40428 2.18566L4.51733 1.39901L3.9662 0.833753L4.74814 0.701861L5.11085 0Z" fill="#E81D2C"/>
<path d="M8.13969 0L8.5071 0.701861L9.28904 0.833753L8.73792 1.39901L8.85097 2.18566L8.13969 1.83237L7.43311 2.18566L7.54617 1.39901L6.99504 0.833753L7.77227 0.701861L8.13969 0Z" fill="#E81D2C"/>
<path d="M11.1685 0L11.536 0.701861L12.3179 0.833753L11.7621 1.39901L11.8798 2.18566L11.1685 1.83237L10.462 2.18566L10.575 1.39901L10.0192 0.833753L10.8011 0.701861L11.1685 0Z" fill="#E81D2C"/>
<path d="M14.1974 0L14.5648 0.701861L15.3467 0.833753L14.7909 1.39901L14.9086 2.18566L14.1974 1.83237L13.4908 2.18566L13.6038 1.39901L13.048 0.833753L13.8299 0.701861L14.1974 0Z" fill="#E81D2C"/>
<path d="M36.4638 5.67627V33.0017H28.0838V32.3517H35.809V6.33102H0.692439L0.650045 18.8797H0V5.67627H36.4638Z" fill="#104B86"/>
<path d="M0.00468445 22.9869H0.631177V26.694H0.00468445V22.9869ZM0.00468445 21.5078H0.631177V22.2898H0.00468445V21.5078Z" fill="#104B86"/>
<path d="M6.97148 26.7036V22.8033L5.29456 25.7945H4.93185L3.25021 22.8033V26.7036H2.60959V21.6587H3.2879L5.11085 24.9325L6.94322 21.6587H7.61211V26.7036H6.97148Z" fill="#104B86"/>
<path d="M13.114 26.1336V26.7036H9.68945V21.6587H13.048V22.2287H10.3301V23.8632H12.6947V24.3955H10.3301V26.1336H13.114Z" fill="#104B86"/>
<path d="M14.9887 21.6587L16.5196 23.7643L18.0552 21.6587H18.7571L16.8635 24.2165L18.7006 26.7036H17.9987L16.5196 24.6734L15.0452 26.7036H14.334L16.171 24.2165L14.2774 21.6587H14.9887Z" fill="#104B86"/>
<path d="M20.8957 21.6587H20.255V26.6989H20.8957V21.6587Z" fill="#104B86"/>
<path d="M22.6479 24.1455C22.6484 23.837 22.7026 23.531 22.8081 23.2411C22.9151 22.9449 23.0747 22.6704 23.2792 22.4309C23.4898 22.188 23.7479 21.9909 24.0375 21.8515C24.355 21.7001 24.7033 21.6243 25.055 21.6301C25.4611 21.6195 25.8617 21.7258 26.2091 21.9363C26.5197 22.1268 26.7684 22.4034 26.9251 22.7324L26.4257 23.0574C26.3543 22.909 26.2606 22.7724 26.1478 22.6523C26.0475 22.5484 25.9315 22.461 25.804 22.3932C25.6801 22.3287 25.5488 22.2797 25.413 22.2472C25.2846 22.2191 25.1535 22.2049 25.022 22.2048C24.765 22.2016 24.5111 22.2614 24.2825 22.3791C24.0705 22.4958 23.8858 22.6564 23.7408 22.8501C23.5935 23.0308 23.4801 23.2367 23.4063 23.4578C23.3321 23.686 23.294 23.9244 23.2933 24.1644C23.2825 24.6804 23.46 25.1827 23.7926 25.5775C23.9436 25.7617 24.1313 25.9125 24.3437 26.0203C24.5599 26.1294 24.7987 26.1859 25.0409 26.1851C25.179 26.1836 25.3165 26.1662 25.4507 26.1333C25.5914 26.1001 25.7263 26.0461 25.8511 25.9732C25.9828 25.8977 26.1033 25.8041 26.2091 25.6953C26.3248 25.5804 26.4175 25.4445 26.4823 25.2949L27.0146 25.5869C26.9362 25.7745 26.8209 25.9443 26.6754 26.0862C26.5377 26.2317 26.3789 26.3555 26.2044 26.4536C26.0232 26.5531 25.8301 26.6291 25.6297 26.6797C25.4343 26.7309 25.2334 26.7578 25.0314 26.7598C24.7031 26.7625 24.3793 26.6831 24.0894 26.529C23.7944 26.3791 23.5306 26.1745 23.3121 25.9261C23.1074 25.6779 22.948 25.3957 22.8411 25.0923C22.7263 24.7915 22.6672 24.4722 22.6668 24.1502" fill="#104B86"/>
<path d="M28.9647 24.1789C28.9625 24.4322 29.0039 24.6839 29.0872 24.9231C29.1635 25.1546 29.2816 25.3702 29.4357 25.559C29.5845 25.7424 29.7708 25.8918 29.9822 25.9971C30.2019 26.1056 30.4437 26.162 30.6887 26.162C30.9338 26.162 31.1755 26.1056 31.3953 25.9971C31.6071 25.8783 31.7929 25.7181 31.9417 25.5261C32.0894 25.3345 32.204 25.1195 32.2809 24.8902C32.3573 24.6575 32.3971 24.4144 32.3986 24.1695C32.4003 23.9278 32.3621 23.6875 32.2856 23.4582C32.2097 23.2269 32.0897 23.0126 31.9323 22.827C31.7815 22.6457 31.5956 22.4967 31.3859 22.3889C31.1665 22.2791 30.9246 22.2219 30.6793 22.2219C30.434 22.2219 30.1921 22.2791 29.9727 22.3889C29.761 22.4977 29.5747 22.6502 29.4263 22.8364C29.2738 23.0219 29.1543 23.2322 29.073 23.4582C28.9975 23.6908 28.9609 23.9343 28.9647 24.1789ZM30.6793 26.7555C30.3433 26.7603 30.0109 26.6861 29.7089 26.5388C29.4223 26.3948 29.1688 26.1927 28.9647 25.9453C28.7598 25.7026 28.6002 25.4249 28.4936 25.1257C28.3802 24.8245 28.3212 24.5055 28.3194 24.1836C28.3217 23.8609 28.384 23.5414 28.5031 23.2415C28.6199 22.9424 28.7889 22.6665 29.0024 22.4266C29.2159 22.1905 29.4735 21.9985 29.7608 21.8613C30.0557 21.7237 30.3774 21.6529 30.7029 21.6541C31.0298 21.6539 31.3523 21.7297 31.6449 21.8755C31.929 22.0214 32.1818 22.2214 32.3892 22.4643C32.8097 22.9514 33.042 23.573 33.044 24.2166C33.0397 24.8724 32.7988 25.5047 32.3656 25.9971C32.1524 26.2302 31.8966 26.4205 31.612 26.5577C31.317 26.6953 30.9953 26.7661 30.6699 26.7649" fill="#104B86"/>
</svg>
