<svg width="30" height="10" viewBox="0 0 30 10" fill="none" xmlns="http://www.w3.org/2000/svg">
<g clip-path="url(#clip0_206:773)">
<path d="M7.10418 1.19728C6.98189 1.08318 6.90649 0.933801 6.89077 0.774529C6.87505 0.615256 6.91998 0.455909 7.01794 0.323552C7.1159 0.191194 7.26085 0.0939888 7.42816 0.048446C7.59546 0.00290313 7.77481 0.0118307 7.93575 0.073713C8.09669 0.135595 8.22929 0.246617 8.31102 0.387919C8.39276 0.529222 8.41859 0.692092 8.38413 0.848866C8.34967 1.00564 8.25705 1.14665 8.122 1.24795C7.98694 1.34925 7.81778 1.40458 7.64324 1.40456C7.54273 1.40543 7.44307 1.3875 7.35038 1.35186C7.25769 1.31622 7.17392 1.26362 7.10418 1.19728ZM8.23766 7.50379H7.03439V2.24469H8.23766V7.50379Z" fill="white"/>
<path d="M0.810982 6.8622C0.535974 6.59909 0.322257 6.28748 0.182834 5.9463C0.0434113 5.60513 -0.0188038 5.24153 -2.43119e-05 4.87763C-0.0188036 4.516 0.0456231 4.15479 0.189073 3.81745C0.332523 3.48012 0.55179 3.17419 0.832641 2.91953C1.09247 2.68284 1.40132 2.49615 1.74104 2.37043C2.08076 2.24471 2.44448 2.18249 2.81082 2.18745C3.17539 2.17983 3.53615 2.25668 3.85966 2.41087C4.18317 2.56506 4.45896 2.79159 4.66145 3.06947V0.202881H5.86473V7.53916H4.66145V6.74974C4.44356 7.03462 4.14999 7.2639 3.80849 7.41592C3.467 7.56794 3.08884 7.63768 2.70975 7.61854C2.35372 7.62029 2.00116 7.55437 1.67434 7.42495C1.34752 7.29553 1.05355 7.10541 0.810982 6.86661V6.8622ZM1.20806 4.93497C1.19917 5.1624 1.2416 5.38907 1.3327 5.60079C1.4238 5.81251 1.56161 6.00472 1.7375 6.16539C1.89896 6.31699 2.09218 6.43713 2.30557 6.5186C2.51896 6.60007 2.74811 6.64118 2.97928 6.63949C3.20535 6.64214 3.42948 6.60086 3.63688 6.51838C3.84428 6.43591 4.03025 6.3141 4.18255 6.16099C4.34944 5.99584 4.47913 5.80216 4.5642 5.59102C4.64926 5.37988 4.68804 5.15544 4.6783 4.93056C4.69553 4.46878 4.518 4.01866 4.18255 3.67367C4.03188 3.51284 3.84452 3.38426 3.6337 3.29701C3.42288 3.20976 3.19374 3.16596 2.96243 3.1687C2.72856 3.16736 2.49705 3.21171 2.28335 3.29878C2.06964 3.38585 1.87864 3.51365 1.72306 3.67367C1.37436 4.01445 1.18742 4.46805 1.20325 4.93497" fill="white"/>
<path d="M13.005 6.6527C12.9129 6.54217 12.8414 6.4185 12.7932 6.28665C12.525 6.44414 12.214 6.52969 11.8955 6.53362C11.6469 6.53597 11.4003 6.49297 11.17 6.40714C10.9397 6.32131 10.7303 6.19437 10.554 6.03369C10.3778 5.87301 10.2382 5.68181 10.1433 5.47122C10.0485 5.26063 10.0003 5.03486 10.0016 4.80705C9.99425 4.58531 10.04 4.36479 10.1356 4.16098C10.2313 3.95717 10.3744 3.77502 10.5551 3.62734C10.7253 3.48783 10.9261 3.38321 11.1439 3.32046C11.3618 3.25772 11.5918 3.2383 11.8185 3.2635C12.145 3.28358 12.4648 3.35832 12.7619 3.48401C12.8086 3.37307 12.8657 3.26608 12.9328 3.16427C13.0611 2.95573 13.2459 2.78104 13.4694 2.65711C13.0159 2.33121 12.4574 2.1521 11.8811 2.14773C11.0741 2.1307 10.2912 2.40011 9.69596 2.89966C9.12946 3.4126 8.80765 4.11019 8.80089 4.83992C8.79413 5.56964 9.10295 6.27214 9.65986 6.79382C10.1688 7.21949 10.8183 7.47732 11.5054 7.52645C12.1924 7.57558 12.8777 7.4132 13.4526 7.06504C13.2737 6.95766 13.1212 6.81721 13.005 6.6527Z" fill="white"/>
<path d="M17.64 6.68811C17.0933 7.16252 16.369 7.42692 15.6161 7.42692C14.8631 7.42692 14.1388 7.16252 13.5922 6.68811C13.0744 6.20807 12.7841 5.56037 12.7841 4.88546C12.7841 4.21055 13.0744 3.56285 13.5922 3.08281C14.1388 2.6084 14.8631 2.34399 15.6161 2.34399C16.369 2.34399 17.0933 2.6084 17.64 3.08281C18.1577 3.56285 18.4481 4.21055 18.4481 4.88546C18.4481 5.56037 18.1577 6.20807 17.64 6.68811ZM14.396 6.04863C14.724 6.33729 15.1612 6.49849 15.6161 6.49849C16.0709 6.49849 16.5081 6.33729 16.8362 6.04863C17.1442 5.72686 17.314 5.31346 17.314 4.88546C17.314 4.45746 17.1442 4.04406 16.8362 3.72229C16.5081 3.43363 16.0709 3.27243 15.6161 3.27243C15.1612 3.27243 14.724 3.43363 14.396 3.72229C14.088 4.04406 13.9181 4.45746 13.9181 4.88546C13.9181 5.31346 14.088 5.72686 14.396 6.04863Z" fill="white"/>
<path d="M22.2895 0.229248V3.06938C22.0805 2.7922 21.8 2.56663 21.473 2.41275C21.1459 2.25887 20.7824 2.18144 20.4148 2.18735C19.6688 2.17651 18.948 2.43467 18.4077 2.90621C18.3423 2.96096 18.2805 3.01912 18.2224 3.08041C18.5599 3.419 18.7889 3.83638 18.8842 4.28658C18.9691 4.03815 19.1167 3.81152 19.315 3.62506C19.476 3.46734 19.671 3.34199 19.8877 3.25696C20.1043 3.17194 20.3379 3.12908 20.5736 3.13112C20.806 3.12774 21.0364 3.17009 21.2494 3.2553C21.4624 3.34051 21.6529 3.4666 21.8082 3.62506C22.145 3.96 22.3256 4.4024 22.3111 4.85769C22.3201 5.07973 22.2801 5.30113 22.1937 5.50873C22.1073 5.71633 21.9762 5.90587 21.8082 6.06607C21.6506 6.21779 21.4604 6.33788 21.2495 6.41873C21.0387 6.49958 20.8118 6.53943 20.5832 6.53575C20.3507 6.53802 20.12 6.49807 19.9044 6.41821C19.6887 6.33836 19.4925 6.22017 19.327 6.07048C19.118 5.88907 18.9638 5.66117 18.8794 5.40896C18.7812 5.84907 18.5551 6.25669 18.2248 6.58868C18.2754 6.64423 18.3292 6.69723 18.3861 6.74744C18.6361 6.98308 18.9355 7.16998 19.2664 7.29692C19.5972 7.42386 19.9526 7.48822 20.3113 7.48614C20.6927 7.50557 21.0733 7.4375 21.4187 7.2881C21.7642 7.13871 22.0634 6.9127 22.2895 6.63057V7.40676H23.5216V0.229248H22.2895Z" fill="white"/>
<path d="M29.9278 4.41463L25.5961 5.71121C25.6696 5.88096 25.7857 6.03248 25.9349 6.15353C26.0842 6.27457 26.2624 6.36175 26.4552 6.40802C26.8737 6.52517 27.3221 6.51744 27.7355 6.38596C28.4286 6.17869 28.8858 5.82808 29.1072 5.33415L30.0024 5.77516C29.7942 6.14204 29.5061 6.46592 29.1559 6.72684C28.8057 6.98776 28.401 7.18019 27.9665 7.29225C27.24 7.52625 26.4426 7.49225 25.7429 7.19743C25.3859 7.04374 25.0694 6.82109 24.8152 6.54475C24.5609 6.26842 24.375 5.94495 24.2701 5.59655C24.1299 5.25844 24.073 4.89615 24.1034 4.53556C24.1338 4.17496 24.2507 3.82496 24.4457 3.51055C24.82 2.90221 25.4338 2.44786 26.1616 2.24043C26.8532 2.01484 27.6104 2.0258 28.2938 2.2713C28.6287 2.39608 28.9278 2.58989 29.1678 2.8377C29.4077 3.0855 29.5822 3.38063 29.6776 3.70019L29.9278 4.41463ZM25.3049 4.89975L28.4743 3.95157C28.4226 3.76946 28.3259 3.60071 28.1915 3.45844C28.0571 3.31618 27.8887 3.20422 27.6994 3.13128C27.3128 2.99503 26.8856 2.99111 26.4961 3.12025C26.0813 3.2415 25.7212 3.48392 25.4709 3.81044C25.3458 3.96463 25.2643 4.1448 25.2337 4.33486C25.203 4.52493 25.2242 4.71899 25.2952 4.89975" fill="white"/>
</g>
<defs>
<clipPath id="clip0_206:773">
<rect width="30" height="10" fill="white"/>
</clipPath>
</defs>
</svg>
