<svg width="14" height="10" viewBox="0 0 14 10" fill="none" xmlns="http://www.w3.org/2000/svg">
<path d="M13.35 0.97998L9.86 4.60999C9.84942 4.62259 9.84362 4.63857 9.84362 4.65503C9.84362 4.67149 9.84942 4.68747 9.86 4.70007L12.31 7.35999C12.3866 7.44308 12.4291 7.55202 12.4291 7.66504C12.4291 7.77806 12.3866 7.88699 12.31 7.97009C12.2314 8.04765 12.1254 8.09106 12.015 8.09106C11.9046 8.09106 11.7986 8.04765 11.72 7.97009L9.28 5.32007C9.26739 5.30949 9.25146 5.30371 9.235 5.30371C9.21854 5.30371 9.20261 5.30949 9.19 5.32007L8.59 5.94006C8.35102 6.19335 8.0627 6.395 7.74281 6.53259C7.42291 6.67018 7.07823 6.74071 6.73 6.73999C6.37368 6.73703 6.02165 6.66205 5.69511 6.51941C5.36857 6.37676 5.07429 6.16945 4.83 5.91003L4.26 5.32007C4.25437 5.31368 4.24745 5.30856 4.23969 5.30505C4.23193 5.30155 4.22351 5.29968 4.215 5.29968C4.20649 5.29968 4.19807 5.30155 4.19031 5.30505C4.18256 5.30856 4.17563 5.31368 4.17 5.32007L1.73 7.97009C1.6514 8.04765 1.54542 8.09106 1.435 8.09106C1.32458 8.09106 1.2186 8.04765 1.14 7.97009C1.0634 7.88699 1.02087 7.77806 1.02087 7.66504C1.02087 7.55202 1.0634 7.44308 1.14 7.35999L3.59 4.70007C3.60058 4.68747 3.60638 4.67149 3.60638 4.65503C3.60638 4.63857 3.60058 4.62259 3.59 4.60999L0.0900015 0.97998C0.084371 0.973596 0.0774469 0.96859 0.0696883 0.965088C0.0619296 0.961586 0.053514 0.959717 0.0450014 0.959717C0.0364889 0.959717 0.0280733 0.961586 0.0203146 0.965088C0.012556 0.96859 0.00563187 0.973596 1.36394e-06 0.97998V8.23999C-0.000433164 8.51103 0.102972 8.77197 0.288963 8.96912C0.474954 9.16627 0.729399 9.28471 1 9.30005H12.42C12.6906 9.28471 12.945 9.16627 13.131 8.96912C13.317 8.77197 13.4204 8.51103 13.42 8.23999V0.970093C13.4083 0.96192 13.3943 0.95752 13.38 0.95752C13.3657 0.95752 13.3517 0.96192 13.34 0.970093L13.35 0.97998Z" fill="#0D431B"/>
<path d="M6.71005 6.10999C6.9497 6.11084 7.18696 6.0625 7.40714 5.9679C7.62732 5.87329 7.82572 5.73449 7.99005 5.56006L13.1301 0.23999C12.9489 0.0850846 12.7184 -1.83315e-05 12.48 2.96177e-09H0.95005C0.711706 -1.83315e-05 0.481191 0.0850846 0.300049 0.23999L5.44005 5.56006C5.60322 5.73326 5.80001 5.87138 6.01837 5.96594C6.23673 6.06051 6.47209 6.10947 6.71005 6.10999Z" fill="#0D431B"/>
</svg>
