<svg width="9" height="12" viewBox="0 0 9 12" fill="none" xmlns="http://www.w3.org/2000/svg">
<path d="M4.13 1.21314e-05C3.03639 8.92565e-06 1.98742 0.433825 1.21318 1.20619C0.43894 1.97855 0.00264797 3.0264 0 4.12001C0 7.22001 4.13 11.78 4.13 11.78C4.13 11.78 8.26 7.21001 8.26 4.12001C8.26 3.57812 8.1531 3.04154 7.94543 2.54103C7.73776 2.04051 7.43338 1.58597 7.04975 1.20326C6.66611 0.820551 6.21074 0.517264 5.70973 0.310803C5.20871 0.104343 4.67189 -0.00130313 4.13 1.21314e-05ZM4.13 7.24C3.56709 7.24793 3.01453 7.08839 2.54248 6.78163C2.07044 6.47487 1.70022 6.03471 1.47883 5.5171C1.25745 4.9995 1.19489 4.42776 1.2991 3.87452C1.40332 3.32129 1.66961 2.81151 2.06414 2.40992C2.45868 2.00834 2.96367 1.73314 3.51497 1.61915C4.06627 1.50516 4.63902 1.5576 5.16046 1.76979C5.6819 1.98198 6.12852 2.34438 6.44359 2.81093C6.75866 3.27747 6.92796 3.82707 6.93 4.39003C6.93271 5.13809 6.64016 5.85701 6.11589 6.39064C5.59163 6.92426 4.878 7.22947 4.13 7.24Z" fill="#19592A"/>
</svg>
