<svg width="99" height="152" viewBox="0 0 99 152" fill="none" xmlns="http://www.w3.org/2000/svg">
<path d="M95.67 74.42C93.77 73.91 91.86 73.58 90.17 75.17C89.74 75.58 89.17 75.47 88.68 75.49C83.86 75.66 79.06 76.18 74.26 76.71C72.34 76.92 72.33 76.9199 71.59 75.1899C68.89 68.9499 65.99 62.7899 63 56.6799C62.92 56.5099 62.84 56.3399 62.75 56.1799C69.9413 56.2744 77.0569 54.7034 83.54 51.59C82.23 50.48 75.73 47.59 68.12 49.49C88.61 36.58 97.12 20.88 97.12 20.88C97.12 20.88 79.78 26.43 63.47 42.88C73.47 18.22 68.27 0 68.27 0C59.7852 12.3426 54.7548 26.7295 53.7 41.67C46.9473 26.2454 35.1762 13.558 20.3 5.67004C21.12 10.26 25.62 30.56 45.79 47.22C30.7217 43.5835 14.9853 43.7554 0 47.72C0 47.72 16.47 58.06 44 56.5C22.69 66.35 11.86 80.5 11.86 80.5C11.86 80.5 30.04 77.56 49.14 62.83C44.94 69.2 45.78 76.0199 46.48 77.5599C51.5556 72.6696 55.3357 66.5941 57.48 59.88C58.03 61.2 58.62 62.51 59.19 63.88L64.65 76.54C65.13 77.67 65.1 77.7699 63.8 77.9299C61.99 78.1599 60.17 78.33 58.35 78.52L47.79 79.63C41.24 80.36 34.68 81.0499 28.13 81.8199C23.33 82.3799 18.54 83.04 13.75 83.66C13.1638 83.7202 12.5825 83.8204 12.01 83.96C11.3488 84.1108 10.752 84.4666 10.3049 84.9766C9.85774 85.4865 9.58305 86.1247 9.51999 86.8C9.49851 87.4578 9.70615 88.1026 10.1074 88.6243C10.5087 89.1459 11.0787 89.5121 11.72 89.66C13.1794 90.0032 14.6931 90.0474 16.17 89.79C19.35 89.4 22.52 88.9299 25.69 88.5699C33.93 87.6299 42.17 86.7099 50.41 85.8099L59.55 84.8099C61.97 84.5399 64.43 84.29 66.89 83.99C68.07 83.84 68.27 84.64 68.56 85.37C70.37 89.99 72.26 94.58 73.95 99.25C79.3021 114.097 83.2625 129.41 85.78 144.99C86 146.32 86.02 147.68 86.26 148.99C86.3904 149.708 86.7782 150.354 87.3506 150.807C87.9231 151.26 88.6411 151.488 89.37 151.45C90.1535 151.467 90.9182 151.209 91.5318 150.721C92.1454 150.234 92.5692 149.547 92.73 148.78C92.87 148.052 92.9104 147.309 92.85 146.57C92.796 145.715 92.6925 144.863 92.54 144.02C89.6561 126.098 84.9414 108.52 78.47 91.5599C77.54 89.0899 76.47 86.67 75.52 84.22C75.4059 84.052 75.3321 83.8599 75.3043 83.6587C75.2766 83.4575 75.2956 83.2526 75.36 83.0599C77.79 82.5999 80.36 82.47 82.83 82.21C86.07 81.86 89.32 81.59 92.57 81.21C93.5457 81.1246 94.5124 80.9574 95.46 80.71C96.2416 80.5103 96.9397 80.0677 97.4537 79.4459C97.9677 78.8241 98.271 78.0552 98.32 77.25C98.31 75.91 97.46 74.89 95.67 74.42Z" fill="#699625"/>
<path d="M58.6599 57.16C60.0008 56.777 61.2023 56.0142 62.1196 54.9639C63.0369 53.9135 63.6309 52.6203 63.83 51.24C63.83 51.1604 63.7983 51.0841 63.7421 51.0278C63.6858 50.9716 63.6095 50.9399 63.5299 50.9399C63.4503 50.9399 63.3741 50.9716 63.3178 51.0278C63.2616 51.0841 63.2299 51.1604 63.2299 51.24C63.2299 51.47 62.75 56.76 55.51 57.16C55.4321 57.1652 55.3594 57.2004 55.3071 57.2583C55.2549 57.3162 55.2272 57.392 55.2299 57.47C55.2312 57.5089 55.2403 57.5473 55.2567 57.5826C55.2731 57.618 55.2964 57.6498 55.3254 57.6759C55.3543 57.702 55.3883 57.7221 55.4251 57.7349C55.462 57.7476 55.501 57.7527 55.5399 57.75C56.5999 57.7079 57.6494 57.5228 58.6599 57.2" fill="#5E5E61"/>
<path d="M44.75 47.5301C43.11 43.8401 43.84 39.9302 46.38 38.8002C48.92 37.6702 52.31 39.8001 53.95 43.4401C55.59 47.0801 54.86 51.0402 52.32 52.1702C49.78 53.3002 46.39 51.1701 44.75 47.5301Z" fill="white"/>
<path d="M44.79 47.51C45.4518 48.986 46.5335 50.2345 47.9 51.1C48.5507 51.5046 49.2688 51.7891 50.02 51.9399C50.7262 52.08 51.4582 52.0034 52.12 51.72C52.7633 51.4095 53.2969 50.9109 53.65 50.29C54.0266 49.6354 54.2648 48.9104 54.35 48.16C54.4501 47.3899 54.4501 46.61 54.35 45.8399C54.2408 45.0545 54.0463 44.2834 53.77 43.54C53.2065 42.0304 52.2206 40.7148 50.93 39.75C50.2856 39.2937 49.5478 38.9863 48.77 38.85C48.0265 38.7245 47.2624 38.8292 46.58 39.15C45.931 39.4921 45.3932 40.0125 45.03 40.65C44.6441 41.3136 44.3831 42.0423 44.26 42.8C43.9769 44.3927 44.179 46.0336 44.8401 47.51H44.79ZM44.76 47.51C44.428 46.7573 44.1604 45.9778 43.96 45.1799C43.7557 44.3696 43.6615 43.5354 43.68 42.6999C43.6981 41.8316 43.9172 40.9793 44.32 40.2099C44.7481 39.4093 45.4357 38.7781 46.27 38.42C47.1059 38.1031 48.0224 38.0678 48.88 38.3199C49.6886 38.5607 50.445 38.9508 51.11 39.47C52.4127 40.5055 53.474 41.8125 54.22 43.3C55.0002 44.813 55.3463 46.5123 55.22 48.2099C55.1593 49.0893 54.9104 49.9453 54.49 50.72C54.0644 51.5384 53.369 52.1846 52.5216 52.5491C51.6742 52.9135 50.7269 52.9739 49.8401 52.72C48.996 52.495 48.2155 52.0774 47.56 51.5C46.9267 50.9516 46.3715 50.3191 45.91 49.62C45.4479 48.9415 45.0495 48.2218 44.72 47.47" fill="#34373E"/>
<g style="mix-blend-mode:multiply" opacity="0.3">
<g style="mix-blend-mode:multiply" opacity="0.3">
<g style="mix-blend-mode:multiply" opacity="0.3">
<path style="mix-blend-mode:multiply" opacity="0.3" d="M47.6007 38.4295L42.0918 40.2439L46.6435 54.0635L52.1524 52.2491L47.6007 38.4295Z" fill="url(#paint0_linear_177:687)"/>
</g>
</g>
</g>
<path d="M53.43 43.83C54.31 47.77 57.21 50.4801 59.93 49.8801C62.65 49.2801 64.13 45.5901 63.26 41.6501C62.39 37.7101 59.48 35 56.76 35.6C54.04 36.2 52.56 39.88 53.43 43.83Z" fill="white"/>
<path d="M53.3901 43.8401C53.2129 43.0376 53.1058 42.2212 53.0701 41.4001C53.0255 40.5644 53.0961 39.7266 53.28 38.9101C53.4628 38.0544 53.843 37.253 54.3901 36.5701C54.9583 35.8396 55.7621 35.3287 56.6647 35.1245C57.5673 34.9203 58.5128 35.0353 59.3401 35.4501C60.1365 35.8251 60.8451 36.3635 61.4201 37.0301C62.5206 38.3331 63.2404 39.9144 63.5001 41.6001C63.7843 43.2405 63.7058 44.9233 63.2701 46.5301C63.046 47.3437 62.6692 48.1072 62.16 48.7801C61.6344 49.5138 60.8648 50.0365 59.989 50.2545C59.1132 50.4725 58.1884 50.3717 57.3801 49.9701C56.5961 49.5936 55.9111 49.0388 55.3801 48.3501C54.8671 47.6867 54.4466 46.9566 54.1301 46.18C53.8204 45.4214 53.5729 44.6388 53.3901 43.8401ZM53.4801 43.8401C53.8289 45.4206 54.64 46.8617 55.8101 47.9801C56.3619 48.5142 57.0056 48.9444 57.7101 49.2501C58.3835 49.5408 59.1246 49.6378 59.85 49.5301C60.5852 49.3785 61.2577 49.0091 61.78 48.4701C62.3277 47.9022 62.7412 47.2188 62.9901 46.4701C63.4502 44.9236 63.4502 43.2766 62.9901 41.7301C62.7752 40.9695 62.4767 40.235 62.1 39.5402C61.7417 38.8519 61.2909 38.216 60.7601 37.6501C60.2498 37.0956 59.6301 36.6529 58.9401 36.3501C58.2866 36.045 57.5516 35.961 56.8461 36.1107C56.1407 36.2605 55.5032 36.6358 55.03 37.18C54.515 37.748 54.1083 38.4056 53.8301 39.1201C53.2416 40.6255 53.1128 42.2715 53.4601 43.8501" fill="#34373E"/>
<g style="mix-blend-mode:multiply" opacity="0.3">
<g style="mix-blend-mode:multiply" opacity="0.3">
<g style="mix-blend-mode:multiply" opacity="0.3">
<path style="mix-blend-mode:multiply" opacity="0.3" d="M61.2598 34.1018L55.599 35.9663L60.1507 49.7861L65.8115 47.9216L61.2598 34.1018Z" fill="url(#paint1_linear_177:687)"/>
</g>
</g>
</g>
<path d="M54.25 30.9L54.72 33.64C55.6984 33.3143 56.7444 33.2461 57.7568 33.4423C58.7693 33.6385 59.714 34.0924 60.5 34.76C60.5 34.76 58.39 29.92 54.25 30.9Z" fill="#34373E"/>
<path d="M47.45 33.48L48.62 35.71C47.8619 35.9174 47.1614 36.2957 46.5721 36.8157C45.9827 37.3357 45.5202 37.9836 45.22 38.71C44.9634 37.7201 45.0433 36.6729 45.447 35.7334C45.8507 34.7938 46.5553 34.0153 47.45 33.52" fill="#34373E"/>
<path d="M54.82 45.6099C55.16 46.6099 56.02 47.2499 56.75 47.0099C57.1396 46.7974 57.4327 46.4433 57.5685 46.0208C57.7044 45.5983 57.6727 45.1397 57.48 44.7399C57.15 43.7399 56.28 43.1099 55.55 43.3499C55.1611 43.5605 54.8682 43.9128 54.7323 44.3336C54.5964 44.7545 54.6278 45.2116 54.82 45.6099Z" fill="#009384"/>
<path d="M55.6599 44.53C55.7899 44.93 56.1299 45.1799 56.4299 45.0899C56.5846 45.0032 56.6999 44.8604 56.752 44.691C56.8041 44.5216 56.7891 44.3385 56.71 44.1799C56.58 43.7799 56.2399 43.54 55.9499 43.63C55.7961 43.7148 55.6804 43.8552 55.6265 44.0224C55.5726 44.1897 55.5846 44.3712 55.6599 44.53Z" fill="white"/>
<path d="M50.84 46.9298C51.17 47.9298 52.03 48.5598 52.77 48.3198C53.1579 48.1057 53.4488 47.7509 53.5827 47.3285C53.7167 46.9062 53.6835 46.4485 53.49 46.05C53.16 45.05 52.29 44.4199 51.56 44.6599C51.1721 44.8741 50.8812 45.2289 50.7472 45.6513C50.6133 46.0736 50.6465 46.5312 50.84 46.9298Z" fill="#009384"/>
<path d="M51.67 45.85C51.669 45.9439 51.6904 46.0367 51.7324 46.1206C51.7744 46.2046 51.8359 46.2773 51.9117 46.3328C51.9874 46.3882 52.0754 46.4249 52.1681 46.4395C52.2609 46.4541 52.3558 46.4463 52.445 46.4169C52.5341 46.3874 52.615 46.3371 52.6808 46.2702C52.7466 46.2032 52.7955 46.1214 52.8234 46.0318C52.8513 45.9421 52.8573 45.847 52.8411 45.7545C52.8249 45.662 52.7868 45.5748 52.73 45.5C52.6 45.1 52.2501 44.85 51.9601 44.94C51.8055 45.0267 51.6895 45.169 51.6357 45.3379C51.5819 45.5068 51.5941 45.6898 51.67 45.85Z" fill="white"/>
<defs>
<linearGradient id="paint0_linear_177:687" x1="45.792" y1="50.4322" x2="50.901" y2="48.7494" gradientUnits="userSpaceOnUse">
<stop stop-color="#D4D5D8"/>
<stop offset="0.25" stop-color="#E8EAEB"/>
<stop offset="0.75" stop-color="#AAA9AF"/>
<stop offset="1" stop-color="#D4D5D8"/>
</linearGradient>
<linearGradient id="paint1_linear_177:687" x1="-97926.3" y1="-265100" x2="-97958.6" y2="-265090" gradientUnits="userSpaceOnUse">
<stop stop-color="#D4D5D8"/>
<stop offset="0.25" stop-color="#E8EAEB"/>
<stop offset="0.75" stop-color="#AAA9AF"/>
<stop offset="1" stop-color="#D4D5D8"/>
</linearGradient>
</defs>
</svg>
