<svg width="50" height="50" viewBox="0 0 50 50" fill="none" xmlns="http://www.w3.org/2000/svg">
<path d="M25.0001 48.1658C37.7942 48.1658 48.1659 37.7941 48.1659 25C48.1659 12.2059 37.7942 1.83418 25.0001 1.83418C12.2059 1.83418 1.83423 12.2059 1.83423 25C1.83423 37.7941 12.2059 48.1658 25.0001 48.1658Z" fill="#FFFDFD" stroke="#19592A" stroke-width="3" stroke-linecap="round"/>
<mask id="mask0_177:238" style="mask-type:alpha" maskUnits="userSpaceOnUse" x="3" y="3" width="44" height="44">
<circle cx="25" cy="25" r="22" fill="#C4C4C4"/>
</mask>
<g mask="url(#mask0_177:238)">
<path d="M23.0785 27.6478C24.7818 31.5461 26.1043 35.6 27.0274 39.7528C29.0324 47.909 27.4796 57.3595 27.4796 57.3595" stroke="#789534" stroke-width="2" stroke-linecap="round"/>
<path d="M23.7257 41.9539L23.9853 39.6236C23.9853 39.6236 17.8353 42.277 16.8651 38.5219C15.8948 34.7669 22.9493 34.0551 25.7341 33.8613C28.5189 33.6674 35.3139 31.7248 38.1622 25.6405C39.8719 21.8274 40.4559 17.6049 39.8453 13.4709" stroke="#789534" stroke-width="2" stroke-linecap="round"/>
<path d="M25.7386 23.0506C31.6223 16.1655 32.1993 9.80385 32.1993 9.80385C32.1993 9.80385 26.2955 13.9744 22.9538 21.6705C22.614 13.0832 18.2073 7.86896 17.1703 6.7439C16.8784 8.30339 15.8447 15.2554 19.9384 22.6396C13.2192 18.1683 6.15135 18.1494 6.15135 18.1494C6.15135 18.1494 9.87965 23.1319 18.3121 25.4277C10.7697 26.4236 5.86841 29.8456 5.86841 29.8456C5.86841 29.8456 11.6608 30.7478 19.113 27.9641C17.1079 29.5805 16.5643 31.8484 16.5922 32.412C19.7111 30.8392 21.4255 28.6035 22.2977 27.3994L24.6559 31.8763L25.7085 31.5421L23.3359 27.0129C25.6768 27.9743 28.2367 28.2753 30.7368 27.8828C30.4728 27.3949 28.8576 25.8187 26.3568 25.6472C34.0084 23.5898 38.395 19.4248 38.395 19.4248C38.395 19.4248 32.5491 19.4426 25.7352 23.0529" fill="#789634"/>
<path d="M22.9994 27.024C21.6304 27.9641 20.4374 27.2056 20.4262 27.1967C20.4154 27.1897 20.406 27.1806 20.3987 27.1699C20.3914 27.1593 20.3863 27.1472 20.3837 27.1346C20.3811 27.1219 20.3811 27.1089 20.3836 27.0962C20.3861 27.0835 20.3911 27.0715 20.3984 27.0608C20.4053 27.0499 20.4143 27.0406 20.4248 27.0333C20.4354 27.026 20.4473 27.0209 20.4599 27.0183C20.4725 27.0157 20.4854 27.0156 20.498 27.0182C20.5106 27.0207 20.5226 27.0257 20.5332 27.0329C20.5956 27.073 22.0726 28.0054 23.6165 26.1919C23.6336 26.1729 23.6574 26.1614 23.6829 26.1597C23.7083 26.158 23.7335 26.1663 23.7529 26.1828C23.7723 26.1993 23.7846 26.2228 23.787 26.2482C23.7894 26.2736 23.7818 26.299 23.7658 26.3189C23.5425 26.5866 23.2848 26.8237 22.9994 27.024Z" fill="#5E5E61"/>
<path d="M23.2533 21.4722C22.615 20.3093 21.4487 19.7222 20.6489 20.1611C19.8491 20.6 19.7166 21.8988 20.3549 23.0573C20.9931 24.2158 22.1583 24.8073 22.9592 24.3684C23.7601 23.9295 23.8905 22.6307 23.2533 21.4722Z" fill="white"/>
<path d="M23.2401 21.4789C22.9849 21.0131 22.5972 20.6336 22.1262 20.3884C21.9031 20.2718 21.6608 20.1963 21.411 20.1656C21.1716 20.1351 20.9285 20.1737 20.7104 20.277C20.4911 20.3917 20.312 20.5704 20.1968 20.7894C20.0753 21.019 20.0086 21.2737 20.0019 21.5335C19.9954 22.063 20.1437 22.583 20.4285 23.0295C20.5666 23.2495 20.7284 23.4539 20.9109 23.6388C21.0876 23.8229 21.2884 23.9821 21.5079 24.1122C21.7207 24.2394 21.9572 24.3217 22.203 24.3539C22.4369 24.3913 22.6766 24.3507 22.8852 24.2384C23.0937 24.126 23.2595 23.9482 23.357 23.7324C23.4675 23.5064 23.5358 23.2621 23.5587 23.0116C23.6048 22.4828 23.4944 21.9521 23.2412 21.4856L23.2401 21.4789ZM23.2668 21.4711C23.3966 21.7078 23.5058 21.9553 23.5932 22.2107C23.684 22.4705 23.7387 22.7415 23.7558 23.0161C23.776 23.3021 23.7294 23.5888 23.6199 23.8538C23.5072 24.1361 23.3 24.3707 23.0337 24.5173C22.7674 24.664 22.4585 24.7137 22.1596 24.658C21.8737 24.6126 21.6007 24.5071 21.3587 24.3484C20.8921 24.0394 20.5195 23.6082 20.2815 23.1019C20.0416 22.61 19.912 22.0717 19.9016 21.5246C19.8972 21.247 19.9452 20.9711 20.0431 20.7114C20.1474 20.4378 20.3383 20.2058 20.5867 20.0508C20.8466 19.9051 21.1479 19.851 21.4422 19.8971C21.724 19.9437 21.991 20.0555 22.2219 20.2235C22.4441 20.3854 22.6431 20.5769 22.8134 20.7927C22.9805 21.0026 23.1296 21.2261 23.259 21.4611" fill="#383A40"/>
<g style="mix-blend-mode:multiply" opacity="0.3">
<g style="mix-blend-mode:multiply" opacity="0.3">
<g style="mix-blend-mode:multiply" opacity="0.3">
<path style="mix-blend-mode:multiply" opacity="0.3" d="M21.9158 19.3228L20.3456 20.4011L23.0515 24.3412L24.6217 23.2629L21.9158 19.3228Z" fill="url(#paint0_linear_177:238)"/>
</g>
</g>
</g>
<path d="M20.5577 23.005C21.4132 24.0175 21.5424 25.3164 20.8451 25.9012C20.1478 26.486 18.889 26.1473 18.0324 25.1348C17.1758 24.1222 17.0477 22.8223 17.7439 22.233C18.4401 21.6437 19.7011 21.9868 20.5577 23.0005" fill="white"/>
<path d="M20.5688 22.9949C20.7415 23.2018 20.8965 23.4227 21.0322 23.6555C21.1725 23.8923 21.2801 24.1472 21.3519 24.413C21.4252 24.6887 21.4336 24.9777 21.3764 25.2573C21.3154 25.5483 21.1585 25.8103 20.9308 26.0014C20.6967 26.1773 20.4116 26.2719 20.1188 26.271C19.8411 26.2698 19.5663 26.2157 19.3089 26.1117C18.8013 25.9066 18.345 25.5925 17.9722 25.1916C17.5849 24.7892 17.3153 24.2883 17.1925 23.7435C17.1323 23.4604 17.1323 23.1678 17.1925 22.8846C17.2494 22.5858 17.4082 22.3158 17.6417 22.1209C17.8753 21.9259 18.1692 21.8179 18.4735 21.8153C18.7602 21.8077 19.0448 21.8672 19.3045 21.9891C19.5552 22.105 19.7887 22.2549 19.9985 22.4346C20.2051 22.6078 20.3966 22.7982 20.571 23.0038L20.5688 22.9949ZM20.5476 23.0228C20.2034 22.6187 19.7478 22.3251 19.2376 22.1784C18.996 22.1097 18.7438 22.086 18.4935 22.1082C18.2569 22.122 18.0313 22.2131 17.8515 22.3674C17.6716 22.5217 17.5473 22.7308 17.4977 22.9626C17.4402 23.2036 17.4322 23.4537 17.4743 23.6978C17.5163 23.949 17.5912 24.1936 17.6971 24.4252C17.8046 24.6617 17.9376 24.8858 18.0936 25.0936C18.4077 25.5195 18.8394 25.8444 19.3357 26.0281C19.581 26.1143 19.8426 26.1436 20.1009 26.1139C20.3462 26.0845 20.5768 25.9816 20.7626 25.8187C20.9369 25.6515 21.0595 25.4377 21.1157 25.2027C21.1758 24.958 21.1913 24.7044 21.1614 24.4542C21.1017 23.926 20.8865 23.4274 20.5432 23.0217" fill="#383A40"/>
<g style="mix-blend-mode:multiply" opacity="0.3">
<g style="mix-blend-mode:multiply" opacity="0.3">
<g style="mix-blend-mode:multiply" opacity="0.3">
<path style="mix-blend-mode:multiply" opacity="0.3" d="M18.1089 21.9998L16.4965 23.1072L19.2024 27.0473L20.8148 25.94L18.1089 21.9998Z" fill="url(#paint1_linear_177:238)"/>
</g>
</g>
</g>
<path d="M17.0155 20.6445L17.6381 21.3129C17.6381 21.3129 16.7693 21.8108 16.7826 23.0462C16.7826 23.0462 15.9383 21.5301 17.0155 20.6434" fill="#383A40"/>
<path d="M19.0405 19.3814L19.3914 20.131C19.3914 20.131 20.0431 19.593 20.8395 19.8325C20.8395 19.8325 20.2502 18.9614 19.0405 19.3814Z" fill="#383A40"/>
<path d="M20.7471 23.719C20.9454 24.0064 20.9365 24.3573 20.7271 24.4987C20.5177 24.6402 20.1879 24.5243 19.9908 24.237C19.7936 23.9496 19.8014 23.5987 20.0108 23.4572C20.2202 23.3157 20.55 23.4305 20.7471 23.719Z" fill="#159385"/>
<path d="M20.2982 23.7268C20.3772 23.8382 20.3739 23.9797 20.2904 24.0376C20.2068 24.0955 20.0765 24.0476 19.9974 23.9329C19.9735 23.9144 19.9543 23.8906 19.9413 23.8633C19.9284 23.8359 19.9221 23.806 19.9229 23.7758C19.9238 23.7456 19.9318 23.716 19.9462 23.6895C19.9607 23.6629 19.9812 23.6402 20.0062 23.6231C20.0311 23.606 20.0597 23.5951 20.0896 23.5912C20.1196 23.5873 20.1501 23.5905 20.1785 23.6006C20.207 23.6107 20.2327 23.6274 20.2535 23.6494C20.2743 23.6713 20.2896 23.6978 20.2982 23.7268Z" fill="white"/>
<path d="M21.8843 22.9392C22.0814 23.2277 22.0725 23.5775 21.8642 23.719C21.6559 23.8605 21.3251 23.7457 21.1268 23.4572C20.9285 23.1687 20.9385 22.8189 21.1468 22.6775C21.3551 22.536 21.686 22.6507 21.8843 22.9392Z" fill="#159385"/>
<path d="M21.4343 22.9459C21.5134 23.0573 21.51 23.1999 21.4265 23.2567C21.343 23.3135 21.2126 23.2667 21.1335 23.1531C21.0545 23.0395 21.0589 22.8991 21.1425 22.8423C21.226 22.7855 21.3563 22.8312 21.4343 22.9459Z" fill="white"/>
</g>
<defs>
<linearGradient id="paint0_linear_177:238" x1="23.2287" y1="21.6649" x2="21.7634" y2="22.6712" gradientUnits="userSpaceOnUse">
<stop stop-color="#D4D5D8"/>
<stop offset="0.25" stop-color="#E9EAEB"/>
<stop offset="0.75" stop-color="#A9A8AE"/>
<stop offset="1" stop-color="#D4D5D8"/>
</linearGradient>
<linearGradient id="paint1_linear_177:238" x1="-48482.9" y1="-49767.8" x2="-48456.4" y2="-49786" gradientUnits="userSpaceOnUse">
<stop stop-color="#D4D5D8"/>
<stop offset="0.25" stop-color="#E9EAEB"/>
<stop offset="0.75" stop-color="#A9A8AE"/>
<stop offset="1" stop-color="#D4D5D8"/>
</linearGradient>
</defs>
</svg>
