<svg width="28" height="27" viewBox="0 0 28 27" fill="none" xmlns="http://www.w3.org/2000/svg">
<path d="M0.838712 14.8305C0.677789 14.9428 0.564296 15.111 0.520229 15.3023C0.476161 15.4936 0.504658 15.6945 0.600195 15.866L2.54433 19.2336C2.74385 19.5788 3.20138 19.7214 3.5599 19.5458L9.49732 16.6689V27H12.4975V15.2132L18.6045 12.2522L14.6742 5.4388L0.838712 14.8305ZM26.684 3.04362C25.8756 1.645 24.5451 0.624757 22.9851 0.207139C21.425 -0.21048 19.763 0.00870299 18.3645 0.81651C16.9994 1.6044 16.1023 2.85602 15.6628 4.25171L20.1271 11.9896C21.5537 12.3077 23.0868 12.1546 24.4549 11.3667C25.8537 10.5587 26.8744 9.22792 27.2925 7.66704C27.7105 6.10616 27.4917 4.44307 26.684 3.04362Z" fill="#FFFDFD"/>
</svg>
