<svg width="22" height="19" viewBox="0 0 22 19" fill="none" xmlns="http://www.w3.org/2000/svg">
<path d="M21.8148 5.6635V14.5443C21.8149 15.4498 21.4685 16.321 20.8466 16.9791C20.2248 17.6373 19.3746 18.0325 18.4706 18.0838L18.2699 18.0892H3.54491C2.63945 18.0893 1.76828 17.7429 1.11012 17.121C0.451967 16.4992 0.0567171 15.649 0.00545383 14.745L0 14.5443V5.6635L10.5278 11.1783C10.645 11.2396 10.7752 11.2717 10.9074 11.2717C11.0396 11.2717 11.1699 11.2396 11.287 11.1783L21.8148 5.6635ZM3.54491 0.63736H18.2699C19.1486 0.637254 19.996 0.963487 20.6478 1.55278C21.2996 2.14208 21.7092 2.95244 21.7974 3.82669L10.9074 9.53127L0.0174519 3.82669C0.10201 2.98716 0.483253 2.20532 1.09265 1.62171C1.70205 1.03811 2.49963 0.69101 3.34203 0.642813L3.54491 0.63736H18.2699H3.54491Z" fill="#348AFD"/>
</svg>
