<svg width="10" height="11" viewBox="0 0 10 11" fill="none" xmlns="http://www.w3.org/2000/svg">
<path d="M5.10413 2.84473H4.94455V3.0043V4.82802V4.98759H5.10413H5.71203H5.87161V4.82802V3.0043V2.84473H5.71203H5.10413Z" fill="black" stroke="black" stroke-width="0.31915"/>
<path d="M5.10413 5.88419H4.94455V6.04376V7.86748V8.02705H5.10413H5.71203H5.87161V7.86748V6.04376V5.88419H5.71203H5.10413Z" fill="black" stroke="black" stroke-width="0.31915"/>
<path d="M6.01605 4.97232H5.85648V5.1319V5.7398V5.89938H6.01605H7.83977H7.99934V5.7398V5.1319V4.97232H7.83977H6.01605Z" fill="black" stroke="black" stroke-width="0.31915"/>
<path d="M2.97626 4.97232H2.81668V5.1319V5.7398V5.89938H2.97626H4.79997H4.95955V5.7398V5.1319V4.97232H4.79997H2.97626Z" fill="black" stroke="black" stroke-width="0.31915"/>
<path d="M1.76074 3.77177H1.92031V3.61219V1.94805H3.58445H3.74403V1.78848V1.18057V1.021H3.58445L1.76074 1.021L1.76058 1.021C1.55713 1.0212 1.36208 1.10211 1.21822 1.24596C1.07437 1.38982 0.99346 1.58487 0.993257 1.78832V1.78848V3.61219V3.77177H1.15283H1.76074Z" fill="black" stroke="black" stroke-width="0.31915"/>
<path d="M3.58427 9.85081H3.74384V9.69123V9.08333V8.92375H3.58427H1.92013V7.25961V7.10004H1.76055H1.15265H0.993074V7.25961L0.993074 9.08333L0.993074 9.08349C0.993277 9.28693 1.07418 9.48198 1.21804 9.62584C1.3619 9.7697 1.55695 9.85061 1.76039 9.85081H1.76055H3.58427Z" fill="black" stroke="black" stroke-width="0.31915"/>
<path d="M9.0554 9.85081L9.05556 9.85081C9.25901 9.85061 9.45406 9.7697 9.59792 9.62584C9.74177 9.48198 9.82268 9.28693 9.82288 9.08349V9.08333V7.25961V7.10004H9.66331H9.0554H8.89583V7.25961V8.92375H7.23169H7.07211V9.08333V9.69123V9.85081H7.23169H9.0554Z" fill="black" stroke="black" stroke-width="0.31915"/>
<path d="M9.66331 3.77174H9.82288V3.61216V1.78845L9.82288 1.78829C9.82268 1.58484 9.74177 1.38979 9.59792 1.24593C9.45406 1.10208 9.25901 1.02117 9.05556 1.02097H9.0554H7.23169H7.07211V1.18054V1.78845V1.94802H7.23169H8.89583V3.61216V3.77174H9.0554H9.66331Z" fill="black" stroke="black" stroke-width="0.31915"/>
</svg>
