<svg width="31" height="32" viewBox="0 0 31 32" fill="none" xmlns="http://www.w3.org/2000/svg">
<path d="M27.0685 0.166016H11.2653C9.50617 0.166016 8.08275 1.58943 8.08275 3.34852V12.2738L0.637917 19.6236C0.414849 19.8442 0.262352 20.1261 0.199779 20.4336C0.137207 20.741 0.167379 21.0601 0.286468 21.3503C0.405557 21.6406 0.608192 21.8889 0.868659 22.0638C1.12912 22.2387 1.43568 22.3323 1.74942 22.3327V30.2493C1.74942 30.6693 1.91623 31.072 2.21316 31.3689C2.5101 31.6659 2.91282 31.8327 3.33275 31.8327H28.6661C29.086 31.8327 29.4887 31.6659 29.7857 31.3689C30.0826 31.072 30.2494 30.6693 30.2494 30.2493V3.34693C30.2494 1.58943 28.8276 0.166016 27.0685 0.166016ZM14.2926 20.9251V28.666H4.91608V19.85L9.6455 15.1808L14.2926 19.9355V20.9251ZM17.5828 11.2493H14.4161V8.08268H17.5828V11.2493ZM23.9161 23.916H20.7494V20.7493H23.9161V23.916ZM23.9161 17.5827H20.7494V14.416H23.9161V17.5827ZM23.9161 11.2493H20.7494V8.08268H23.9161V11.2493Z" fill="black"/>
</svg>
