<svg width="108" height="98" viewBox="0 0 108 98" fill="none" xmlns="http://www.w3.org/2000/svg">
<path d="M1.86397 93.1873H4.38567C4.59168 93.1925 4.79561 93.1451 4.9782 93.0495C5.167 92.9728 5.33643 92.8551 5.47427 92.705C5.6029 92.5401 5.70091 92.3534 5.76365 92.1538C5.83123 91.94 5.86381 91.7166 5.86011 91.4924C5.86634 91.2669 5.82891 91.0423 5.74987 90.831C5.66967 90.6308 5.55803 90.4447 5.41915 90.2798C5.28063 90.1293 5.11754 90.0035 4.93686 89.9077C4.75628 89.8202 4.55876 89.7732 4.35811 89.7699H1.86397V93.1873ZM0.816711 97.1145V88.8467H4.37189C4.72522 88.8459 5.07403 88.9261 5.3916 89.0809C5.82354 89.3108 6.18651 89.6515 6.44321 90.068C6.69991 90.4845 6.84109 90.9619 6.85225 91.4511C6.8525 91.7358 6.81071 92.0191 6.72823 92.2916C6.64823 92.5525 6.5273 92.799 6.36996 93.022C6.06788 93.4652 5.61884 93.7873 5.10222 93.9314L7.11407 97.1145H5.92901L4.0963 94.083H1.89153V97.1145H0.816711Z" fill="#104B86"/>
<path d="M14.5008 93.6407C14.4782 93.3628 14.4034 93.0917 14.2803 92.8415C14.1644 92.6068 14.0108 92.3927 13.8256 92.2076C13.4519 91.8588 12.9588 91.6665 12.4476 91.6702C12.1841 91.6678 11.9224 91.7146 11.676 91.808C11.4396 91.9029 11.2242 92.0434 11.0421 92.2214C10.8603 92.401 10.7111 92.6108 10.6011 92.8415C10.4762 93.0902 10.4057 93.3627 10.3944 93.6407H14.5008ZM12.365 97.2235C11.9296 97.2307 11.4977 97.1462 11.0972 96.9754C10.7229 96.816 10.3852 96.5815 10.1051 96.2864C9.82974 95.996 9.61435 95.6542 9.4712 95.2805C9.31692 94.89 9.23745 94.474 9.23694 94.0541C9.23617 93.6386 9.31571 93.2268 9.4712 92.8415C9.61909 92.4629 9.83904 92.1166 10.1189 91.8218C10.3998 91.5311 10.7375 91.3013 11.111 91.1466C11.5061 90.9726 11.9333 90.8834 12.365 90.8848C12.8011 90.8835 13.2327 90.9727 13.6327 91.1466C13.9959 91.3115 14.3235 91.5455 14.5973 91.8356C14.8606 92.1274 15.0705 92.4632 15.2174 92.8277C15.355 93.2076 15.4249 93.6087 15.4241 94.0128V94.247C15.4241 94.247 15.4241 94.3711 15.4241 94.4124H10.3669C10.3877 94.6994 10.4625 94.9799 10.5874 95.2392C10.6936 95.4836 10.8483 95.7039 11.0421 95.8868C11.2265 96.062 11.4413 96.2021 11.676 96.3002C11.9148 96.4045 12.1733 96.4562 12.4339 96.4518C12.617 96.4729 12.8019 96.4729 12.985 96.4518C13.1605 96.3973 13.331 96.3281 13.4949 96.2451C13.6471 96.1597 13.7863 96.053 13.9083 95.9282C14.0281 95.8058 14.1218 95.6605 14.1839 95.501L15.0658 95.749C14.9706 95.9812 14.83 96.192 14.6524 96.3691C14.476 96.5637 14.2717 96.7308 14.0461 96.8652C13.8008 96.9979 13.5422 97.1042 13.2744 97.1821C12.992 97.2611 12.6995 97.2982 12.4063 97.2924" fill="#104B86"/>
<path d="M19.9983 96.454C20.3534 96.4574 20.7054 96.387 21.0318 96.2473C21.3166 96.1394 21.5651 95.9531 21.7484 95.7099C21.8137 95.6527 21.8669 95.583 21.9048 95.5049C21.9427 95.4268 21.9644 95.3418 21.9688 95.2551V94.3457C21.4706 94.1624 20.9425 94.0736 20.4117 94.0839C19.9698 94.0642 19.5324 94.1795 19.1578 94.4146C19.0067 94.5002 18.8811 94.6244 18.794 94.7745C18.7068 94.9247 18.6611 95.0953 18.6617 95.2689C18.6637 95.4357 18.7013 95.6001 18.7719 95.7512C18.8347 95.8983 18.9288 96.0299 19.0475 96.137C19.1741 96.2478 19.3185 96.3364 19.4747 96.3989C19.6437 96.4542 19.8205 96.4821 19.9983 96.4815V96.454ZM19.7365 97.2532C19.4593 97.2578 19.1837 97.2111 18.9235 97.1154C18.6812 97.0242 18.4606 96.8834 18.2759 96.702C18.0946 96.5357 17.9492 96.334 17.8487 96.1095C17.7371 95.8726 17.6806 95.6135 17.6833 95.3516C17.6816 95.0822 17.7479 94.8168 17.8762 94.5799C18.0045 94.3459 18.1834 94.1434 18.3999 93.9874C18.6531 93.8155 18.9322 93.6852 19.2267 93.6016C19.5625 93.5049 19.9107 93.4585 20.2601 93.4638C20.5651 93.4646 20.8695 93.4922 21.1696 93.5464C21.443 93.5916 21.7109 93.6655 21.9688 93.7669V93.2709C21.9906 93.0544 21.9638 92.8357 21.8903 92.6309C21.8168 92.4261 21.6985 92.2403 21.5439 92.0871C21.3894 91.9339 21.2026 91.8172 20.9972 91.7454C20.7918 91.6737 20.5729 91.6487 20.3566 91.6724C19.6497 91.7009 18.9698 91.9516 18.4136 92.3889L18.0692 91.7137C18.7664 91.2157 19.5965 90.9374 20.4531 90.9145C21.1387 90.8748 21.8123 91.1076 22.3271 91.5622C22.5616 91.8006 22.743 92.0859 22.8594 92.3994C22.9757 92.7129 23.0244 93.0474 23.0023 93.3811V95.8752C23.0023 96.1233 23.1126 96.2473 23.333 96.2473V97.143H23.0574H22.837C22.7485 97.1485 22.6599 97.1354 22.5768 97.1045C22.4937 97.0737 22.4181 97.0257 22.3547 96.9638C22.2341 96.8455 22.1565 96.6903 22.1342 96.5229V96.0957C21.8689 96.4612 21.5126 96.751 21.1007 96.9363C20.6681 97.131 20.197 97.2252 19.7227 97.2119" fill="#104B86"/>
<path d="M26.2275 88.5703H27.261V95.5429C27.2535 95.6399 27.2655 95.7374 27.2963 95.8297C27.3271 95.9219 27.376 96.0072 27.4401 96.0803C27.5075 96.1454 27.5875 96.1961 27.6751 96.2293C27.7628 96.2625 27.8563 96.2774 27.95 96.2732H28.2531L28.5838 96.1767L28.7492 97.0035C28.5514 97.077 28.3488 97.1369 28.1429 97.1827C27.934 97.2239 27.7219 97.2469 27.509 97.2516C27.3376 97.2606 27.1662 97.2347 27.0052 97.1754C26.8441 97.1162 26.6967 97.0249 26.572 96.9071C26.451 96.7817 26.3578 96.6322 26.2984 96.4684C26.2391 96.3045 26.2149 96.1301 26.2275 95.9563V88.5703Z" fill="#104B86"/>
<path d="M41.0682 96.175V97.112H35.4185V88.7891H40.9717V89.7261H36.4795V92.4269H40.3792V93.3088H36.4795V96.175H41.0682Z" fill="#104B86"/>
<path d="M46.0423 97.2259C45.547 97.2281 45.0543 97.1537 44.5817 97.0055C44.1339 96.8664 43.7175 96.6418 43.3553 96.344L43.7962 95.655C44.1297 95.906 44.4959 96.11 44.8848 96.2613C45.2453 96.4 45.6285 96.4701 46.0148 96.468C46.3867 96.489 46.7563 96.3978 47.0758 96.2062C47.2012 96.1275 47.304 96.0175 47.374 95.887C47.4441 95.7566 47.479 95.6101 47.4754 95.4621C47.477 95.3255 47.4387 95.1915 47.3652 95.0763C47.279 94.9642 47.1712 94.8705 47.0483 94.8007C46.8748 94.7179 46.6951 94.6488 46.5108 94.594L45.753 94.4011L44.8022 94.1255C44.5693 94.0541 44.3468 93.9522 44.1407 93.8223C43.9847 93.7113 43.8572 93.5649 43.7687 93.3952C43.6819 93.2051 43.6395 92.9977 43.6447 92.7888C43.6413 92.5061 43.7075 92.2269 43.8376 91.9758C43.9387 91.7176 44.1107 91.4931 44.3336 91.3282C44.5543 91.1557 44.8073 91.0292 45.0778 90.9561C45.3734 90.8716 45.6797 90.8299 45.9872 90.8321C46.4297 90.8302 46.8688 90.9096 47.2825 91.0664C47.6511 91.1946 47.9924 91.3909 48.2884 91.6451L47.8199 92.2652C47.5643 92.0434 47.27 91.8706 46.9518 91.7554C46.6372 91.6459 46.3065 91.59 45.9734 91.59C45.6369 91.582 45.3042 91.6628 45.0089 91.8243C44.8797 91.9049 44.7754 92.0196 44.7073 92.1558C44.6392 92.2919 44.6101 92.4442 44.623 92.5959C44.6202 92.7144 44.6437 92.8321 44.6919 92.9404C44.7539 93.0462 44.8447 93.1322 44.9537 93.1885C45.0957 93.2735 45.2487 93.3384 45.4085 93.3814L46.0699 93.5605C46.43 93.6317 46.7846 93.7284 47.1309 93.8499C47.3931 93.9313 47.6434 94.0471 47.875 94.1944C48.0591 94.311 48.2108 94.4721 48.316 94.6629C48.4187 94.8632 48.4707 95.0855 48.4676 95.3105C48.4799 95.577 48.426 95.8424 48.3105 96.0829C48.1951 96.3234 48.0218 96.5315 47.8062 96.6885C47.2888 97.0433 46.6688 97.2177 46.0423 97.1846" fill="#104B86"/>
<path d="M54.393 96.842L54.1449 96.9522L53.8004 97.0762C53.6612 97.1243 53.5184 97.1612 53.3733 97.1865C53.2174 97.2007 53.0606 97.2007 52.9048 97.1865C52.5526 97.1915 52.2087 97.0801 51.9264 96.8695C51.7889 96.7513 51.6811 96.6024 51.6117 96.4349C51.5422 96.2673 51.5132 96.0858 51.5268 95.905V91.771H50.6862V90.958H51.5268V88.96H52.5603V90.9994H53.9382V91.8124H52.5603V95.6018C52.5559 95.6959 52.5736 95.7898 52.6119 95.8759C52.6502 95.962 52.708 96.038 52.7807 96.0979C52.9157 96.1991 53.0806 96.2525 53.2493 96.2495C53.4375 96.2535 53.6247 96.2207 53.8004 96.153C53.9202 96.1089 54.0356 96.0535 54.1449 95.9876L54.393 96.842Z" fill="#104B86"/>
<path d="M58.7474 96.4503C59.0979 96.4522 59.445 96.3819 59.7671 96.2436C60.0519 96.1357 60.3003 95.9494 60.4836 95.7062C60.549 95.649 60.6022 95.5793 60.64 95.5012C60.6779 95.4231 60.6997 95.3381 60.7041 95.2514V94.342C60.2275 94.167 59.7236 94.0783 59.2159 94.0802C58.774 94.0605 58.3366 94.1758 57.9619 94.4109C57.8125 94.4971 57.6889 94.6219 57.6041 94.7722C57.5192 94.9224 57.4763 95.0927 57.4796 95.2652C57.4769 95.431 57.5098 95.5955 57.5761 95.7475C57.645 95.8911 57.7382 96.0216 57.8517 96.1333C57.9783 96.2441 58.1227 96.3327 58.2789 96.3952C58.4524 96.4515 58.6339 96.4794 58.8163 96.4778L58.7474 96.4503ZM58.5407 97.2495C58.2635 97.2541 57.9878 97.2074 57.7277 97.1117C57.4854 97.0205 57.2648 96.8797 57.08 96.6983C56.8987 96.532 56.7534 96.3303 56.6528 96.1058C56.5276 95.8628 56.4615 95.5937 56.4599 95.3203C56.4582 95.051 56.5245 94.7855 56.6528 94.5487C56.7811 94.3146 56.96 94.1122 57.1765 93.9561C57.4297 93.7842 57.7088 93.6539 58.0033 93.5703C58.3391 93.4736 58.6873 93.4272 59.0367 93.4325C59.3418 93.4327 59.6462 93.4603 59.9462 93.5152C60.2196 93.5604 60.4875 93.6343 60.7454 93.7357V93.2396C60.7681 92.8098 60.6194 92.3887 60.3321 92.0683C60.1721 91.9188 59.9832 91.8038 59.777 91.7303C59.5708 91.6568 59.3516 91.6265 59.1332 91.6411C58.4263 91.6696 57.7464 91.9204 57.1903 92.3577L56.8458 91.6825C57.5399 91.1886 58.3644 90.9105 59.2159 90.8833C59.9015 90.8436 60.5751 91.0764 61.0899 91.5309C61.3244 91.7693 61.5058 92.0546 61.6222 92.3681C61.7386 92.6816 61.7873 93.0162 61.7651 93.3498V95.844C61.7651 96.092 61.8754 96.216 62.0959 96.216V97.1117H61.834H61.5998C61.5115 97.1156 61.4233 97.1017 61.3405 97.071C61.2577 97.0402 61.1818 96.9931 61.1175 96.9326C60.9969 96.8143 60.9193 96.6591 60.897 96.4916V96.0645C60.6226 96.4267 60.2628 96.7155 59.8498 96.905C59.4176 97.1011 58.9461 97.1954 58.4718 97.1806" fill="#104B86"/>
<path d="M68.0625 96.842L67.8144 96.9522L67.4699 97.0762L67.0428 97.1865C66.8869 97.1998 66.7301 97.1998 66.5743 97.1865C66.2218 97.1936 65.8772 97.082 65.5959 96.8695C65.4532 96.755 65.3409 96.6071 65.2688 96.4389C65.1967 96.2707 65.1671 96.0873 65.1825 95.905V91.771H64.3557V90.958H65.1825V88.96H66.216V90.9994H67.594V91.8124H66.216V95.6018C66.2147 95.6955 66.2337 95.7884 66.2717 95.8741C66.3098 95.9597 66.366 96.0361 66.4365 96.0979C66.5728 96.1965 66.7367 96.2495 66.905 96.2495C67.1023 96.2553 67.2989 96.2225 67.4837 96.153L67.8282 95.9876L68.0625 96.842Z" fill="#104B86"/>
<path d="M75.2831 93.6407C75.2651 93.3637 75.195 93.0925 75.0764 92.8415C74.9603 92.6033 74.8015 92.3885 74.6078 92.2076C74.4238 92.0354 74.2087 91.8998 73.974 91.808C73.7279 91.7133 73.466 91.6665 73.2023 91.6702C72.9386 91.6655 72.6764 91.7123 72.4306 91.808C72.19 91.9026 71.9701 92.043 71.783 92.2214C71.6012 92.401 71.452 92.6108 71.342 92.8415C71.2299 93.0948 71.1601 93.3648 71.1353 93.6407H75.2831ZM73.1885 97.2235C72.7535 97.2279 72.3221 97.1435 71.9208 96.9754C71.5506 96.8157 71.2175 96.5812 70.9424 96.2864C70.6627 95.9968 70.4427 95.655 70.2948 95.2805C70.1449 94.8892 70.0701 94.4732 70.0743 94.0541C70.0511 93.6431 70.1073 93.2314 70.2397 92.8415C70.3875 92.4629 70.6075 92.1166 70.8873 91.8218C71.1682 91.5311 71.5059 91.3013 71.8794 91.1466C72.2794 90.9727 72.7111 90.8835 73.1472 90.8848C73.5789 90.8834 74.0061 90.9726 74.4011 91.1466C74.7664 91.3079 75.0947 91.5424 75.3657 91.8356C75.6384 92.1201 75.8495 92.4579 75.9858 92.8277C76.1344 93.205 76.2093 93.6073 76.2063 94.0128C76.2136 94.0907 76.2136 94.1691 76.2063 94.247C76.2144 94.3019 76.2144 94.3576 76.2063 94.4124H71.1629C71.1859 94.6975 71.2558 94.9768 71.3696 95.2392C71.4855 95.478 71.6391 95.6967 71.8243 95.8868C72.0114 96.0652 72.2314 96.2056 72.472 96.3002C72.71 96.4071 72.969 96.4589 73.2299 96.4518C73.413 96.472 73.5979 96.472 73.7811 96.4518C73.9529 96.3997 74.1191 96.3305 74.2771 96.2451C74.4316 96.1632 74.5713 96.0561 74.6905 95.9282C74.8148 95.8095 74.9092 95.6631 74.9661 95.501L75.8618 95.749C75.7617 95.9785 75.6217 96.1884 75.4484 96.3691C75.2689 96.5604 75.0651 96.7271 74.8421 96.8652C74.5957 96.9955 74.3373 97.1017 74.0704 97.1821C73.7831 97.2603 73.4862 97.2974 73.1885 97.2924" fill="#104B86"/>
<path d="M6.76961 0.65625L7.84443 2.70944L10.1319 3.09527L8.50586 4.74884L8.83658 7.05006L6.76961 6.01658L4.68887 7.05006L5.01958 4.74884L3.40735 3.09527L5.69479 2.70944L6.76961 0.65625Z" fill="#E81D2C"/>
<path d="M15.6168 0.65625L16.6916 2.70944L18.9791 3.09527L17.3668 4.74884L17.6975 7.05006L15.6168 6.01658L13.5498 7.05006L13.8805 4.74884L12.2683 3.09527L14.5558 2.70944L15.6168 0.65625Z" fill="#E81D2C"/>
<path d="M24.4767 0.65625L25.5515 2.70944L27.839 3.09527L26.2268 4.74884L26.5575 7.05006L24.4767 6.01658L22.4098 7.05006L22.7405 4.74884L21.1282 3.09527L23.4019 2.70944L24.4767 0.65625Z" fill="#E81D2C"/>
<path d="M33.3377 0.65625L34.4125 2.70944L36.6999 3.09527L35.0739 4.74884L35.4184 7.05006L33.3377 6.01658L31.2707 7.05006L31.6014 4.74884L29.9754 3.09527L32.2628 2.70944L33.3377 0.65625Z" fill="#E81D2C"/>
<path d="M42.1981 0.65625L43.273 2.70944L45.5604 3.09527L43.9344 4.74884L44.2789 7.05006L42.1981 6.01658L40.1312 7.05006L40.4619 4.74884L38.8359 3.09527L41.1233 2.70944L42.1981 0.65625Z" fill="#E81D2C"/>
<path d="M107.335 17.2617V97.1982H82.8205V95.2966H105.419V19.1771H2.69115L2.56713 55.8864H0.665527V17.2617H107.335Z" fill="#104B86"/>
<path d="M0.679382 67.9001H2.51209V78.7448H0.679382V67.9001ZM0.679382 63.5732H2.51209V65.8607H0.679382V63.5732Z" fill="#104B86"/>
<path d="M21.0594 78.7718V67.3622L16.1538 76.1123H15.0928L10.1734 67.3622V78.7718H8.29938V64.0137H10.2837L15.6164 73.5906L20.9768 64.0137H22.9335V78.7718H21.0594Z" fill="#104B86"/>
<path d="M39.0286 77.1045V78.7718H29.0107V64.0137H38.8357V65.681H30.8848V70.4626H37.8022V72.0197H30.8848V77.1045H39.0286Z" fill="#104B86"/>
<path d="M44.5123 64.0137L48.9908 70.1732L53.483 64.0137H55.5361L49.9967 71.4961L55.3708 78.7718H53.3176L48.9908 72.8327L44.6777 78.7718H42.5969L47.971 71.4961L42.4316 64.0137H44.5123Z" fill="#104B86"/>
<path d="M61.7929 64.0137H59.9188V78.758H61.7929V64.0137Z" fill="#104B86"/>
<path d="M66.9191 71.2902C66.9205 70.3878 67.0791 69.4925 67.3876 68.6445C67.7007 67.778 68.1675 66.9751 68.7656 66.2744C69.3817 65.5639 70.1367 64.9871 70.9842 64.5795C71.9129 64.1364 72.9317 63.9147 73.9606 63.9318C75.1485 63.9007 76.3204 64.2116 77.3366 64.8275C78.2453 65.3849 78.9729 66.1938 79.4312 67.1563L77.9705 68.1071C77.7615 67.6729 77.4873 67.2733 77.1575 66.922C76.864 66.6182 76.5246 66.3624 76.1516 66.1641C75.7893 65.9755 75.4051 65.832 75.0079 65.737C74.6321 65.6549 74.2487 65.6133 73.8641 65.6129C73.1122 65.6036 72.3694 65.7786 71.7007 66.1228C71.0804 66.4641 70.5402 66.9339 70.116 67.5008C69.6851 68.0292 69.3536 68.6315 69.1377 69.2784C68.9207 69.946 68.8091 70.6433 68.807 71.3453C68.7755 72.855 69.2947 74.3245 70.2676 75.4793C70.7095 76.018 71.2585 76.4591 71.8798 76.7746C72.5121 77.0939 73.2109 77.2591 73.9192 77.2569C74.3233 77.2523 74.7256 77.2014 75.1181 77.1053C75.5296 77.0081 75.9244 76.8502 76.2894 76.6368C76.6746 76.4158 77.0271 76.1422 77.3366 75.8238C77.6751 75.4877 77.9464 75.0902 78.1359 74.6525L79.693 75.5068C79.4638 76.0554 79.1264 76.5522 78.7008 76.9675C78.2981 77.393 77.8336 77.7553 77.3229 78.0423C76.7928 78.3332 76.2279 78.5555 75.6417 78.7037C75.0702 78.8532 74.4824 78.9319 73.8917 78.938C72.9312 78.9457 71.9839 78.7136 71.1357 78.2628C70.2729 77.8243 69.5013 77.2257 68.8621 76.499C68.2632 75.7731 67.7968 74.9475 67.4841 74.0599C67.1482 73.1799 66.9755 72.246 66.9742 71.304" fill="#104B86"/>
<path d="M85.3971 71.388C85.3906 72.1289 85.5118 72.8654 85.7554 73.5652C85.9786 74.2424 86.3243 74.8729 86.7751 75.4254C87.2103 75.9618 87.7553 76.3988 88.3735 76.7069C89.0164 77.0241 89.7237 77.1891 90.4405 77.1891C91.1574 77.1891 91.8646 77.0241 92.5075 76.7069C93.1272 76.3593 93.6708 75.8907 94.1059 75.329C94.5379 74.7685 94.8733 74.1397 95.0981 73.4687C95.3218 72.7881 95.438 72.0768 95.4426 71.3604C95.4474 70.6534 95.3357 69.9504 95.1119 69.2796C94.8898 68.6032 94.5389 67.9761 94.0784 67.4332C93.6372 66.9028 93.0935 66.4669 92.4799 66.1516C91.8383 65.8303 91.1305 65.663 90.4129 65.663C89.6953 65.663 88.9876 65.8303 88.346 66.1516C87.7265 66.4699 87.1817 66.9161 86.7475 67.4607C86.3014 68.0034 85.9518 68.6186 85.714 69.2796C85.4932 69.9602 85.3861 70.6725 85.3971 71.388ZM90.4129 78.9255C89.4301 78.9396 88.4578 78.7225 87.5743 78.2916C86.7358 77.8704 85.9943 77.2791 85.3971 76.5554C84.7976 75.8453 84.3309 75.0331 84.0191 74.1577C83.6873 73.2765 83.5147 72.3433 83.5093 71.4017C83.5162 70.4577 83.6984 69.5232 84.0467 68.6458C84.3884 67.7708 84.883 66.9637 85.5074 66.2619C86.1319 65.5713 86.8856 65.0095 87.7259 64.6083C88.5887 64.2057 89.5298 63.9986 90.4818 64.002C91.4383 64.0015 92.3817 64.2232 93.2378 64.6496C94.0687 65.0767 94.8082 65.6618 95.415 66.3721C96.6452 67.7972 97.3246 69.6156 97.3304 71.4982C97.3179 73.4168 96.6133 75.2664 95.3461 76.7069C94.7222 77.3889 93.9739 77.9454 93.1413 78.3467C92.2786 78.7494 91.3375 78.9564 90.3854 78.953" fill="#104B86"/>
</svg>
