<svg width="26" height="26" viewBox="0 0 26 26" fill="none" xmlns="http://www.w3.org/2000/svg">
<circle cx="13.1354" cy="13.1356" r="12.8644" fill="#EBE8E8"/>
<path d="M6.70275 16.1492C7.47 16.1469 8.20822 15.8556 8.77031 15.3334L14.2616 18.4711C14.0776 19.1901 14.1587 19.9513 14.49 20.6153C14.8214 21.2793 15.3808 21.8018 16.0659 22.0871C16.751 22.3724 17.516 22.4014 18.2207 22.1688C18.9254 21.9362 19.5228 21.4576 19.9035 20.8205C20.2842 20.1834 20.4227 19.4306 20.2936 18.6998C20.1646 17.969 19.7767 17.3091 19.2008 16.8409C18.625 16.3727 17.8999 16.1276 17.1581 16.1504C16.4163 16.1732 15.7076 16.4623 15.1616 16.965L9.67031 13.8272C9.72821 13.6079 9.75979 13.3807 9.76505 13.1536L15.1598 10.0702C15.6793 10.5428 16.3455 10.8224 17.0466 10.8621C17.7478 10.9017 18.4413 10.699 19.0107 10.288C19.5801 9.877 19.9909 9.28265 20.1741 8.60468C20.3572 7.92671 20.3017 7.20637 20.0167 6.5645C19.7318 5.92264 19.2347 5.3983 18.609 5.07946C17.9833 4.76062 17.2669 4.66667 16.5801 4.81338C15.8933 4.96008 15.2779 5.33852 14.8371 5.88519C14.3962 6.43187 14.1568 7.11352 14.1589 7.8158C14.1624 8.06843 14.1967 8.32019 14.2616 8.56405L9.27557 11.4123C8.98643 10.965 8.58589 10.6006 8.1133 10.3549C7.64071 10.1092 7.11234 9.99073 6.5801 10.011C6.04785 10.0313 5.53004 10.1898 5.07755 10.4707C4.62506 10.7517 4.25345 11.1456 3.99923 11.6136C3.74501 12.0817 3.61693 12.6078 3.62757 13.1403C3.63821 13.6729 3.7872 14.1935 4.05992 14.651C4.33263 15.1085 4.71968 15.4872 5.18304 15.7499C5.6464 16.0125 6.17012 16.1502 6.70275 16.1492Z" fill="#585858"/>
</svg>
