<svg width="28" height="28" viewBox="0 0 28 28" fill="none" xmlns="http://www.w3.org/2000/svg">
<path d="M28 14C28 21.732 21.732 28 14 28C6.26801 28 0 21.732 0 14C0 6.26801 6.26801 0 14 0C21.732 0 28 6.26801 28 14Z" fill="#1D467C"/>
<path d="M17.7409 16.9739C17.1003 16.9739 16.5224 17.2228 16.0842 17.6236L10.0749 14.119C10.1215 13.9287 10.1508 13.7304 10.1508 13.528C10.1508 13.3256 10.1215 13.1282 10.0749 12.938L16.0205 9.46783C16.4859 9.90641 17.1013 10.1507 17.7409 10.1509C19.1364 10.1509 20.2709 9.01647 20.2709 7.62092C20.2709 6.22537 19.1364 5.09091 17.7409 5.09091C16.3453 5.09091 15.2109 6.22537 15.2109 7.62092C15.2109 7.82332 15.2402 8.02167 15.2868 8.21092L9.34124 11.6811C8.87547 11.2429 8.26029 10.9987 7.62083 10.998C6.22528 10.998 5.09082 12.1324 5.09082 13.528C5.09082 14.9235 6.22528 16.058 7.62083 16.058C8.26039 16.0578 8.87575 15.8135 9.34124 15.3749L15.3505 18.8795C15.3063 19.0603 15.2835 19.2458 15.2827 19.432C15.2829 19.9179 15.4272 20.3928 15.6972 20.7967C15.9673 21.2007 16.3511 21.5155 16.8 21.7013C17.249 21.8871 17.7429 21.9357 18.2195 21.8409C18.696 21.746 19.1337 21.512 19.4773 21.1685C19.8209 20.8249 20.0549 20.3872 20.1497 19.9106C20.2446 19.4341 20.196 18.9401 20.0102 18.4912C19.8243 18.0422 19.5095 17.6585 19.1056 17.3884C18.7017 17.1183 18.2268 16.9741 17.7409 16.9739Z" fill="white"/>
</svg>
