<svg width="18" height="21" viewBox="0 0 18 21" fill="none" xmlns="http://www.w3.org/2000/svg">
<path d="M1.28552 18.64C1.28552 19.1514 1.48867 19.6419 1.8503 20.0035C2.21192 20.3651 2.70238 20.5683 3.21379 20.5683H14.7834C15.2949 20.5683 15.7853 20.3651 16.1469 20.0035C16.5086 19.6419 16.7117 19.1514 16.7117 18.64V5.14208H1.28552V18.64ZM12.2124 8.35587C12.2124 8.1854 12.2801 8.02191 12.4007 7.90137C12.5212 7.78083 12.6847 7.71311 12.8552 7.71311C13.0256 7.71311 13.1891 7.78083 13.3097 7.90137C13.4302 8.02191 13.4979 8.1854 13.4979 8.35587V17.3545C13.4979 17.525 13.4302 17.6884 13.3097 17.809C13.1891 17.9295 13.0256 17.9972 12.8552 17.9972C12.6847 17.9972 12.5212 17.9295 12.4007 17.809C12.2801 17.6884 12.2124 17.525 12.2124 17.3545V8.35587ZM8.35586 8.35587C8.35586 8.1854 8.42358 8.02191 8.54412 7.90137C8.66466 7.78083 8.82815 7.71311 8.99862 7.71311C9.16909 7.71311 9.33258 7.78083 9.45312 7.90137C9.57366 8.02191 9.64138 8.1854 9.64138 8.35587V17.3545C9.64138 17.525 9.57366 17.6884 9.45312 17.809C9.33258 17.9295 9.16909 17.9972 8.99862 17.9972C8.82815 17.9972 8.66466 17.9295 8.54412 17.809C8.42358 17.6884 8.35586 17.525 8.35586 17.3545V8.35587ZM4.49931 8.35587C4.49931 8.1854 4.56703 8.02191 4.68757 7.90137C4.80811 7.78083 4.9716 7.71311 5.14207 7.71311C5.31254 7.71311 5.47603 7.78083 5.59657 7.90137C5.71711 8.02191 5.78483 8.1854 5.78483 8.35587V17.3545C5.78483 17.525 5.71711 17.6884 5.59657 17.809C5.47603 17.9295 5.31254 17.9972 5.14207 17.9972C4.9716 17.9972 4.80811 17.9295 4.68757 17.809C4.56703 17.6884 4.49931 17.525 4.49931 17.3545V8.35587ZM17.3545 1.28552H12.5338L12.1562 0.5343C12.0762 0.373696 11.953 0.2386 11.8004 0.144209C11.6478 0.0498185 11.4719 -0.000121641 11.2925 7.04332e-06H6.70076C6.52174 -0.000681132 6.34615 0.0490728 6.19411 0.143569C6.04206 0.238064 5.91971 0.37348 5.84107 0.5343L5.46345 1.28552H0.642759C0.472288 1.28552 0.3088 1.35324 0.18826 1.47378C0.067719 1.59432 0 1.75781 0 1.92828L0 3.2138C0 3.38427 0.067719 3.54776 0.18826 3.6683C0.3088 3.78884 0.472288 3.85656 0.642759 3.85656H17.3545C17.525 3.85656 17.6884 3.78884 17.809 3.6683C17.9295 3.54776 17.9972 3.38427 17.9972 3.2138V1.92828C17.9972 1.75781 17.9295 1.59432 17.809 1.47378C17.6884 1.35324 17.525 1.28552 17.3545 1.28552Z" fill="#E81D2C"/>
</svg>
