<svg width="23" height="19" viewBox="0 0 23 19" fill="none" xmlns="http://www.w3.org/2000/svg">
<path d="M22.9 2.56515C22.0704 2.93275 21.1792 3.18112 20.2424 3.29338C21.209 2.71497 21.9322 1.80461 22.277 0.732168C21.3688 1.27162 20.3749 1.65134 19.3383 1.85481C18.6412 1.11055 17.718 0.617247 16.7118 0.451481C15.7057 0.285716 14.673 0.456764 13.774 0.938071C12.875 1.41938 12.1601 2.18401 11.7402 3.11327C11.3204 4.04252 11.219 5.08439 11.452 6.07714C9.61173 5.98474 7.81147 5.50643 6.16804 4.67324C4.5246 3.84006 3.07473 2.67062 1.9125 1.24083C1.51511 1.92634 1.2866 2.72113 1.2866 3.56758C1.28616 4.32959 1.47381 5.07992 1.8329 5.752C2.192 6.42409 2.71143 6.99715 3.34511 7.42033C2.61021 7.39695 1.89151 7.19837 1.24885 6.84113V6.90074C1.24878 7.96948 1.61846 9.00533 2.29518 9.83252C2.97189 10.6597 3.91396 11.2273 4.96152 11.439C4.27977 11.6235 3.56501 11.6507 2.87122 11.5185C3.16678 12.4381 3.7425 13.2422 4.5178 13.8183C5.29309 14.3945 6.22913 14.7137 7.19488 14.7314C5.55546 16.0184 3.53078 16.7165 1.44656 16.7134C1.07736 16.7135 0.70847 16.692 0.341797 16.6489C2.45741 18.0091 4.92013 18.731 7.43531 18.7282C15.9495 18.7282 20.604 11.6764 20.604 5.56052C20.604 5.36183 20.599 5.16114 20.5901 4.96244C21.4955 4.30771 22.2769 3.49694 22.898 2.56814L22.9 2.56515Z" fill="#19592A"/>
</svg>
