<svg width="37" height="37" viewBox="0 0 37 37" fill="none" xmlns="http://www.w3.org/2000/svg">
<path d="M18.4103 0C8.38161 0 0.25 8.13161 0.25 18.1603C0.25 28.189 8.38161 36.3207 18.4103 36.3207C28.439 36.3207 36.5707 28.189 36.5707 18.1603C36.5707 8.13161 28.439 0 18.4103 0ZM27.1378 13.6892C27.15 13.8797 27.15 14.0783 27.15 14.2729C27.15 20.2236 22.618 27.0783 14.3364 27.0783C11.7826 27.0783 9.41529 26.3365 7.4209 25.0596C7.78572 25.1002 8.13434 25.1164 8.50727 25.1164C10.6152 25.1164 12.5528 24.4029 14.0972 23.195C12.1191 23.1544 10.4571 21.8573 9.88957 20.0736C10.5827 20.175 11.207 20.175 11.9204 19.9926C10.9019 19.7856 9.98635 19.2324 9.32942 18.427C8.67249 17.6215 8.31467 16.6135 8.31675 15.5741V15.5174C8.91264 15.8538 9.61392 16.0605 10.3476 16.0889C9.73084 15.6779 9.225 15.1209 8.87498 14.4676C8.52497 13.8142 8.34157 13.0846 8.34107 12.3433C8.34107 11.5042 8.55997 10.7381 8.95317 10.0733C10.0837 11.4651 11.4945 12.6034 13.0938 13.4142C14.6931 14.225 16.4452 14.6902 18.236 14.7796C17.5996 11.7191 19.8859 9.24231 22.6342 9.24231C23.9314 9.24231 25.0988 9.7855 25.9217 10.6611C26.9392 10.4706 27.9121 10.0895 28.7795 9.57876C28.4431 10.6205 27.7378 11.5002 26.8014 12.0555C27.7094 11.9583 28.585 11.7069 29.3957 11.3543C28.7836 12.2542 28.0175 13.0527 27.1378 13.6892Z" fill="#00ACEE"/>
</svg>
