<svg width="22" height="21" viewBox="0 0 22 21" fill="none" xmlns="http://www.w3.org/2000/svg">
<path d="M13.1058 10.3173L10.6493 9.17109C10.4349 9.07156 10.2588 9.18312 10.2588 9.42047V11.5795C10.2588 11.8169 10.4349 11.9284 10.6493 11.8289L13.1047 10.6827C13.3202 10.582 13.3202 10.418 13.1058 10.3173ZM11.3525 0C5.55348 0 0.852539 4.70094 0.852539 10.5C0.852539 16.2991 5.55348 21 11.3525 21C17.1516 21 21.8525 16.2991 21.8525 10.5C21.8525 4.70094 17.1516 0 11.3525 0ZM11.3525 14.7656C5.97785 14.7656 5.88379 14.2811 5.88379 10.5C5.88379 6.71891 5.97785 6.23438 11.3525 6.23438C16.7272 6.23438 16.8213 6.71891 16.8213 10.5C16.8213 14.2811 16.7272 14.7656 11.3525 14.7656Z" fill="#C4302B"/>
</svg>
