<svg width="24" height="17" viewBox="0 0 24 17" fill="none" xmlns="http://www.w3.org/2000/svg">
<path d="M23.5007 2.8789C23.3657 2.39729 23.1027 1.96126 22.7397 1.61717C22.3664 1.2625 21.9089 1.0088 21.4104 0.880004C19.5446 0.388227 12.0696 0.388227 12.0696 0.388227C8.95335 0.352772 5.83787 0.508712 2.74073 0.855167C2.24219 0.993474 1.78556 1.25285 1.41145 1.61022C1.04386 1.9639 0.7776 2.40004 0.638512 2.87791C0.304395 4.67786 0.142058 6.50548 0.153689 8.33614C0.141767 10.1652 0.303706 11.9922 0.638512 13.7944C0.77462 14.2702 1.03988 14.7044 1.40847 15.0551C1.77705 15.4058 2.23604 15.6591 2.74073 15.7933C4.63134 16.2841 12.0696 16.284 12.0696 16.284C15.1898 16.3196 18.3093 16.1636 21.4104 15.8171C21.9089 15.6883 22.3664 15.4346 22.7397 15.0799C23.1073 14.7292 23.3685 14.2931 23.4997 13.8182C23.8425 12.019 24.0092 10.1906 23.9974 8.35899C24.0232 6.51965 23.8567 4.68265 23.5007 2.87791V2.8789ZM9.69317 11.7378V4.93543L15.9124 8.33713L9.69317 11.7378Z" fill="#19592A"/>
</svg>
