<svg width="15" height="13" viewBox="0 0 15 13" fill="none" xmlns="http://www.w3.org/2000/svg">
<path d="M0 2.59601V10.404C0 11.1229 0.299539 11.7619 0.778802 12.2611C1.25806 12.7404 1.87711 13 2.59601 13H6.50998V11.3825H2.59601C2.05684 11.3825 1.63748 10.9432 1.63748 10.404V2.59601C1.63748 2.05684 2.05684 1.63748 2.59601 1.63748H6.50998V0H2.59601C1.87711 0 1.25806 0.27957 0.778802 0.758833C0.299539 1.25806 0 1.87711 0 2.59601ZM4.29339 4.95238V8.06759C4.29339 8.42704 4.6129 8.72657 4.97235 8.72657H8.58679V11.1828C8.58679 11.4025 8.7066 11.5822 8.9063 11.682C8.98617 11.702 9.06605 11.702 9.10599 11.702C9.24578 11.702 9.36559 11.6621 9.46544 11.5622L14.1582 6.86943C14.3779 6.68971 14.3579 6.33026 14.1582 6.13057L9.46544 1.45776C9.18587 1.15822 8.58679 1.33794 8.58679 1.8172V4.2934H4.97235C4.6129 4.2934 4.29339 4.59293 4.29339 4.95238Z" fill="white"/>
</svg>
