<svg width="13" height="11" viewBox="0 0 13 11" fill="none" xmlns="http://www.w3.org/2000/svg">
<path d="M6.81379 11H10.1087C10.7339 11 11.2577 10.7803 11.6633 10.3579C12.0688 9.95238 12.3222 9.41167 12.3222 8.80338V2.19662C12.3222 1.58833 12.0688 1.04762 11.6633 0.642089C11.2577 0.236559 10.717 0 10.1087 0H6.81379V1.38556H10.1087C10.5818 1.38556 10.9367 1.7404 10.9367 2.19662V8.80338C10.9367 9.2596 10.5818 9.63134 10.1087 9.63134H6.81379V11ZM0.207031 4.19048V6.82642C0.207031 7.13057 0.460487 7.38403 0.764635 7.38403H3.8399V9.46237C3.8399 9.64823 3.92439 9.80031 4.09336 9.88479C4.16095 9.90169 4.24543 9.90169 4.27923 9.90169C4.39751 9.90169 4.49889 9.8679 4.58338 9.78341L8.55419 5.8126C8.70626 5.66052 8.68937 5.35638 8.55419 5.1874L4.58338 1.23349C4.4482 1.09831 4.27923 1.08141 4.09336 1.1321C3.92439 1.21659 3.8399 1.35177 3.8399 1.53763V3.63287H0.764635C0.460487 3.63287 0.207031 3.88633 0.207031 4.19048Z" fill="#104B86"/>
</svg>
