<svg width="15" height="13" viewBox="0 0 15 13" fill="none" xmlns="http://www.w3.org/2000/svg">
<path d="M7.80799 13H11.702C12.4409 13 13.0599 12.7404 13.5392 12.2412C14.0184 11.7619 14.318 11.1229 14.318 10.404V2.59601C14.318 1.87711 14.0184 1.2381 13.5392 0.758833C13.0599 0.27957 12.4209 0 11.702 0H7.80799V1.63748H11.702C12.2611 1.63748 12.6805 2.05684 12.6805 2.59601V10.404C12.6805 10.9432 12.2611 11.3825 11.702 11.3825H7.80799V13ZM0 4.95238V8.06759C0 8.42704 0.299539 8.72657 0.658986 8.72657H4.2934V11.1828C4.2934 11.4025 4.39324 11.5822 4.59293 11.682C4.67281 11.702 4.77266 11.702 4.8126 11.702C4.95238 11.702 5.0722 11.6621 5.17204 11.5622L9.86482 6.86943C10.0445 6.68971 10.0246 6.33026 9.86482 6.13057L5.17204 1.45776C5.01229 1.298 4.8126 1.27803 4.59293 1.33794C4.39324 1.43779 4.2934 1.59754 4.2934 1.8172V4.2934H0.658986C0.299539 4.2934 0 4.59293 0 4.95238Z" fill="white"/>
</svg>
