<svg width="100" height="53" viewBox="0 0 100 53" fill="none" xmlns="http://www.w3.org/2000/svg">
<path d="M19.299 45V36.271H22.9627C23.3561 36.271 23.7168 36.3529 24.0446 36.5168C24.3807 36.6808 24.6676 36.898 24.9052 37.1684C25.1429 37.4307 25.3274 37.734 25.4585 38.0782C25.5978 38.4143 25.6675 38.7585 25.6675 39.111C25.6675 39.4798 25.6019 39.8363 25.4708 40.1806C25.3478 40.5166 25.1716 40.8199 24.9421 41.0904C24.7126 41.3527 24.434 41.5658 24.1061 41.7297C23.7865 41.8854 23.4299 41.9633 23.0365 41.9633H20.676V45H19.299ZM20.676 40.7461H22.9504C23.1471 40.7461 23.3234 40.7051 23.4791 40.6232C23.643 40.5412 23.7824 40.4265 23.8971 40.2789C24.0118 40.1314 24.102 39.9593 24.1676 39.7626C24.2331 39.5659 24.2659 39.3487 24.2659 39.111C24.2659 38.8651 24.2291 38.6438 24.1553 38.4471C24.0815 38.2504 23.9791 38.0823 23.8479 37.943C23.7168 37.7955 23.5652 37.6848 23.393 37.611C23.2291 37.5291 23.057 37.4881 22.8767 37.4881H20.676V40.7461ZM26.959 45V36.271H30.758C31.1514 36.271 31.512 36.3529 31.8399 36.5168C32.1759 36.6808 32.4628 36.898 32.7005 37.1684C32.9382 37.4307 33.1226 37.734 33.2537 38.0782C33.3931 38.4143 33.4627 38.7585 33.4627 39.111C33.4627 39.406 33.4218 39.6888 33.3398 39.9593C33.2578 40.2298 33.1431 40.4797 32.9956 40.7092C32.848 40.9387 32.6677 41.1395 32.4546 41.3117C32.2415 41.4756 32.0079 41.5985 31.7538 41.6805L33.807 45H32.2456L30.3523 41.9633H28.336V45H26.959ZM28.336 40.7461H30.7457C30.9424 40.7461 31.1186 40.7051 31.2743 40.6232C31.4383 40.533 31.5776 40.4142 31.6923 40.2666C31.8071 40.1109 31.8973 39.9347 31.9628 39.738C32.0284 39.5413 32.0612 39.3323 32.0612 39.111C32.0612 38.8897 32.0202 38.6807 31.9382 38.484C31.8645 38.2872 31.762 38.1151 31.6309 37.9676C31.5079 37.8201 31.3604 37.7053 31.1883 37.6233C31.0243 37.5332 30.8522 37.4881 30.6719 37.4881H28.336V40.7461ZM41.0746 43.7829V45H35.0872V36.271H40.964V37.4881H36.4642V39.9716H40.3616V41.115H36.4642V43.7829H41.0746ZM43.0484 36.271L45.6794 43.2665L48.2981 36.271H49.7611L46.2695 45H45.0892L41.5853 36.271H43.0484ZM56.8149 43.7829V45H50.8275V36.271H56.7042V37.4881H52.2044V39.9716H56.1018V41.115H52.2044V43.7829H56.8149ZM59.6123 38.8528V45H58.2353V36.271H59.3173L64.3088 42.5657V36.2832H65.6981V45H64.5547L59.6123 38.8528ZM74.0657 37.4881H71.1642V45H69.7749V37.4881H66.8611V36.271H74.0657V37.4881ZM76.9413 36.271H78.1462L81.5886 45H80.1379L79.2158 42.6272H75.8471L74.9373 45H73.4743L76.9413 36.271ZM78.9453 41.6067L77.5437 37.8569L76.093 41.6067H78.9453Z" fill="#5B5B5B"/>
<path d="M41.9815 9.66699L64.7315 12.3753L59.8566 19.9587L50.648 24.292L38.5509 22.667C38.5509 22.667 36.565 22.667 35.4815 21.042C34.3981 19.417 35.4816 18.3337 35.4816 18.3337L41.9815 9.66699Z" fill="#104B86" stroke="#104B86" stroke-width="0.325"/>
<path d="M45.347 14.2246L41.9814 19.4599" stroke="white" stroke-width="0.65" stroke-linecap="round"/>
<path d="M47.6926 16.0625L46.2988 18.2382" stroke="white" stroke-width="0.65" stroke-linecap="round"/>
<path d="M51.4659 12.9021L42.5252 14.6699" stroke="white" stroke-width="0.65" stroke-linecap="round"/>
<path d="M58.0234 4.69043L55.5248 13.0045" stroke="#E81D2C" stroke-width="0.866667" stroke-linecap="round"/>
<path d="M58.583 4.69043L61.0816 13.0045" stroke="#E81D2C" stroke-width="0.866667" stroke-linecap="round"/>
<path d="M55.5903 8.14679L60.987 8.1469" stroke="#E81D2C" stroke-width="0.866667" stroke-linecap="round"/>
<path d="M58.2571 1L58.2571 2.10404" stroke="#E81D2C" stroke-width="0.866667" stroke-linecap="round"/>
<path d="M56.1573 15.7207L52.7917 20.956" stroke="white" stroke-width="0.65" stroke-linecap="round"/>
<path d="M58.2314 16.6066L51.4663 12.867" stroke="white" stroke-width="0.65" stroke-linecap="round"/>
<path d="M52.1799 16.6768L50.7861 18.8525" stroke="white" stroke-width="0.65" stroke-linecap="round"/>
<path d="M49.8887 25.9133L57.6897 26.9997L62.023 19.958L49.8887 25.9133Z" fill="#E81D2C"/>
<path d="M54.9814 24.4994L57.7673 24.8337L59.3148 22.667L54.9814 24.4994Z" fill="white"/>
<path d="M52.7919 20.9565L42.0154 19.5967" stroke="white" stroke-width="0.65" stroke-linecap="round"/>
<path d="M50.7862 18.8494L46.2988 18.2715" stroke="white" stroke-width="0.65" stroke-linecap="round"/>
<mask id="path-17-inside-1_1791_39540" fill="white">
<path d="M59.2431 2.22146C59.906 2.76017 60.0066 3.73424 59.4679 4.3971C58.9292 5.05997 57.9551 5.16062 57.2923 4.62191C56.6294 4.0832 56.5288 3.10913 57.0675 2.44626C57.6062 1.7834 58.5802 1.68275 59.2431 2.22146ZM57.7547 4.0529C58.1033 4.33621 58.6156 4.28328 58.8989 3.93467C59.1822 3.58606 59.1293 3.07379 58.7807 2.79047C58.4321 2.50716 57.9198 2.56009 57.6365 2.9087C57.3532 3.25731 57.4061 3.76958 57.7547 4.0529Z"/>
</mask>
<path d="M59.2431 2.22146C59.906 2.76017 60.0066 3.73424 59.4679 4.3971C58.9292 5.05997 57.9551 5.16062 57.2923 4.62191C56.6294 4.0832 56.5288 3.10913 57.0675 2.44626C57.6062 1.7834 58.5802 1.68275 59.2431 2.22146ZM57.7547 4.0529C58.1033 4.33621 58.6156 4.28328 58.8989 3.93467C59.1822 3.58606 59.1293 3.07379 58.7807 2.79047C58.4321 2.50716 57.9198 2.56009 57.6365 2.9087C57.3532 3.25731 57.4061 3.76958 57.7547 4.0529Z" fill="#E81D2C" stroke="#E81D2C" stroke-width="0.290537" mask="url(#path-17-inside-1_1791_39540)"/>
<path d="M43.4952 6.14633C43.4952 6.14633 44.0369 5.063 45.1202 5.063C46.2036 5.063 46.6649 5.79717 46.6649 5.79717L39.1618 18.0625C39.1618 18.0625 38.6202 17.5208 37.5368 17.5208C36.4535 17.5208 35.4813 18.6655 35.4813 18.6655L43.4952 6.14633Z" fill="white" stroke="#104B86" stroke-width="0.758333" stroke-linejoin="round"/>
</svg>
