<svg width="100" height="50" viewBox="0 0 100 50" fill="none" xmlns="http://www.w3.org/2000/svg">
<path d="M18.3605 35.8528V42H16.9836V33.271H18.0655L23.057 39.5657V33.2832H24.4463V42H23.3029L18.3605 35.8528ZM30.0353 42.0615C29.4124 42.0615 28.8428 41.9385 28.3264 41.6926C27.8182 41.4386 27.3797 41.1066 27.0109 40.6968C26.6421 40.2788 26.3552 39.8034 26.1503 39.2706C25.9536 38.7379 25.8552 38.1928 25.8552 37.6355C25.8552 37.0535 25.9618 36.4962 26.1749 35.9634C26.388 35.4307 26.679 34.9594 27.0478 34.5496C27.4248 34.1398 27.8674 33.816 28.3756 33.5783C28.892 33.3324 29.4534 33.2095 30.0599 33.2095C30.6828 33.2095 31.2484 33.3406 31.7566 33.6029C32.2729 33.857 32.7114 34.193 33.0721 34.611C33.4409 35.0291 33.7237 35.5044 33.9204 36.0372C34.1253 36.5618 34.2277 37.0986 34.2277 37.6478C34.2277 38.2297 34.1212 38.7871 33.9081 39.3198C33.7032 39.8526 33.4122 40.3239 33.0352 40.7337C32.6582 41.1353 32.2115 41.459 31.6951 41.7049C31.1869 41.9426 30.6337 42.0615 30.0353 42.0615ZM27.2568 37.6355C27.2568 38.0453 27.3224 38.4428 27.4535 38.828C27.5847 39.2133 27.7691 39.5534 28.0068 39.8485C28.2526 40.1435 28.5477 40.3812 28.892 40.5616C29.2362 40.7337 29.6214 40.8197 30.0476 40.8197C30.4902 40.8197 30.8796 40.7296 31.2156 40.5493C31.5598 40.3607 31.8508 40.1149 32.0885 39.8116C32.3262 39.5083 32.5065 39.1682 32.6295 38.7912C32.7524 38.4141 32.8139 38.0289 32.8139 37.6355C32.8139 37.2175 32.7483 36.8199 32.6172 36.4429C32.486 36.0577 32.2975 35.7216 32.0516 35.4348C31.8139 35.1397 31.523 34.9061 31.1787 34.734C30.8427 34.5537 30.4656 34.4635 30.0476 34.4635C29.605 34.4635 29.2116 34.5578 28.8674 34.7463C28.5231 34.9266 28.2322 35.1643 27.9945 35.4594C27.7568 35.7544 27.5724 36.0946 27.4412 36.4798C27.3183 36.8568 27.2568 37.2421 27.2568 37.6355ZM40.817 35.3241C40.735 35.234 40.6162 35.1397 40.4604 35.0414C40.3047 34.9348 40.1203 34.8364 39.9072 34.7463C39.7023 34.6561 39.4728 34.5824 39.2187 34.525C38.9728 34.4676 38.7187 34.4389 38.4564 34.4389C37.8745 34.4389 37.4442 34.5455 37.1655 34.7586C36.8951 34.9717 36.7598 35.2668 36.7598 35.6438C36.7598 35.8569 36.8008 36.0331 36.8828 36.1724C36.9729 36.3036 37.1082 36.4224 37.2885 36.529C37.4688 36.6273 37.6942 36.7175 37.9647 36.7995C38.2351 36.8732 38.5507 36.9552 38.9113 37.0453C39.3539 37.1519 39.7515 37.2707 40.1039 37.4019C40.4645 37.533 40.7678 37.6929 41.0137 37.8814C41.2596 38.0699 41.4481 38.3035 41.5792 38.5821C41.7186 38.8526 41.7882 39.1846 41.7882 39.578C41.7882 40.0206 41.7022 40.4017 41.5301 40.7214C41.3661 41.041 41.1366 41.3033 40.8416 41.5082C40.5547 41.7049 40.2186 41.8525 39.8334 41.9508C39.4482 42.041 39.0343 42.0861 38.5917 42.0861C37.9278 42.0861 37.2844 41.9877 36.6615 41.791C36.0467 41.5861 35.4894 41.291 34.9894 40.9058L35.6164 39.7255C35.723 39.8321 35.8746 39.9509 36.0713 40.0821C36.2762 40.2132 36.5098 40.3362 36.7721 40.4509C37.0426 40.5575 37.3336 40.6517 37.645 40.7337C37.9565 40.8074 38.2802 40.8443 38.6163 40.8443C39.1572 40.8443 39.5752 40.7501 39.8703 40.5616C40.1654 40.373 40.3129 40.0944 40.3129 39.7255C40.3129 39.5042 40.2555 39.3198 40.1408 39.1723C40.0342 39.0247 39.8785 38.8977 39.6736 38.7912C39.4687 38.6764 39.2187 38.574 38.9236 38.4838C38.6286 38.3936 38.2925 38.2994 37.9155 38.201C37.4811 38.0863 37.1 37.9674 36.7721 37.8445C36.4525 37.7133 36.1861 37.5576 35.973 37.3773C35.7599 37.197 35.5959 36.988 35.4812 36.7503C35.3746 36.5044 35.3214 36.2093 35.3214 35.8651C35.3214 35.4389 35.4033 35.0618 35.5673 34.734C35.7312 34.3979 35.9525 34.1193 36.2312 33.898C36.518 33.6685 36.8541 33.4964 37.2393 33.3816C37.6245 33.2669 38.0425 33.2095 38.4933 33.2095C39.0835 33.2095 39.6285 33.3037 40.1285 33.4923C40.6285 33.6808 41.067 33.9144 41.444 34.193L40.817 35.3241ZM46.7961 42.0615C46.1732 42.0615 45.6035 41.9385 45.0872 41.6926C44.579 41.4386 44.1405 41.1066 43.7717 40.6968C43.4028 40.2788 43.116 39.8034 42.9111 39.2706C42.7144 38.7379 42.616 38.1928 42.616 37.6355C42.616 37.0535 42.7226 36.4962 42.9357 35.9634C43.1488 35.4307 43.4397 34.9594 43.8086 34.5496C44.1856 34.1398 44.6282 33.816 45.1364 33.5783C45.6527 33.3324 46.2142 33.2095 46.8207 33.2095C47.4436 33.2095 48.0092 33.3406 48.5173 33.6029C49.0337 33.857 49.4722 34.193 49.8328 34.611C50.2017 35.0291 50.4844 35.5044 50.6811 36.0372C50.8861 36.5618 50.9885 37.0986 50.9885 37.6478C50.9885 38.2297 50.882 38.7871 50.6689 39.3198C50.4639 39.8526 50.173 40.3239 49.7959 40.7337C49.4189 41.1353 48.9722 41.459 48.4559 41.7049C47.9477 41.9426 47.3944 42.0615 46.7961 42.0615ZM44.0176 37.6355C44.0176 38.0453 44.0831 38.4428 44.2143 38.828C44.3454 39.2133 44.5298 39.5534 44.7675 39.8485C45.0134 40.1435 45.3085 40.3812 45.6527 40.5616C45.997 40.7337 46.3822 40.8197 46.8084 40.8197C47.251 40.8197 47.6403 40.7296 47.9764 40.5493C48.3206 40.3607 48.6116 40.1149 48.8493 39.8116C49.087 39.5083 49.2673 39.1682 49.3902 38.7912C49.5132 38.4141 49.5746 38.0289 49.5746 37.6355C49.5746 37.2175 49.5091 36.8199 49.3779 36.4429C49.2468 36.0577 49.0583 35.7216 48.8124 35.4348C48.5747 35.1397 48.2837 34.9061 47.9395 34.734C47.6034 34.5537 47.2264 34.4635 46.8084 34.4635C46.3658 34.4635 45.9724 34.5578 45.6281 34.7463C45.2839 34.9266 44.9929 35.1643 44.7552 35.4594C44.5175 35.7544 44.3331 36.0946 44.202 36.4798C44.079 36.8568 44.0176 37.2421 44.0176 37.6355ZM58.4113 34.4881H55.5098V42H54.1205V34.4881H51.2067V33.271H58.4113V34.4881ZM59.5818 42V33.271H63.3808C63.7742 33.271 64.1349 33.3529 64.4627 33.5168C64.7988 33.6808 65.0856 33.898 65.3233 34.1684C65.561 34.4307 65.7454 34.734 65.8766 35.0782C66.0159 35.4143 66.0856 35.7585 66.0856 36.111C66.0856 36.406 66.0446 36.6888 65.9626 36.9593C65.8807 37.2298 65.7659 37.4797 65.6184 37.7092C65.4709 37.9387 65.2905 38.1395 65.0774 38.3117C64.8643 38.4756 64.6307 38.5985 64.3767 38.6805L66.4298 42H64.8684L62.9751 38.9633H60.9588V42H59.5818ZM60.9588 37.7461H63.3685C63.5652 37.7461 63.7414 37.7051 63.8972 37.6232C64.0611 37.533 64.2004 37.4142 64.3152 37.2666C64.4299 37.1109 64.5201 36.9347 64.5857 36.738C64.6512 36.5413 64.684 36.3323 64.684 36.111C64.684 35.8897 64.643 35.6807 64.5611 35.484C64.4873 35.2872 64.3849 35.1151 64.2537 34.9676C64.1308 34.8201 63.9832 34.7053 63.8111 34.6233C63.6472 34.5332 63.4751 34.4881 63.2948 34.4881H60.9588V37.7461ZM71.3369 42.0615C70.714 42.0615 70.1444 41.9385 69.628 41.6926C69.1198 41.4386 68.6813 41.1066 68.3125 40.6968C67.9437 40.2788 67.6568 39.8034 67.4519 39.2706C67.2552 38.7379 67.1568 38.1928 67.1568 37.6355C67.1568 37.0535 67.2634 36.4962 67.4765 35.9634C67.6896 35.4307 67.9806 34.9594 68.3494 34.5496C68.7264 34.1398 69.169 33.816 69.6772 33.5783C70.1936 33.3324 70.755 33.2095 71.3615 33.2095C71.9844 33.2095 72.55 33.3406 73.0582 33.6029C73.5745 33.857 74.013 34.193 74.3737 34.611C74.7425 35.0291 75.0253 35.5044 75.222 36.0372C75.4269 36.5618 75.5293 37.0986 75.5293 37.6478C75.5293 38.2297 75.4228 38.7871 75.2097 39.3198C75.0048 39.8526 74.7138 40.3239 74.3368 40.7337C73.9598 41.1353 73.5131 41.459 72.9967 41.7049C72.4885 41.9426 71.9353 42.0615 71.3369 42.0615ZM68.5584 37.6355C68.5584 38.0453 68.624 38.4428 68.7551 38.828C68.8862 39.2133 69.0707 39.5534 69.3084 39.8485C69.5542 40.1435 69.8493 40.3812 70.1936 40.5616C70.5378 40.7337 70.923 40.8197 71.3492 40.8197C71.7918 40.8197 72.1812 40.7296 72.5172 40.5493C72.8614 40.3607 73.1524 40.1149 73.3901 39.8116C73.6278 39.5083 73.8081 39.1682 73.9311 38.7912C74.054 38.4141 74.1155 38.0289 74.1155 37.6355C74.1155 37.2175 74.0499 36.8199 73.9188 36.4429C73.7876 36.0577 73.5991 35.7216 73.3532 35.4348C73.1155 35.1397 72.8246 34.9061 72.4803 34.734C72.1443 34.5537 71.7672 34.4635 71.3492 34.4635C70.9066 34.4635 70.5132 34.5578 70.169 34.7463C69.8247 34.9266 69.5338 35.1643 69.2961 35.4594C69.0584 35.7544 68.874 36.0946 68.7428 36.4798C68.6199 36.8568 68.5584 37.2421 68.5584 37.6355ZM82.1186 35.3241C82.0366 35.234 81.9178 35.1397 81.762 35.0414C81.6063 34.9348 81.4219 34.8364 81.2088 34.7463C81.0039 34.6561 80.7744 34.5824 80.5203 34.525C80.2744 34.4676 80.0203 34.4389 79.758 34.4389C79.1761 34.4389 78.7458 34.5455 78.4671 34.7586C78.1967 34.9717 78.0614 35.2668 78.0614 35.6438C78.0614 35.8569 78.1024 36.0331 78.1844 36.1724C78.2745 36.3036 78.4098 36.4224 78.5901 36.529C78.7704 36.6273 78.9958 36.7175 79.2663 36.7995C79.5367 36.8732 79.8523 36.9552 80.2129 37.0453C80.6555 37.1519 81.0531 37.2707 81.4055 37.4019C81.7661 37.533 82.0694 37.6929 82.3153 37.8814C82.5612 38.0699 82.7497 38.3035 82.8808 38.5821C83.0202 38.8526 83.0898 39.1846 83.0898 39.578C83.0898 40.0206 83.0038 40.4017 82.8317 40.7214C82.6677 41.041 82.4382 41.3033 82.1432 41.5082C81.8563 41.7049 81.5202 41.8525 81.135 41.9508C80.7498 42.041 80.3359 42.0861 79.8933 42.0861C79.2294 42.0861 78.586 41.9877 77.9631 41.791C77.3483 41.5861 76.791 41.291 76.291 40.9058L76.918 39.7255C77.0246 39.8321 77.1762 39.9509 77.3729 40.0821C77.5778 40.2132 77.8114 40.3362 78.0737 40.4509C78.3442 40.5575 78.6352 40.6517 78.9466 40.7337C79.2581 40.8074 79.5818 40.8443 79.9179 40.8443C80.4588 40.8443 80.8768 40.7501 81.1719 40.5616C81.467 40.373 81.6145 40.0944 81.6145 39.7255C81.6145 39.5042 81.5571 39.3198 81.4424 39.1723C81.3358 39.0247 81.1801 38.8977 80.9752 38.7912C80.7703 38.6764 80.5203 38.574 80.2252 38.4838C79.9302 38.3936 79.5941 38.2994 79.2171 38.201C78.7827 38.0863 78.4016 37.9674 78.0737 37.8445C77.7541 37.7133 77.4877 37.5576 77.2746 37.3773C77.0615 37.197 76.8975 36.988 76.7828 36.7503C76.6762 36.5044 76.623 36.2093 76.623 35.8651C76.623 35.4389 76.7049 35.0618 76.8689 34.734C77.0328 34.3979 77.2541 34.1193 77.5328 33.898C77.8196 33.6685 78.1557 33.4964 78.5409 33.3816C78.9261 33.2669 79.3441 33.2095 79.7949 33.2095C80.3851 33.2095 80.9301 33.3037 81.4301 33.4923C81.9301 33.6808 82.3686 33.9144 82.7456 34.193L82.1186 35.3241Z" fill="#5B5B5B"/>
<path d="M56.1044 2.0847C51.4286 1.2398 49.3652 6.99416 49.3652 6.99416C49.3652 6.99416 47.7154 1.32812 43.0396 2.16969C37.4925 3.17292 36.0267 12.0203 49.3652 21.1676C62.7052 12.0203 61.6564 3.08626 56.1044 2.0847Z" fill="#104B86"/>
<path d="M58.9527 10.3678C56.4902 9.92289 55.4055 12.9542 55.4055 12.9542C55.4055 12.9542 54.5358 9.96788 52.0733 10.4128C49.1451 10.9361 48.3747 15.6023 55.4055 20.4217C62.433 15.6023 61.8809 10.8961 58.9559 10.3678" fill="#E81D2C"/>
</svg>
