<svg width="299" height="41" viewBox="0 0 299 41" fill="none" xmlns="http://www.w3.org/2000/svg">
<rect width="299" height="41" fill="white"/>
<path d="M83.88 18.47V26H82.2V15.35H83.58L89.61 23.045V15.365H91.305V26H89.835L83.88 18.47ZM98.124 26.075C97.354 26.075 96.659 25.925 96.039 25.625C95.419 25.325 94.884 24.92 94.434 24.41C93.984 23.89 93.634 23.31 93.384 22.67C93.144 22.02 93.024 21.355 93.024 20.675C93.024 19.965 93.154 19.29 93.414 18.65C93.674 18 94.034 17.425 94.494 16.925C94.954 16.415 95.494 16.015 96.114 15.725C96.744 15.425 97.424 15.275 98.154 15.275C98.914 15.275 99.604 15.43 100.224 15.74C100.854 16.05 101.389 16.465 101.829 16.985C102.279 17.505 102.624 18.085 102.864 18.725C103.114 19.365 103.239 20.02 103.239 20.69C103.239 21.4 103.109 22.08 102.849 22.73C102.599 23.37 102.244 23.945 101.784 24.455C101.324 24.955 100.779 25.35 100.149 25.64C99.529 25.93 98.854 26.075 98.124 26.075ZM94.734 20.675C94.734 21.175 94.814 21.66 94.974 22.13C95.134 22.6 95.359 23.02 95.649 23.39C95.949 23.75 96.309 24.035 96.729 24.245C97.149 24.455 97.619 24.56 98.139 24.56C98.679 24.56 99.159 24.45 99.579 24.23C99.999 24.01 100.349 23.715 100.629 23.345C100.919 22.965 101.139 22.545 101.289 22.085C101.439 21.615 101.514 21.145 101.514 20.675C101.514 20.175 101.434 19.695 101.274 19.235C101.124 18.765 100.899 18.35 100.599 17.99C100.299 17.62 99.939 17.33 99.519 17.12C99.109 16.91 98.649 16.805 98.139 16.805C97.599 16.805 97.119 16.915 96.699 17.135C96.279 17.355 95.924 17.65 95.634 18.02C95.344 18.39 95.119 18.805 94.959 19.265C94.809 19.725 94.734 20.195 94.734 20.675ZM111.264 17.855C111.164 17.745 111.019 17.63 110.829 17.51C110.639 17.38 110.414 17.26 110.154 17.15C109.894 17.04 109.614 16.95 109.314 16.88C109.014 16.81 108.704 16.775 108.384 16.775C107.684 16.775 107.164 16.905 106.824 17.165C106.484 17.425 106.314 17.785 106.314 18.245C106.314 18.585 106.409 18.855 106.599 19.055C106.789 19.245 107.079 19.405 107.469 19.535C107.859 19.665 108.349 19.805 108.939 19.955C109.659 20.125 110.284 20.33 110.814 20.57C111.344 20.8 111.749 21.11 112.029 21.5C112.309 21.89 112.449 22.405 112.449 23.045C112.449 23.585 112.349 24.05 112.149 24.44C111.949 24.83 111.669 25.15 111.309 25.4C110.949 25.64 110.534 25.82 110.064 25.94C109.594 26.05 109.089 26.105 108.549 26.105C108.019 26.105 107.489 26.05 106.959 25.94C106.439 25.83 105.939 25.67 105.459 25.46C104.989 25.24 104.554 24.975 104.154 24.665L104.919 23.225C105.049 23.355 105.234 23.5 105.474 23.66C105.724 23.81 106.009 23.955 106.329 24.095C106.659 24.235 107.014 24.355 107.394 24.455C107.784 24.545 108.179 24.59 108.579 24.59C109.249 24.59 109.759 24.475 110.109 24.245C110.469 24.005 110.649 23.665 110.649 23.225C110.649 22.865 110.534 22.58 110.304 22.37C110.074 22.15 109.739 21.965 109.299 21.815C108.859 21.665 108.334 21.515 107.724 21.365C107.024 21.175 106.439 20.97 105.969 20.75C105.499 20.52 105.144 20.23 104.904 19.88C104.674 19.52 104.559 19.065 104.559 18.515C104.559 17.815 104.729 17.225 105.069 16.745C105.409 16.255 105.869 15.89 106.449 15.65C107.039 15.4 107.699 15.275 108.429 15.275C108.909 15.275 109.364 15.33 109.794 15.44C110.224 15.54 110.624 15.68 110.994 15.86C111.374 16.04 111.719 16.245 112.029 16.475L111.264 17.855ZM118.559 26.075C117.789 26.075 117.094 25.925 116.474 25.625C115.854 25.325 115.319 24.92 114.869 24.41C114.419 23.89 114.069 23.31 113.819 22.67C113.579 22.02 113.459 21.355 113.459 20.675C113.459 19.965 113.589 19.29 113.849 18.65C114.109 18 114.469 17.425 114.929 16.925C115.389 16.415 115.929 16.015 116.549 15.725C117.179 15.425 117.859 15.275 118.589 15.275C119.349 15.275 120.039 15.43 120.659 15.74C121.289 16.05 121.824 16.465 122.264 16.985C122.714 17.505 123.059 18.085 123.299 18.725C123.549 19.365 123.674 20.02 123.674 20.69C123.674 21.4 123.544 22.08 123.284 22.73C123.034 23.37 122.679 23.945 122.219 24.455C121.759 24.955 121.214 25.35 120.584 25.64C119.964 25.93 119.289 26.075 118.559 26.075ZM115.169 20.675C115.169 21.175 115.249 21.66 115.409 22.13C115.569 22.6 115.794 23.02 116.084 23.39C116.384 23.75 116.744 24.035 117.164 24.245C117.584 24.455 118.054 24.56 118.574 24.56C119.114 24.56 119.594 24.45 120.014 24.23C120.434 24.01 120.784 23.715 121.064 23.345C121.354 22.965 121.574 22.545 121.724 22.085C121.874 21.615 121.949 21.145 121.949 20.675C121.949 20.175 121.869 19.695 121.709 19.235C121.559 18.765 121.334 18.35 121.034 17.99C120.734 17.62 120.374 17.33 119.954 17.12C119.544 16.91 119.084 16.805 118.574 16.805C118.034 16.805 117.554 16.915 117.134 17.135C116.714 17.355 116.359 17.65 116.069 18.02C115.779 18.39 115.554 18.805 115.394 19.265C115.244 19.725 115.169 20.195 115.169 20.675ZM132.935 16.835H129.395V26H127.7V16.835H124.145V15.35H132.935V16.835ZM134.363 26V15.35H138.998C139.478 15.35 139.918 15.45 140.318 15.65C140.718 15.85 141.063 16.115 141.353 16.445C141.653 16.775 141.883 17.145 142.043 17.555C142.213 17.965 142.298 18.385 142.298 18.815C142.298 19.285 142.213 19.735 142.043 20.165C141.873 20.595 141.628 20.965 141.308 21.275C140.998 21.585 140.633 21.81 140.213 21.95L142.718 26H140.828L138.518 22.295H136.043V26H134.363ZM136.043 20.81H138.983C139.293 20.81 139.568 20.72 139.808 20.54C140.048 20.36 140.238 20.12 140.378 19.82C140.518 19.51 140.588 19.175 140.588 18.815C140.588 18.445 140.508 18.115 140.348 17.825C140.188 17.525 139.978 17.285 139.718 17.105C139.468 16.925 139.193 16.835 138.893 16.835H136.043V20.81ZM148.676 26.075C147.906 26.075 147.211 25.925 146.591 25.625C145.971 25.325 145.436 24.92 144.986 24.41C144.536 23.89 144.186 23.31 143.936 22.67C143.696 22.02 143.576 21.355 143.576 20.675C143.576 19.965 143.706 19.29 143.966 18.65C144.226 18 144.586 17.425 145.046 16.925C145.506 16.415 146.046 16.015 146.666 15.725C147.296 15.425 147.976 15.275 148.706 15.275C149.466 15.275 150.156 15.43 150.776 15.74C151.406 16.05 151.941 16.465 152.381 16.985C152.831 17.505 153.176 18.085 153.416 18.725C153.666 19.365 153.791 20.02 153.791 20.69C153.791 21.4 153.661 22.08 153.401 22.73C153.151 23.37 152.796 23.945 152.336 24.455C151.876 24.955 151.331 25.35 150.701 25.64C150.081 25.93 149.406 26.075 148.676 26.075ZM145.286 20.675C145.286 21.175 145.366 21.66 145.526 22.13C145.686 22.6 145.911 23.02 146.201 23.39C146.501 23.75 146.861 24.035 147.281 24.245C147.701 24.455 148.171 24.56 148.691 24.56C149.231 24.56 149.711 24.45 150.131 24.23C150.551 24.01 150.901 23.715 151.181 23.345C151.471 22.965 151.691 22.545 151.841 22.085C151.991 21.615 152.066 21.145 152.066 20.675C152.066 20.175 151.986 19.695 151.826 19.235C151.676 18.765 151.451 18.35 151.151 17.99C150.851 17.62 150.491 17.33 150.071 17.12C149.661 16.91 149.201 16.805 148.691 16.805C148.151 16.805 147.671 16.915 147.251 17.135C146.831 17.355 146.476 17.65 146.186 18.02C145.896 18.39 145.671 18.805 145.511 19.265C145.361 19.725 145.286 20.195 145.286 20.675ZM161.815 17.855C161.715 17.745 161.57 17.63 161.38 17.51C161.19 17.38 160.965 17.26 160.705 17.15C160.445 17.04 160.165 16.95 159.865 16.88C159.565 16.81 159.255 16.775 158.935 16.775C158.235 16.775 157.715 16.905 157.375 17.165C157.035 17.425 156.865 17.785 156.865 18.245C156.865 18.585 156.96 18.855 157.15 19.055C157.34 19.245 157.63 19.405 158.02 19.535C158.41 19.665 158.9 19.805 159.49 19.955C160.21 20.125 160.835 20.33 161.365 20.57C161.895 20.8 162.3 21.11 162.58 21.5C162.86 21.89 163 22.405 163 23.045C163 23.585 162.9 24.05 162.7 24.44C162.5 24.83 162.22 25.15 161.86 25.4C161.5 25.64 161.085 25.82 160.615 25.94C160.145 26.05 159.64 26.105 159.1 26.105C158.57 26.105 158.04 26.05 157.51 25.94C156.99 25.83 156.49 25.67 156.01 25.46C155.54 25.24 155.105 24.975 154.705 24.665L155.47 23.225C155.6 23.355 155.785 23.5 156.025 23.66C156.275 23.81 156.56 23.955 156.88 24.095C157.21 24.235 157.565 24.355 157.945 24.455C158.335 24.545 158.73 24.59 159.13 24.59C159.8 24.59 160.31 24.475 160.66 24.245C161.02 24.005 161.2 23.665 161.2 23.225C161.2 22.865 161.085 22.58 160.855 22.37C160.625 22.15 160.29 21.965 159.85 21.815C159.41 21.665 158.885 21.515 158.275 21.365C157.575 21.175 156.99 20.97 156.52 20.75C156.05 20.52 155.695 20.23 155.455 19.88C155.225 19.52 155.11 19.065 155.11 18.515C155.11 17.815 155.28 17.225 155.62 16.745C155.96 16.255 156.42 15.89 157 15.65C157.59 15.4 158.25 15.275 158.98 15.275C159.46 15.275 159.915 15.33 160.345 15.44C160.775 15.54 161.175 15.68 161.545 15.86C161.925 16.04 162.27 16.245 162.58 16.475L161.815 17.855Z" fill="#5B5B5B"/>
<path d="M53.3489 11.084C48.6063 10.2464 46.5133 15.9505 46.5133 15.9505C46.5133 15.9505 44.8399 10.334 40.0973 11.1682C34.4709 12.1627 32.9842 20.9327 46.5133 30C60.0441 20.9327 58.9803 12.0768 53.3489 11.084Z" fill="#104B86"/>
<path d="M56.2399 19.2981C53.7422 18.8571 52.6421 21.8619 52.6421 21.8619C52.6421 21.8619 51.76 18.9017 49.2623 19.3427C46.2921 19.8614 45.5108 24.4868 52.6421 29.2641C59.7701 24.4868 59.2101 19.8218 56.2432 19.2981" fill="#E81D2C"/>
</svg>
