<svg width="298" height="41" viewBox="0 0 298 41" fill="none" xmlns="http://www.w3.org/2000/svg">
<rect width="298" height="41" fill="white"/>
<path d="M79.525 20.6C79.525 19.95 79.64 19.315 79.87 18.695C80.1 18.065 80.435 17.495 80.875 16.985C81.325 16.465 81.87 16.055 82.51 15.755C83.15 15.445 83.875 15.29 84.685 15.29C85.645 15.29 86.475 15.51 87.175 15.95C87.875 16.38 88.395 16.935 88.735 17.615L87.415 18.5C87.215 18.07 86.96 17.73 86.65 17.48C86.35 17.23 86.02 17.055 85.66 16.955C85.31 16.855 84.965 16.805 84.625 16.805C84.065 16.805 83.575 16.92 83.155 17.15C82.735 17.37 82.38 17.665 82.09 18.035C81.81 18.405 81.595 18.82 81.445 19.28C81.305 19.74 81.235 20.2 81.235 20.66C81.235 21.17 81.32 21.665 81.49 22.145C81.66 22.615 81.895 23.035 82.195 23.405C82.505 23.765 82.87 24.05 83.29 24.26C83.71 24.47 84.17 24.575 84.67 24.575C85.01 24.575 85.365 24.515 85.735 24.395C86.105 24.275 86.445 24.09 86.755 23.84C87.075 23.58 87.325 23.24 87.505 22.82L88.9 23.615C88.68 24.145 88.335 24.595 87.865 24.965C87.405 25.335 86.885 25.615 86.305 25.805C85.735 25.995 85.17 26.09 84.61 26.09C83.86 26.09 83.175 25.935 82.555 25.625C81.935 25.305 81.4 24.885 80.95 24.365C80.5 23.835 80.15 23.245 79.9 22.595C79.65 21.935 79.525 21.27 79.525 20.6ZM94.7471 26.075C93.9771 26.075 93.2821 25.925 92.6621 25.625C92.0421 25.325 91.5071 24.92 91.0571 24.41C90.6071 23.89 90.2571 23.31 90.0071 22.67C89.7671 22.02 89.6471 21.355 89.6471 20.675C89.6471 19.965 89.7771 19.29 90.0371 18.65C90.2971 18 90.6571 17.425 91.1171 16.925C91.5771 16.415 92.1171 16.015 92.7371 15.725C93.3671 15.425 94.0471 15.275 94.7771 15.275C95.5371 15.275 96.2271 15.43 96.8471 15.74C97.4771 16.05 98.0121 16.465 98.4521 16.985C98.9021 17.505 99.2471 18.085 99.4871 18.725C99.7371 19.365 99.8621 20.02 99.8621 20.69C99.8621 21.4 99.7321 22.08 99.4721 22.73C99.2221 23.37 98.8671 23.945 98.4071 24.455C97.9471 24.955 97.4021 25.35 96.7721 25.64C96.1521 25.93 95.4771 26.075 94.7471 26.075ZM91.3571 20.675C91.3571 21.175 91.4371 21.66 91.5971 22.13C91.7571 22.6 91.9821 23.02 92.2721 23.39C92.5721 23.75 92.9321 24.035 93.3521 24.245C93.7721 24.455 94.2421 24.56 94.7621 24.56C95.3021 24.56 95.7821 24.45 96.2021 24.23C96.6221 24.01 96.9721 23.715 97.2521 23.345C97.5421 22.965 97.7621 22.545 97.9121 22.085C98.0621 21.615 98.1371 21.145 98.1371 20.675C98.1371 20.175 98.0571 19.695 97.8971 19.235C97.7471 18.765 97.5221 18.35 97.2221 17.99C96.9221 17.62 96.5621 17.33 96.1421 17.12C95.7321 16.91 95.2721 16.805 94.7621 16.805C94.2221 16.805 93.7421 16.915 93.3221 17.135C92.9021 17.355 92.5471 17.65 92.2571 18.02C91.9671 18.39 91.7421 18.805 91.5821 19.265C91.4321 19.725 91.3571 20.195 91.3571 20.675ZM103.281 18.47V26H101.601V15.35H102.981L109.011 23.045V15.365H110.706V26H109.236L103.281 18.47ZM120.915 16.835H117.375V26H115.68V16.835H112.125V15.35H120.915V16.835ZM124.408 15.35H125.998L130.138 26H128.368L127.243 23.105H123.133L122.023 26H120.238L124.408 15.35ZM126.913 21.86L125.203 17.195L123.433 21.86H126.913ZM130.37 20.6C130.37 19.95 130.485 19.315 130.715 18.695C130.945 18.065 131.28 17.495 131.72 16.985C132.17 16.465 132.715 16.055 133.355 15.755C133.995 15.445 134.72 15.29 135.53 15.29C136.49 15.29 137.32 15.51 138.02 15.95C138.72 16.38 139.24 16.935 139.58 17.615L138.26 18.5C138.06 18.07 137.805 17.73 137.495 17.48C137.195 17.23 136.865 17.055 136.505 16.955C136.155 16.855 135.81 16.805 135.47 16.805C134.91 16.805 134.42 16.92 134 17.15C133.58 17.37 133.225 17.665 132.935 18.035C132.655 18.405 132.44 18.82 132.29 19.28C132.15 19.74 132.08 20.2 132.08 20.66C132.08 21.17 132.165 21.665 132.335 22.145C132.505 22.615 132.74 23.035 133.04 23.405C133.35 23.765 133.715 24.05 134.135 24.26C134.555 24.47 135.015 24.575 135.515 24.575C135.855 24.575 136.21 24.515 136.58 24.395C136.95 24.275 137.29 24.09 137.6 23.84C137.92 23.58 138.17 23.24 138.35 22.82L139.745 23.615C139.525 24.145 139.18 24.595 138.71 24.965C138.25 25.335 137.73 25.615 137.15 25.805C136.58 25.995 136.015 26.09 135.455 26.09C134.705 26.09 134.02 25.935 133.4 25.625C132.78 25.305 132.245 24.885 131.795 24.365C131.345 23.835 130.995 23.245 130.745 22.595C130.495 21.935 130.37 21.27 130.37 20.6ZM149.114 16.835H145.574V26H143.879V16.835H140.324V15.35H149.114V16.835ZM154.688 26.075C153.918 26.075 153.223 25.925 152.603 25.625C151.983 25.325 151.448 24.92 150.998 24.41C150.548 23.89 150.198 23.31 149.948 22.67C149.708 22.02 149.588 21.355 149.588 20.675C149.588 19.965 149.718 19.29 149.978 18.65C150.238 18 150.598 17.425 151.058 16.925C151.518 16.415 152.058 16.015 152.678 15.725C153.308 15.425 153.988 15.275 154.718 15.275C155.478 15.275 156.168 15.43 156.788 15.74C157.418 16.05 157.953 16.465 158.393 16.985C158.843 17.505 159.188 18.085 159.428 18.725C159.678 19.365 159.803 20.02 159.803 20.69C159.803 21.4 159.673 22.08 159.413 22.73C159.163 23.37 158.808 23.945 158.348 24.455C157.888 24.955 157.343 25.35 156.713 25.64C156.093 25.93 155.418 26.075 154.688 26.075ZM151.298 20.675C151.298 21.175 151.378 21.66 151.538 22.13C151.698 22.6 151.923 23.02 152.213 23.39C152.513 23.75 152.873 24.035 153.293 24.245C153.713 24.455 154.183 24.56 154.703 24.56C155.243 24.56 155.723 24.45 156.143 24.23C156.563 24.01 156.913 23.715 157.193 23.345C157.483 22.965 157.703 22.545 157.853 22.085C158.003 21.615 158.078 21.145 158.078 20.675C158.078 20.175 157.998 19.695 157.838 19.235C157.688 18.765 157.463 18.35 157.163 17.99C156.863 17.62 156.503 17.33 156.083 17.12C155.673 16.91 155.213 16.805 154.703 16.805C154.163 16.805 153.683 16.915 153.263 17.135C152.843 17.355 152.488 17.65 152.198 18.02C151.908 18.39 151.683 18.805 151.523 19.265C151.373 19.725 151.298 20.195 151.298 20.675Z" fill="#5B5B5B"/>
<path d="M46 10C39.9249 10 35 14.9249 35 21C35 27.0751 39.9249 32 46 32C52.0751 32 57 27.0751 57 21C57 14.9249 52.0751 10 46 10ZM42.0469 14.3694C42.2735 14.356 42.4784 14.4915 42.6337 14.7319L44.1376 17.584C44.2959 17.9219 44.2059 18.2838 43.9697 18.5253L43.2809 19.2141C43.2384 19.2724 43.2104 19.338 43.2097 19.4101C43.4739 20.4327 44.2752 21.3759 44.9822 22.0245C45.6892 22.6732 46.449 23.5513 47.4354 23.7594C47.5573 23.7934 47.7067 23.8056 47.794 23.7245L48.5942 22.9094C48.8705 22.7 49.2701 22.5986 49.5651 22.7698H49.5785L52.2922 24.3717C52.6905 24.6214 52.7318 25.104 52.4466 25.3976L50.5775 27.252C50.3015 27.535 49.9348 27.6302 49.5785 27.6306C48.0028 27.5834 46.514 26.81 45.291 26.0153C43.2837 24.555 41.4425 22.7438 40.2865 20.5555C39.8432 19.638 39.3224 18.4672 39.3721 17.443C39.3765 17.0577 39.4808 16.6803 39.7521 16.4319L41.6212 14.5628C41.7668 14.4389 41.9109 14.3774 42.0469 14.3694Z" fill="#104B86"/>
<path d="M49.6667 20.9987H48.2C48.1994 20.4154 47.9674 19.8562 47.555 19.4437C47.1425 19.0313 46.5833 18.7993 46 18.7987V17.332C46.9721 17.3332 47.9041 17.7199 48.5914 18.4073C49.2788 19.0946 49.6655 20.0266 49.6667 20.9987Z" fill="#E81D2C"/>
<path d="M52.6 21.0004H51.1333C51.1318 19.6394 50.5905 18.3346 49.6281 17.3723C48.6657 16.4099 47.361 15.8686 46 15.8671V14.4004C47.7498 14.4023 49.4274 15.0983 50.6648 16.3356C51.9021 17.5729 52.5981 19.2506 52.6 21.0004Z" fill="#E81D2C"/>
</svg>
