<svg width="100" height="50" viewBox="0 0 100 50" fill="none" xmlns="http://www.w3.org/2000/svg">
<path d="M16.7269 37.574C16.7269 37.0494 16.8212 36.529 17.0097 36.0126C17.1982 35.4881 17.4728 35.0209 17.8334 34.611C18.2023 34.193 18.649 33.857 19.1735 33.6029C19.6981 33.3488 20.2923 33.2218 20.9562 33.2218C21.7513 33.2218 22.4316 33.398 22.9971 33.7504C23.5626 34.1029 23.9888 34.5619 24.2757 35.1274L23.1938 35.8528C23.0709 35.5905 22.9233 35.3692 22.7512 35.1889C22.5791 35.0086 22.3906 34.8651 22.1857 34.7586C21.9808 34.652 21.7677 34.5783 21.5464 34.5373C21.3251 34.4881 21.112 34.4635 20.907 34.4635C20.4481 34.4635 20.0464 34.5578 19.7022 34.7463C19.3579 34.9266 19.067 35.1684 18.8293 35.4717C18.5998 35.7749 18.4236 36.1151 18.3006 36.4921C18.1859 36.8691 18.1285 37.2462 18.1285 37.6232C18.1285 38.0494 18.1982 38.4551 18.3375 38.8403C18.4768 39.2256 18.6695 39.5657 18.9153 39.8608C19.1694 40.1558 19.4686 40.3935 19.8128 40.5738C20.1571 40.746 20.5341 40.832 20.9439 40.832C21.157 40.832 21.3742 40.8074 21.5955 40.7583C21.825 40.7009 22.0422 40.6148 22.2471 40.5001C22.4602 40.3771 22.6529 40.2255 22.825 40.0452C23.0053 39.8649 23.1528 39.6477 23.2676 39.3936L24.411 40.0452C24.2716 40.373 24.0749 40.664 23.8208 40.9181C23.5667 41.164 23.2799 41.373 22.9602 41.5451C22.6406 41.7172 22.3004 41.8484 21.9398 41.9385C21.5873 42.0287 21.239 42.0738 20.8948 42.0738C20.28 42.0738 19.7186 41.9426 19.2104 41.6803C18.7022 41.4181 18.2637 41.0779 17.8949 40.6599C17.5261 40.2337 17.2392 39.7542 17.0343 39.2215C16.8294 38.6805 16.7269 38.1314 16.7269 37.574ZM29.2274 42.0615C28.6045 42.0615 28.0348 41.9385 27.5185 41.6926C27.0103 41.4386 26.5718 41.1066 26.203 40.6968C25.8341 40.2788 25.5473 39.8034 25.3424 39.2706C25.1456 38.7379 25.0473 38.1928 25.0473 37.6355C25.0473 37.0535 25.1538 36.4962 25.3669 35.9634C25.58 35.4307 25.871 34.9594 26.2399 34.5496C26.6169 34.1398 27.0595 33.816 27.5676 33.5783C28.084 33.3324 28.6455 33.2095 29.252 33.2095C29.8749 33.2095 30.4404 33.3406 30.9486 33.6029C31.465 33.857 31.9035 34.193 32.2641 34.611C32.633 35.0291 32.9157 35.5044 33.1124 36.0372C33.3173 36.5618 33.4198 37.0986 33.4198 37.6478C33.4198 38.2297 33.3132 38.7871 33.1001 39.3198C32.8952 39.8526 32.6043 40.3239 32.2272 40.7337C31.8502 41.1353 31.4035 41.459 30.8871 41.7049C30.379 41.9426 29.8257 42.0615 29.2274 42.0615ZM26.4489 37.6355C26.4489 38.0453 26.5144 38.4428 26.6456 38.828C26.7767 39.2133 26.9611 39.5534 27.1988 39.8485C27.4447 40.1435 27.7398 40.3812 28.084 40.5616C28.4283 40.7337 28.8135 40.8197 29.2397 40.8197C29.6823 40.8197 30.0716 40.7296 30.4077 40.5493C30.7519 40.3607 31.0429 40.1149 31.2806 39.8116C31.5183 39.5083 31.6986 39.1682 31.8215 38.7912C31.9445 38.4141 32.0059 38.0289 32.0059 37.6355C32.0059 37.2175 31.9404 36.8199 31.8092 36.4429C31.6781 36.0577 31.4896 35.7216 31.2437 35.4348C31.006 35.1397 30.715 34.9061 30.3708 34.734C30.0347 34.5537 29.6577 34.4635 29.2397 34.4635C28.7971 34.4635 28.4037 34.5578 28.0594 34.7463C27.7152 34.9266 27.4242 35.1643 27.1865 35.4594C26.9488 35.7544 26.7644 36.0946 26.6333 36.4798C26.5103 36.8568 26.4489 37.2421 26.4489 37.6355ZM36.2224 35.8528V42H34.8454V33.271H35.9273L40.9188 39.5657V33.2832H42.3081V42H41.1647L36.2224 35.8528ZM50.6757 34.4881H47.7742V42H46.3849V34.4881H43.4712V33.271H50.6757V34.4881ZM53.5514 33.271H54.7562L58.1986 42H56.7479L55.8258 39.6272H52.4571L51.5474 42H50.0843L53.5514 33.271ZM55.5553 38.6067L54.1538 34.8569L52.703 38.6067H55.5553ZM58.4007 37.574C58.4007 37.0494 58.495 36.529 58.6835 36.0126C58.872 35.4881 59.1466 35.0209 59.5072 34.611C59.8761 34.193 60.3228 33.857 60.8473 33.6029C61.3719 33.3488 61.9661 33.2218 62.63 33.2218C63.4251 33.2218 64.1053 33.398 64.6709 33.7504C65.2364 34.1029 65.6626 34.5619 65.9495 35.1274L64.8676 35.8528C64.7447 35.5905 64.5971 35.3692 64.425 35.1889C64.2529 35.0086 64.0644 34.8651 63.8595 34.7586C63.6546 34.652 63.4414 34.5783 63.2202 34.5373C62.9989 34.4881 62.7857 34.4635 62.5808 34.4635C62.1218 34.4635 61.7202 34.5578 61.376 34.7463C61.0317 34.9266 60.7408 35.1684 60.5031 35.4717C60.2736 35.7749 60.0974 36.1151 59.9744 36.4921C59.8597 36.8691 59.8023 37.2462 59.8023 37.6232C59.8023 38.0494 59.872 38.4551 60.0113 38.8403C60.1506 39.2256 60.3433 39.5657 60.5891 39.8608C60.8432 40.1558 61.1424 40.3935 61.4866 40.5738C61.8309 40.746 62.2079 40.832 62.6177 40.832C62.8308 40.832 63.048 40.8074 63.2693 40.7583C63.4988 40.7009 63.716 40.6148 63.9209 40.5001C64.134 40.3771 64.3266 40.2255 64.4988 40.0452C64.6791 39.8649 64.8266 39.6477 64.9414 39.3936L66.0848 40.0452C65.9454 40.373 65.7487 40.664 65.4946 40.9181C65.2405 41.164 64.9537 41.373 64.634 41.5451C64.3144 41.7172 63.9742 41.8484 63.6136 41.9385C63.2611 42.0287 62.9128 42.0738 62.5685 42.0738C61.9538 42.0738 61.3924 41.9426 60.8842 41.6803C60.376 41.4181 59.9375 41.0779 59.5687 40.6599C59.1999 40.2337 58.913 39.7542 58.7081 39.2215C58.5032 38.6805 58.4007 38.1314 58.4007 37.574ZM73.6797 34.4881H70.7782V42H69.389V34.4881H66.4752V33.271H73.6797V34.4881ZM78.0689 42.0615C77.446 42.0615 76.8764 41.9385 76.36 41.6926C75.8518 41.4386 75.4133 41.1066 75.0445 40.6968C74.6757 40.2788 74.3888 39.8034 74.1839 39.2706C73.9872 38.7379 73.8888 38.1928 73.8888 37.6355C73.8888 37.0535 73.9954 36.4962 74.2085 35.9634C74.4216 35.4307 74.7126 34.9594 75.0814 34.5496C75.4584 34.1398 75.901 33.816 76.4092 33.5783C76.9256 33.3324 77.487 33.2095 78.0935 33.2095C78.7164 33.2095 79.282 33.3406 79.7902 33.6029C80.3065 33.857 80.745 34.193 81.1057 34.611C81.4745 35.0291 81.7573 35.5044 81.954 36.0372C82.1589 36.5618 82.2613 37.0986 82.2613 37.6478C82.2613 38.2297 82.1548 38.7871 81.9417 39.3198C81.7368 39.8526 81.4458 40.3239 81.0688 40.7337C80.6918 41.1353 80.2451 41.459 79.7287 41.7049C79.2205 41.9426 78.6673 42.0615 78.0689 42.0615ZM75.2904 37.6355C75.2904 38.0453 75.356 38.4428 75.4871 38.828C75.6183 39.2133 75.8027 39.5534 76.0404 39.8485C76.2862 40.1435 76.5813 40.3812 76.9256 40.5616C77.2698 40.7337 77.655 40.8197 78.0812 40.8197C78.5238 40.8197 78.9132 40.7296 79.2492 40.5493C79.5935 40.3607 79.8844 40.1149 80.1221 39.8116C80.3598 39.5083 80.5401 39.1682 80.6631 38.7912C80.786 38.4141 80.8475 38.0289 80.8475 37.6355C80.8475 37.2175 80.7819 36.8199 80.6508 36.4429C80.5196 36.0577 80.3311 35.7216 80.0852 35.4348C79.8475 35.1397 79.5566 34.9061 79.2123 34.734C78.8763 34.5537 78.4992 34.4635 78.0812 34.4635C77.6386 34.4635 77.2452 34.5578 76.901 34.7463C76.5567 34.9266 76.2658 35.1643 76.0281 35.4594C75.7904 35.7544 75.606 36.0946 75.4748 36.4798C75.3519 36.8568 75.2904 37.2421 75.2904 37.6355Z" fill="#5B5B5B"/>
<path d="M50 1C43.9249 1 39 5.92486 39 12C39 18.0751 43.9249 23 50 23C56.0751 23 61 18.0751 61 12C61 5.92486 56.0751 1 50 1ZM46.0469 5.36938C46.2735 5.35602 46.4784 5.49148 46.6337 5.73193L48.1376 8.58397C48.2959 8.92192 48.2059 9.28379 47.9697 9.52526L47.2809 10.2141C47.2384 10.2724 47.2104 10.338 47.2097 10.4101C47.4739 11.4327 48.2752 12.3759 48.9822 13.0245C49.6892 13.6732 50.449 14.5513 51.4354 14.7594C51.5573 14.7934 51.7067 14.8056 51.794 14.7245L52.5942 13.9094C52.8705 13.7 53.2701 13.5986 53.5651 13.7698H53.5785L56.2922 15.3717C56.6905 15.6214 56.7318 16.104 56.4466 16.3976L54.5775 18.252C54.3015 18.535 53.9348 18.6302 53.5785 18.6306C52.0028 18.5834 50.514 17.81 49.291 17.0153C47.2837 15.555 45.4425 13.7438 44.2865 11.5555C43.8432 10.638 43.3224 9.46719 43.3721 8.44302C43.3765 8.05773 43.4808 7.68026 43.7521 7.43192L45.6212 5.56278C45.7668 5.43888 45.9109 5.37741 46.0469 5.36938Z" fill="#104B86"/>
<path d="M53.6667 11.9997H52.2C52.1994 11.4164 51.9674 10.8571 51.555 10.4447C51.1425 10.0322 50.5833 9.80026 50 9.79967V8.33301C50.9721 8.33417 51.9041 8.72085 52.5914 9.40824C53.2788 10.0956 53.6655 11.0276 53.6667 11.9997Z" fill="#E81D2C"/>
<path d="M56.6 12.0004H55.1333C55.1318 10.6394 54.5905 9.33464 53.6281 8.37229C52.6657 7.40994 51.361 6.86861 50 6.86706V5.40039C51.7498 5.40233 53.4274 6.09831 54.6648 7.33563C55.9021 8.57295 56.5981 10.2506 56.6 12.0004Z" fill="#E81D2C"/>
</svg>
