<svg width="299" height="41" viewBox="0 0 299 41" fill="none" xmlns="http://www.w3.org/2000/svg">
<rect width="299" height="41" fill="white"/>
<path d="M88.505 24.515V26H81.2V15.35H88.37V16.835H82.88V19.865H87.635V21.26H82.88V24.515H88.505ZM90.9131 15.35L94.1231 23.945L97.3181 15.35H99.1031L94.9181 26H93.3281L89.1281 15.35H90.9131ZM107.709 24.515V26H100.404V15.35H107.574V16.835H102.084V19.865H106.839V21.26H102.084V24.515H107.709ZM111.122 18.47V26H109.442V15.35H110.822L116.852 23.045V15.365H118.547V26H117.077L111.122 18.47ZM128.756 16.835H125.216V26H123.521V16.835H119.966V15.35H128.756V16.835ZM134.331 26.075C133.561 26.075 132.866 25.925 132.246 25.625C131.626 25.325 131.091 24.92 130.641 24.41C130.191 23.89 129.841 23.31 129.591 22.67C129.351 22.02 129.231 21.355 129.231 20.675C129.231 19.965 129.361 19.29 129.621 18.65C129.881 18 130.241 17.425 130.701 16.925C131.161 16.415 131.701 16.015 132.321 15.725C132.951 15.425 133.631 15.275 134.361 15.275C135.121 15.275 135.811 15.43 136.431 15.74C137.061 16.05 137.596 16.465 138.036 16.985C138.486 17.505 138.831 18.085 139.071 18.725C139.321 19.365 139.446 20.02 139.446 20.69C139.446 21.4 139.316 22.08 139.056 22.73C138.806 23.37 138.451 23.945 137.991 24.455C137.531 24.955 136.986 25.35 136.356 25.64C135.736 25.93 135.061 26.075 134.331 26.075ZM130.941 20.675C130.941 21.175 131.021 21.66 131.181 22.13C131.341 22.6 131.566 23.02 131.856 23.39C132.156 23.75 132.516 24.035 132.936 24.245C133.356 24.455 133.826 24.56 134.346 24.56C134.886 24.56 135.366 24.45 135.786 24.23C136.206 24.01 136.556 23.715 136.836 23.345C137.126 22.965 137.346 22.545 137.496 22.085C137.646 21.615 137.721 21.145 137.721 20.675C137.721 20.175 137.641 19.695 137.481 19.235C137.331 18.765 137.106 18.35 136.806 17.99C136.506 17.62 136.146 17.33 135.726 17.12C135.316 16.91 134.856 16.805 134.346 16.805C133.806 16.805 133.326 16.915 132.906 17.135C132.486 17.355 132.131 17.65 131.841 18.02C131.551 18.39 131.326 18.805 131.166 19.265C131.016 19.725 130.941 20.195 130.941 20.675ZM147.471 17.855C147.371 17.745 147.226 17.63 147.036 17.51C146.846 17.38 146.621 17.26 146.361 17.15C146.101 17.04 145.821 16.95 145.521 16.88C145.221 16.81 144.911 16.775 144.591 16.775C143.891 16.775 143.371 16.905 143.031 17.165C142.691 17.425 142.521 17.785 142.521 18.245C142.521 18.585 142.616 18.855 142.806 19.055C142.996 19.245 143.286 19.405 143.676 19.535C144.066 19.665 144.556 19.805 145.146 19.955C145.866 20.125 146.491 20.33 147.021 20.57C147.551 20.8 147.956 21.11 148.236 21.5C148.516 21.89 148.656 22.405 148.656 23.045C148.656 23.585 148.556 24.05 148.356 24.44C148.156 24.83 147.876 25.15 147.516 25.4C147.156 25.64 146.741 25.82 146.271 25.94C145.801 26.05 145.296 26.105 144.756 26.105C144.226 26.105 143.696 26.05 143.166 25.94C142.646 25.83 142.146 25.67 141.666 25.46C141.196 25.24 140.761 24.975 140.361 24.665L141.126 23.225C141.256 23.355 141.441 23.5 141.681 23.66C141.931 23.81 142.216 23.955 142.536 24.095C142.866 24.235 143.221 24.355 143.601 24.455C143.991 24.545 144.386 24.59 144.786 24.59C145.456 24.59 145.966 24.475 146.316 24.245C146.676 24.005 146.856 23.665 146.856 23.225C146.856 22.865 146.741 22.58 146.511 22.37C146.281 22.15 145.946 21.965 145.506 21.815C145.066 21.665 144.541 21.515 143.931 21.365C143.231 21.175 142.646 20.97 142.176 20.75C141.706 20.52 141.351 20.23 141.111 19.88C140.881 19.52 140.766 19.065 140.766 18.515C140.766 17.815 140.936 17.225 141.276 16.745C141.616 16.255 142.076 15.89 142.656 15.65C143.246 15.4 143.906 15.275 144.636 15.275C145.116 15.275 145.571 15.33 146.001 15.44C146.431 15.54 146.831 15.68 147.201 15.86C147.581 16.04 147.926 16.245 148.236 16.475L147.471 17.855Z" fill="#5B5B5B"/>
<path fill-rule="evenodd" clip-rule="evenodd" d="M57 17.25V28.5C57 29.163 56.7366 29.7989 56.2678 30.2678C55.7989 30.7366 55.163 31 54.5 31H39.5C38.837 31 38.2011 30.7366 37.7322 30.2678C37.2634 29.7989 37 29.163 37 28.5V17.25H57ZM47 21.6163C50.125 18.5 54.2812 23.22 47 28.0312C39.7188 23.2188 43.25 18.5 47 21.6163Z" fill="#104B86"/>
<path d="M41.8169 11.1831C41.6997 11.0658 41.5408 11 41.375 11C41.2092 11 41.0503 11.0658 40.9331 11.1831C40.8158 11.3003 40.75 11.4592 40.75 11.625V12.25H39.5C38.837 12.25 38.2011 12.5134 37.7322 12.9822C37.2634 13.4511 37 14.087 37 14.75V16H57V14.75C57 14.087 56.7366 13.4511 56.2678 12.9822C55.7989 12.5134 55.163 12.25 54.5 12.25H53.25V11.625C53.25 11.4592 53.1842 11.3003 53.0669 11.1831C52.9497 11.0658 52.7908 11 52.625 11C52.4592 11 52.3003 11.0658 52.1831 11.1831C52.0658 11.3003 52 11.4592 52 11.625V12.25H42V11.625C42 11.4592 41.9342 11.3003 41.8169 11.1831Z" fill="#104B86"/>
<path d="M51.4617 23.5221C50.2425 23.3018 49.7054 24.8027 49.7054 24.8027C49.7054 24.8027 49.2748 23.3241 48.0556 23.5444C46.6057 23.8034 46.2243 26.1138 49.7054 28.5C53.1849 26.1138 52.9115 23.7836 51.4633 23.5221" fill="#E81D2C"/>
</svg>
