<svg width="299" height="41" viewBox="0 0 299 41" fill="none" xmlns="http://www.w3.org/2000/svg">
<rect width="299" height="41" fill="white"/>
<path d="M80.2 26V15.35H81.88V26H80.2ZM85.9669 18.47V26H84.2869V15.35H85.6669L91.6969 23.045V15.365H93.3919V26H91.9219L85.9669 18.47ZM95.7859 26V15.35H97.4659V26H95.7859ZM99.1979 20.6C99.1979 19.95 99.3129 19.315 99.5429 18.695C99.7729 18.065 100.108 17.495 100.548 16.985C100.998 16.465 101.543 16.055 102.183 15.755C102.823 15.445 103.548 15.29 104.358 15.29C105.318 15.29 106.148 15.51 106.848 15.95C107.548 16.38 108.068 16.935 108.408 17.615L107.088 18.5C106.888 18.07 106.633 17.73 106.323 17.48C106.023 17.23 105.693 17.055 105.333 16.955C104.983 16.855 104.638 16.805 104.298 16.805C103.738 16.805 103.248 16.92 102.828 17.15C102.408 17.37 102.053 17.665 101.763 18.035C101.483 18.405 101.268 18.82 101.118 19.28C100.978 19.74 100.908 20.2 100.908 20.66C100.908 21.17 100.993 21.665 101.163 22.145C101.333 22.615 101.568 23.035 101.868 23.405C102.178 23.765 102.543 24.05 102.963 24.26C103.383 24.47 103.843 24.575 104.343 24.575C104.683 24.575 105.038 24.515 105.408 24.395C105.778 24.275 106.118 24.09 106.428 23.84C106.748 23.58 106.998 23.24 107.178 22.82L108.573 23.615C108.353 24.145 108.008 24.595 107.538 24.965C107.078 25.335 106.558 25.615 105.978 25.805C105.408 25.995 104.843 26.09 104.283 26.09C103.533 26.09 102.848 25.935 102.228 25.625C101.608 25.305 101.073 24.885 100.623 24.365C100.173 23.835 99.8229 23.245 99.5729 22.595C99.3229 21.935 99.1979 21.27 99.1979 20.6ZM110.127 26V15.35H111.807V26H110.127ZM118.639 26.075C117.869 26.075 117.174 25.925 116.554 25.625C115.934 25.325 115.399 24.92 114.949 24.41C114.499 23.89 114.149 23.31 113.899 22.67C113.659 22.02 113.539 21.355 113.539 20.675C113.539 19.965 113.669 19.29 113.929 18.65C114.189 18 114.549 17.425 115.009 16.925C115.469 16.415 116.009 16.015 116.629 15.725C117.259 15.425 117.939 15.275 118.669 15.275C119.429 15.275 120.119 15.43 120.739 15.74C121.369 16.05 121.904 16.465 122.344 16.985C122.794 17.505 123.139 18.085 123.379 18.725C123.629 19.365 123.754 20.02 123.754 20.69C123.754 21.4 123.624 22.08 123.364 22.73C123.114 23.37 122.759 23.945 122.299 24.455C121.839 24.955 121.294 25.35 120.664 25.64C120.044 25.93 119.369 26.075 118.639 26.075ZM115.249 20.675C115.249 21.175 115.329 21.66 115.489 22.13C115.649 22.6 115.874 23.02 116.164 23.39C116.464 23.75 116.824 24.035 117.244 24.245C117.664 24.455 118.134 24.56 118.654 24.56C119.194 24.56 119.674 24.45 120.094 24.23C120.514 24.01 120.864 23.715 121.144 23.345C121.434 22.965 121.654 22.545 121.804 22.085C121.954 21.615 122.029 21.145 122.029 20.675C122.029 20.175 121.949 19.695 121.789 19.235C121.639 18.765 121.414 18.35 121.114 17.99C120.814 17.62 120.454 17.33 120.034 17.12C119.624 16.91 119.164 16.805 118.654 16.805C118.114 16.805 117.634 16.915 117.214 17.135C116.794 17.355 116.439 17.65 116.149 18.02C115.859 18.39 115.634 18.805 115.474 19.265C115.324 19.725 115.249 20.195 115.249 20.675Z" fill="#5B5B5B"/>
<path d="M57.9126 18.9163L48.2101 9.22081C48.1402 9.15082 48.0573 9.09528 47.9659 9.05739C47.8746 9.0195 47.7766 9 47.6777 9C47.5788 9 47.4809 9.0195 47.3896 9.05739C47.2982 9.09528 47.2152 9.15082 47.1454 9.22081L37.4428 18.9163C37.1602 19.199 37 19.5829 37 19.9834C37 20.8149 37.676 21.4909 38.5076 21.4909H39.5299V28.4092C39.5299 28.8261 39.8667 29.163 40.2836 29.163H46.1702V23.8865H48.8084V29.163H55.0718C55.4888 29.163 55.8256 28.8261 55.8256 28.4092V21.4909H56.8479C57.2484 21.4909 57.6323 21.3331 57.915 21.0481C58.5015 20.4592 58.5015 19.5052 57.9126 18.9163Z" fill="#104B86"/>
</svg>
