<svg width="299" height="41" viewBox="0 0 299 41" fill="none" xmlns="http://www.w3.org/2000/svg">
<rect width="299" height="41" fill="white"/>
<path d="M89.57 23.255C89.57 23.825 89.42 24.315 89.12 24.725C88.83 25.135 88.435 25.45 87.935 25.67C87.435 25.89 86.885 26 86.285 26H81.2V15.35H86.69C87.19 15.35 87.62 15.485 87.98 15.755C88.35 16.015 88.63 16.355 88.82 16.775C89.02 17.185 89.12 17.615 89.12 18.065C89.12 18.585 88.985 19.075 88.715 19.535C88.455 19.985 88.08 20.32 87.59 20.54C88.2 20.72 88.68 21.05 89.03 21.53C89.39 22 89.57 22.575 89.57 23.255ZM87.845 22.94C87.845 22.64 87.78 22.37 87.65 22.13C87.53 21.88 87.36 21.68 87.14 21.53C86.93 21.37 86.68 21.29 86.39 21.29H82.88V24.545H86.285C86.585 24.545 86.85 24.475 87.08 24.335C87.32 24.185 87.505 23.99 87.635 23.75C87.775 23.5 87.845 23.23 87.845 22.94ZM82.88 16.805V19.94H85.97C86.25 19.94 86.5 19.875 86.72 19.745C86.94 19.605 87.115 19.42 87.245 19.19C87.375 18.95 87.44 18.68 87.44 18.38C87.44 18.07 87.38 17.8 87.26 17.57C87.14 17.33 86.975 17.145 86.765 17.015C86.565 16.875 86.33 16.805 86.06 16.805H82.88ZM91.3221 26V15.35H93.0021V24.515H98.7171V26H91.3221ZM104.229 26.075C103.459 26.075 102.764 25.925 102.144 25.625C101.524 25.325 100.989 24.92 100.539 24.41C100.089 23.89 99.7385 23.31 99.4885 22.67C99.2485 22.02 99.1285 21.355 99.1285 20.675C99.1285 19.965 99.2585 19.29 99.5185 18.65C99.7785 18 100.139 17.425 100.599 16.925C101.059 16.415 101.599 16.015 102.219 15.725C102.849 15.425 103.529 15.275 104.259 15.275C105.019 15.275 105.709 15.43 106.329 15.74C106.959 16.05 107.494 16.465 107.934 16.985C108.384 17.505 108.729 18.085 108.969 18.725C109.219 19.365 109.344 20.02 109.344 20.69C109.344 21.4 109.214 22.08 108.954 22.73C108.704 23.37 108.349 23.945 107.889 24.455C107.429 24.955 106.884 25.35 106.254 25.64C105.634 25.93 104.959 26.075 104.229 26.075ZM100.839 20.675C100.839 21.175 100.919 21.66 101.079 22.13C101.239 22.6 101.464 23.02 101.754 23.39C102.054 23.75 102.414 24.035 102.834 24.245C103.254 24.455 103.724 24.56 104.244 24.56C104.784 24.56 105.264 24.45 105.684 24.23C106.104 24.01 106.454 23.715 106.734 23.345C107.024 22.965 107.244 22.545 107.394 22.085C107.544 21.615 107.619 21.145 107.619 20.675C107.619 20.175 107.539 19.695 107.379 19.235C107.229 18.765 107.004 18.35 106.704 17.99C106.404 17.62 106.044 17.33 105.624 17.12C105.214 16.91 104.754 16.805 104.244 16.805C103.704 16.805 103.224 16.915 102.804 17.135C102.384 17.355 102.029 17.65 101.739 18.02C101.449 18.39 101.224 18.805 101.064 19.265C100.914 19.725 100.839 20.195 100.839 20.675ZM115.433 26.075C114.733 26.075 114.078 25.93 113.468 25.64C112.858 25.35 112.323 24.95 111.863 24.44C111.413 23.93 111.058 23.35 110.798 22.7C110.548 22.05 110.423 21.36 110.423 20.63C110.423 19.9 110.548 19.215 110.798 18.575C111.058 17.935 111.413 17.365 111.863 16.865C112.323 16.365 112.858 15.975 113.468 15.695C114.088 15.415 114.763 15.275 115.493 15.275C116.503 15.275 117.353 15.49 118.043 15.92C118.743 16.34 119.268 16.9 119.618 17.6L118.328 18.53C118.048 17.95 117.648 17.515 117.128 17.225C116.618 16.935 116.058 16.79 115.448 16.79C114.948 16.79 114.493 16.895 114.083 17.105C113.673 17.315 113.318 17.605 113.018 17.975C112.728 18.335 112.508 18.75 112.358 19.22C112.208 19.68 112.133 20.165 112.133 20.675C112.133 21.215 112.218 21.72 112.388 22.19C112.558 22.66 112.798 23.075 113.108 23.435C113.418 23.785 113.783 24.06 114.203 24.26C114.623 24.46 115.078 24.56 115.568 24.56C116.148 24.56 116.698 24.415 117.218 24.125C117.748 23.825 118.243 23.38 118.703 22.79V24.5C117.773 25.55 116.683 26.075 115.433 26.075ZM118.538 21.86H116.303V20.615H119.948V26H118.538V21.86Z" fill="#5B5B5B"/>
<path d="M38 11.1956C38 10.5353 38.5353 10 39.1956 10H52.3469C53.0072 10 53.5425 10.5353 53.5425 11.1956V26.7381C53.5425 27.3984 53.0072 27.9336 52.3469 27.9336H39.1956C38.5353 27.9336 38 27.3983 38 26.7381V11.1956Z" fill="white"/>
<path d="M39.1956 10.5978H52.3469V9.40221H39.1956V10.5978ZM52.9447 11.1956V26.7381H54.1403V11.1956H52.9447ZM52.3469 27.3358H39.1956V28.5314H52.3469V27.3358ZM38.5978 26.7381V11.1956H37.4022V26.7381H38.5978ZM39.1956 27.3358C38.8654 27.3358 38.5978 27.0682 38.5978 26.7381H37.4022C37.4022 27.7285 38.2051 28.5314 39.1956 28.5314V27.3358ZM52.9447 26.7381C52.9447 27.0682 52.6771 27.3358 52.3469 27.3358V28.5314C53.3373 28.5314 54.1403 27.7285 54.1403 26.7381H52.9447ZM52.3469 10.5978C52.6771 10.5978 52.9447 10.8654 52.9447 11.1956H54.1403C54.1403 10.2051 53.3374 9.40221 52.3469 9.40221V10.5978ZM39.1956 9.40221C38.2051 9.40221 37.4022 10.2051 37.4022 11.1956H38.5978C38.5978 10.8654 38.8654 10.5978 39.1956 10.5978V9.40221Z" fill="#104B86"/>
<path d="M40.3911 14.1857C40.3911 13.8555 40.6588 13.5879 40.9889 13.5879H50.5535C50.8837 13.5879 51.1513 13.8555 51.1513 14.1857C51.1513 14.5158 50.8837 14.7835 50.5535 14.7835H40.9889C40.6588 14.7835 40.3911 14.5158 40.3911 14.1857Z" fill="#104B86"/>
<path d="M40.3911 16.5744C40.3911 16.2442 40.6588 15.9766 40.9889 15.9766H50.5535C50.8837 15.9766 51.1513 16.2442 51.1513 16.5744C51.1513 16.9045 50.8837 17.1721 50.5535 17.1721H40.9889C40.6588 17.1721 40.3911 16.9045 40.3911 16.5744Z" fill="#104B86"/>
<path d="M40.3911 18.9669C40.3911 18.6368 40.6588 18.3691 40.9889 18.3691H50.5535C50.8837 18.3691 51.1513 18.6368 51.1513 18.9669C51.1513 19.2971 50.8837 19.5647 50.5535 19.5647H40.9889C40.6588 19.5647 40.3911 19.2971 40.3911 18.9669Z" fill="#104B86"/>
<path d="M40.3911 21.3595C40.3911 21.0294 40.6588 20.7617 40.9889 20.7617H50.5535C50.8837 20.7617 51.1513 21.0294 51.1513 21.3595C51.1513 21.6897 50.8837 21.9573 50.5535 21.9573H40.9889C40.6588 21.9573 40.3911 21.6897 40.3911 21.3595Z" fill="#104B86"/>
<path d="M40.3911 23.7482C40.3911 23.418 40.6588 23.1504 40.9889 23.1504H50.5535C50.8837 23.1504 51.1513 23.418 51.1513 23.7482C51.1513 24.0783 50.8837 24.346 50.5535 24.346H40.9889C40.6588 24.346 40.3911 24.0783 40.3911 23.7482Z" fill="#104B86"/>
<path d="M54.9508 14.5684L54.9505 14.5682C54.6488 14.3789 54.2842 14.3172 53.9369 14.3967C53.5897 14.4761 53.2882 14.6903 53.0988 14.992L52.4227 16.0676C52.3636 16.1616 52.3443 16.2753 52.3691 16.3835C52.3938 16.4917 52.4605 16.5857 52.5545 16.6447L55.8348 18.7038C56.0305 18.8266 56.2886 18.7676 56.4116 18.5721L57.0873 17.4972L57.0875 17.4968C57.4813 16.8686 57.2936 16.0404 56.6647 15.6456L54.9508 14.5684ZM46.6809 25.9083C46.7 25.9235 46.72 25.9368 46.7407 25.9481L49.999 27.9945C50.1947 28.1174 50.453 28.0584 50.5759 27.8627L55.9203 19.354C55.9793 19.26 55.9986 19.1464 55.9739 19.0382C55.9492 18.93 55.8825 18.8361 55.7885 18.7771L52.5082 16.717C52.4142 16.658 52.3006 16.6387 52.1925 16.6634C52.0843 16.6882 51.9903 16.7549 51.9313 16.8488L46.5874 25.3585C46.4742 25.5389 46.5144 25.7755 46.6809 25.9083ZM46.5646 30.5021L48.2764 29.5966L48.2766 29.5965L49.8669 28.7568C49.9991 28.687 50.084 28.5519 50.0896 28.4025C50.0952 28.2531 50.0207 28.112 49.8941 28.0324L46.7293 26.0438C46.6027 25.9642 46.4432 25.9583 46.311 26.0282C46.1788 26.0982 46.094 26.2333 46.0885 26.3828L46.0227 28.1818L46.0227 28.182L45.9507 30.1167C45.9452 30.2661 46.0198 30.4071 46.1464 30.4866C46.273 30.5661 46.4324 30.572 46.5646 30.5021Z" fill="#E81D2C" stroke="white" stroke-width="0.836903" stroke-linejoin="round"/>
</svg>
