<svg width="101" height="50" viewBox="0 0 101 50" fill="none" xmlns="http://www.w3.org/2000/svg">
<path d="M0.370527 37.32C0.370527 36.7653 0.470194 36.215 0.669527 35.669C0.868861 35.1143 1.15919 34.6203 1.54053 34.187C1.93053 33.745 2.40286 33.3897 2.95753 33.121C3.51219 32.8523 4.14053 32.718 4.84253 32.718C5.68319 32.718 6.40253 32.9043 7.00053 33.277C7.59853 33.6497 8.04919 34.135 8.35253 34.733L7.20853 35.5C7.07853 35.2227 6.92253 34.9887 6.74053 34.798C6.55853 34.6073 6.35919 34.4557 6.14253 34.343C5.92586 34.2303 5.70053 34.1523 5.46653 34.109C5.23253 34.057 5.00719 34.031 4.79053 34.031C4.30519 34.031 3.88053 34.1307 3.51653 34.33C3.15253 34.5207 2.84486 34.7763 2.59353 35.097C2.35086 35.4177 2.16453 35.7773 2.03453 36.176C1.91319 36.5747 1.85253 36.9733 1.85253 37.372C1.85253 37.8227 1.92619 38.2517 2.07353 38.659C2.22086 39.0663 2.42453 39.426 2.68453 39.738C2.95319 40.05 3.26953 40.3013 3.63353 40.492C3.99753 40.674 4.39619 40.765 4.82953 40.765C5.05486 40.765 5.28453 40.739 5.51853 40.687C5.76119 40.6263 5.99086 40.5353 6.20753 40.414C6.43286 40.284 6.63653 40.1237 6.81853 39.933C7.00919 39.7423 7.16519 39.5127 7.28653 39.244L8.49553 39.933C8.34819 40.2797 8.14019 40.5873 7.87153 40.856C7.60286 41.116 7.29953 41.337 6.96153 41.519C6.62353 41.701 6.26386 41.8397 5.88253 41.935C5.50986 42.0303 5.14153 42.078 4.77753 42.078C4.12753 42.078 3.53386 41.9393 2.99653 41.662C2.45919 41.3847 1.99553 41.025 1.60553 40.583C1.21553 40.1323 0.912194 39.6253 0.695527 39.062C0.478861 38.49 0.370527 37.9093 0.370527 37.32ZM16.1732 40.713V42H9.84225V32.77H16.0562V34.057H11.2982V36.683H15.4192V37.892H11.2982V40.713H16.1732ZM17.6753 42V32.77H21.6923C22.1083 32.77 22.4896 32.8567 22.8363 33.03C23.1916 33.2033 23.4949 33.433 23.7463 33.719C23.9976 33.9963 24.1926 34.317 24.3313 34.681C24.4786 35.0363 24.5523 35.4003 24.5523 35.773C24.5523 36.085 24.5089 36.384 24.4223 36.67C24.3356 36.956 24.2143 37.2203 24.0583 37.463C23.9023 37.7057 23.7116 37.918 23.4863 38.1C23.2609 38.2733 23.0139 38.4033 22.7453 38.49L24.9163 42H23.2653L21.2633 38.789H19.1313V42H17.6753ZM19.1313 37.502H21.6793C21.8873 37.502 22.0736 37.4587 22.2383 37.372C22.4116 37.2767 22.5589 37.151 22.6803 36.995C22.8016 36.8303 22.8969 36.644 22.9663 36.436C23.0356 36.228 23.0703 36.007 23.0703 35.773C23.0703 35.539 23.0269 35.318 22.9403 35.11C22.8623 34.902 22.7539 34.72 22.6153 34.564C22.4853 34.408 22.3293 34.2867 22.1473 34.2C21.9739 34.1047 21.7919 34.057 21.6013 34.057H19.1313V37.502ZM26.27 42V32.77H30.287C30.703 32.77 31.0843 32.8567 31.431 33.03C31.7863 33.2033 32.0896 33.433 32.341 33.719C32.5923 33.9963 32.7873 34.317 32.926 34.681C33.0733 35.0363 33.147 35.4003 33.147 35.773C33.147 36.085 33.1036 36.384 33.017 36.67C32.9303 36.956 32.809 37.2203 32.653 37.463C32.497 37.7057 32.3063 37.918 32.081 38.1C31.8556 38.2733 31.6086 38.4033 31.34 38.49L33.511 42H31.86L29.858 38.789H27.726V42H26.27ZM27.726 37.502H30.274C30.482 37.502 30.6683 37.4587 30.833 37.372C31.0063 37.2767 31.1536 37.151 31.275 36.995C31.3963 36.8303 31.4916 36.644 31.561 36.436C31.6303 36.228 31.665 36.007 31.665 35.773C31.665 35.539 31.6216 35.318 31.535 35.11C31.457 34.902 31.3486 34.72 31.21 34.564C31.08 34.408 30.924 34.2867 30.742 34.2C30.5686 34.1047 30.3866 34.057 30.196 34.057H27.726V37.502ZM37.4421 32.77H38.7161L42.3561 42H40.8221L39.8471 39.491H36.2851L35.3231 42H33.7761L37.4421 32.77ZM39.5611 38.412L38.0791 34.447L36.5451 38.412H39.5611ZM43.4975 42V32.77H47.5145C47.9305 32.77 48.3119 32.8567 48.6585 33.03C49.0139 33.2033 49.3172 33.433 49.5685 33.719C49.8199 33.9963 50.0149 34.317 50.1535 34.681C50.3009 35.0363 50.3745 35.4003 50.3745 35.773C50.3745 36.085 50.3312 36.384 50.2445 36.67C50.1579 36.956 50.0365 37.2203 49.8805 37.463C49.7245 37.7057 49.5339 37.918 49.3085 38.1C49.0832 38.2733 48.8362 38.4033 48.5675 38.49L50.7385 42H49.0875L47.0855 38.789H44.9535V42H43.4975ZM44.9535 37.502H47.5015C47.7095 37.502 47.8959 37.4587 48.0605 37.372C48.2339 37.2767 48.3812 37.151 48.5025 36.995C48.6239 36.8303 48.7192 36.644 48.7885 36.436C48.8579 36.228 48.8925 36.007 48.8925 35.773C48.8925 35.539 48.8492 35.318 48.7625 35.11C48.6845 34.902 48.5762 34.72 48.4375 34.564C48.3075 34.408 48.1515 34.2867 47.9695 34.2C47.7962 34.1047 47.6142 34.057 47.4235 34.057H44.9535V37.502ZM60.7642 34.941C60.6775 34.8457 60.5518 34.746 60.3872 34.642C60.2225 34.5293 60.0275 34.4253 59.8022 34.33C59.5855 34.2347 59.3428 34.1567 59.0742 34.096C58.8142 34.0353 58.5455 34.005 58.2682 34.005C57.6528 34.005 57.1978 34.1177 56.9032 34.343C56.6172 34.5683 56.4742 34.8803 56.4742 35.279C56.4742 35.5043 56.5175 35.6907 56.6042 35.838C56.6995 35.9767 56.8425 36.1023 57.0332 36.215C57.2238 36.319 57.4622 36.4143 57.7482 36.501C58.0342 36.579 58.3678 36.6657 58.7492 36.761C59.2172 36.8737 59.6375 36.9993 60.0102 37.138C60.3915 37.2767 60.7122 37.4457 60.9722 37.645C61.2322 37.8443 61.4315 38.0913 61.5702 38.386C61.7175 38.672 61.7912 39.023 61.7912 39.439C61.7912 39.907 61.7002 40.31 61.5182 40.648C61.3448 40.986 61.1022 41.2633 60.7902 41.48C60.4868 41.688 60.1315 41.844 59.7242 41.948C59.3168 42.0433 58.8792 42.091 58.4112 42.091C57.7092 42.091 57.0288 41.987 56.3702 41.779C55.7202 41.5623 55.1308 41.2503 54.6022 40.843L55.2652 39.595C55.3778 39.7077 55.5382 39.8333 55.7462 39.972C55.9628 40.1107 56.2098 40.2407 56.4872 40.362C56.7732 40.4747 57.0808 40.5743 57.4102 40.661C57.7395 40.739 58.0818 40.778 58.4372 40.778C59.0092 40.778 59.4512 40.6783 59.7632 40.479C60.0752 40.2797 60.2312 39.985 60.2312 39.595C60.2312 39.361 60.1705 39.166 60.0492 39.01C59.9365 38.854 59.7718 38.7197 59.5552 38.607C59.3385 38.4857 59.0742 38.3773 58.7622 38.282C58.4502 38.1867 58.0948 38.087 57.6962 37.983C57.2368 37.8617 56.8338 37.736 56.4872 37.606C56.1492 37.4673 55.8675 37.3027 55.6422 37.112C55.4168 36.9213 55.2435 36.7003 55.1222 36.449C55.0095 36.189 54.9532 35.877 54.9532 35.513C54.9532 35.0623 55.0398 34.6637 55.2132 34.317C55.3865 33.9617 55.6205 33.667 55.9152 33.433C56.2185 33.1903 56.5738 33.0083 56.9812 32.887C57.3885 32.7657 57.8305 32.705 58.3072 32.705C58.9312 32.705 59.5075 32.8047 60.0362 33.004C60.5648 33.2033 61.0285 33.4503 61.4272 33.745L60.7642 34.941ZM69.5824 40.713V42H63.2514V32.77H69.4654V34.057H64.7074V36.683H68.8284V37.892H64.7074V40.713H69.5824ZM76.354 34.941C76.2673 34.8457 76.1417 34.746 75.977 34.642C75.8123 34.5293 75.6173 34.4253 75.392 34.33C75.1753 34.2347 74.9327 34.1567 74.664 34.096C74.404 34.0353 74.1353 34.005 73.858 34.005C73.2427 34.005 72.7877 34.1177 72.493 34.343C72.207 34.5683 72.064 34.8803 72.064 35.279C72.064 35.5043 72.1073 35.6907 72.194 35.838C72.2893 35.9767 72.4323 36.1023 72.623 36.215C72.8137 36.319 73.052 36.4143 73.338 36.501C73.624 36.579 73.9577 36.6657 74.339 36.761C74.807 36.8737 75.2273 36.9993 75.6 37.138C75.9813 37.2767 76.302 37.4457 76.562 37.645C76.822 37.8443 77.0213 38.0913 77.16 38.386C77.3073 38.672 77.381 39.023 77.381 39.439C77.381 39.907 77.29 40.31 77.108 40.648C76.9347 40.986 76.692 41.2633 76.38 41.48C76.0767 41.688 75.7213 41.844 75.314 41.948C74.9067 42.0433 74.469 42.091 74.001 42.091C73.299 42.091 72.6187 41.987 71.96 41.779C71.31 41.5623 70.7207 41.2503 70.192 40.843L70.855 39.595C70.9677 39.7077 71.128 39.8333 71.336 39.972C71.5527 40.1107 71.7997 40.2407 72.077 40.362C72.363 40.4747 72.6707 40.5743 73 40.661C73.3293 40.739 73.6717 40.778 74.027 40.778C74.599 40.778 75.041 40.6783 75.353 40.479C75.665 40.2797 75.821 39.985 75.821 39.595C75.821 39.361 75.7603 39.166 75.639 39.01C75.5263 38.854 75.3617 38.7197 75.145 38.607C74.9283 38.4857 74.664 38.3773 74.352 38.282C74.04 38.1867 73.6847 38.087 73.286 37.983C72.8267 37.8617 72.4237 37.736 72.077 37.606C71.739 37.4673 71.4573 37.3027 71.232 37.112C71.0067 36.9213 70.8333 36.7003 70.712 36.449C70.5993 36.189 70.543 35.877 70.543 35.513C70.543 35.0623 70.6297 34.6637 70.803 34.317C70.9763 33.9617 71.2103 33.667 71.505 33.433C71.8083 33.1903 72.1637 33.0083 72.571 32.887C72.9783 32.7657 73.4203 32.705 73.897 32.705C74.521 32.705 75.0973 32.8047 75.626 33.004C76.1547 33.2033 76.6183 33.4503 77.017 33.745L76.354 34.941ZM78.8413 42V32.77H80.2973V42H78.8413ZM86.5823 31.808L85.6463 31.522L86.3873 30.092H87.7523L86.5823 31.808ZM86.2183 42.065C85.5596 42.065 84.9573 41.935 84.4113 41.675C83.8739 41.4063 83.4103 41.0553 83.0203 40.622C82.6303 40.18 82.3269 39.6773 82.1103 39.114C81.9023 38.5507 81.7983 37.9743 81.7983 37.385C81.7983 36.7697 81.9109 36.1803 82.1363 35.617C82.3616 35.0537 82.6693 34.5553 83.0593 34.122C83.4579 33.6887 83.9259 33.3463 84.4633 33.095C85.0093 32.835 85.6029 32.705 86.2443 32.705C86.9029 32.705 87.5009 32.8437 88.0383 33.121C88.5843 33.3897 89.0479 33.745 89.4293 34.187C89.8193 34.629 90.1183 35.1317 90.3263 35.695C90.5429 36.2497 90.6513 36.8173 90.6513 37.398C90.6513 38.0133 90.5386 38.6027 90.3133 39.166C90.0966 39.7293 89.7889 40.2277 89.3903 40.661C88.9916 41.0857 88.5193 41.428 87.9733 41.688C87.4359 41.9393 86.8509 42.065 86.2183 42.065ZM83.2803 37.385C83.2803 37.8183 83.3496 38.2387 83.4883 38.646C83.6269 39.0533 83.8219 39.413 84.0733 39.725C84.3333 40.037 84.6453 40.2883 85.0093 40.479C85.3733 40.661 85.7806 40.752 86.2313 40.752C86.6993 40.752 87.1109 40.6567 87.4663 40.466C87.8303 40.2667 88.1379 40.0067 88.3893 39.686C88.6406 39.3653 88.8313 39.0057 88.9613 38.607C89.0913 38.2083 89.1563 37.801 89.1563 37.385C89.1563 36.943 89.0869 36.5227 88.9483 36.124C88.8096 35.7167 88.6103 35.3613 88.3503 35.058C88.0989 34.746 87.7913 34.499 87.4273 34.317C87.0719 34.1263 86.6733 34.031 86.2313 34.031C85.7633 34.031 85.3473 34.1307 84.9833 34.33C84.6193 34.5207 84.3116 34.772 84.0603 35.084C83.8089 35.396 83.6139 35.7557 83.4753 36.163C83.3453 36.5617 83.2803 36.969 83.2803 37.385ZM93.6147 35.5V42H92.1587V32.77H93.3027L98.5807 39.426V32.783H100.05V42H98.8407L93.6147 35.5Z" fill="#545454"/>
<path d="M46 8.02561V13.0579C46 13.6385 46.4968 14.1224 47.093 14.1224H53.1209V18.0901C53.1209 18.445 53.2865 18.7353 53.6177 18.8966C53.7502 18.9288 53.9158 18.9288 53.982 18.9288C54.2139 18.9288 54.4126 18.8643 54.5782 18.703L62.3615 11.1224C62.6596 10.8321 62.6265 10.2514 62.3615 9.92883L54.5782 2.38045C54.3132 2.12238 53.982 2.09012 53.6177 2.1869C53.2865 2.34819 53.1209 2.60625 53.1209 2.96109V6.96109H47.093C46.4968 6.96109 46 7.44496 46 8.02561Z" fill="#104B86"/>
<path d="M49.7974 21H43.3389C42.1134 21 41.0867 20.5806 40.2918 19.7742C39.4969 19 39.0001 17.9677 39.0001 16.8065V4.19355C39.0001 3.03226 39.4969 2 40.2918 1.22581C41.0867 0.451613 42.1465 0 43.3389 0H49.7974V2.64516H43.3389C42.4115 2.64516 41.716 3.32258 41.716 4.19355V16.8065C41.716 17.6774 42.4115 18.3871 43.3389 18.3871H49.7974V21Z" fill="#E81D2C"/>
</svg>
