<svg width="299" height="41" viewBox="0 0 299 41" fill="none" xmlns="http://www.w3.org/2000/svg">
<rect width="299" height="41" fill="white"/>
<path d="M82.1963 26V15.3829H86.817C87.2955 15.3829 87.7341 15.4826 88.1329 15.682C88.5317 15.8814 88.8756 16.1455 89.1647 16.4745C89.4638 16.8035 89.6931 17.1724 89.8526 17.5811C90.022 17.9898 90.1068 18.4085 90.1068 18.8372C90.1068 19.3057 90.022 19.7544 89.8526 20.183C89.6831 20.6117 89.4389 20.9806 89.1198 21.2896C88.8108 21.5986 88.4469 21.8229 88.0282 21.9625L90.5255 26H88.6413L86.3385 22.3064H83.8711V26H82.1963ZM83.8711 20.826H86.802C87.1111 20.826 87.3852 20.7363 87.6245 20.5569C87.8637 20.3774 88.0531 20.1382 88.1927 19.8391C88.3323 19.53 88.4021 19.1961 88.4021 18.8372C88.4021 18.4683 88.3223 18.1394 88.1628 17.8503C88.0033 17.5512 87.7939 17.3119 87.5348 17.1325C87.2855 16.953 87.0114 16.8633 86.7123 16.8633H83.8711V20.826ZM99.3651 24.5196V26H92.0827V15.3829H99.2305V16.8633H93.7575V19.884H98.4978V21.2746H93.7575V24.5196H99.3651ZM101.766 15.3829L104.966 23.9513L108.151 15.3829H109.93L105.758 26H104.173L99.9863 15.3829H101.766ZM118.51 24.5196V26H111.227V15.3829H118.375V16.8633H112.902V19.884H117.643V21.2746H112.902V24.5196H118.51ZM121.912 18.4933V26H120.238V15.3829H121.613L127.625 23.0541V15.3978H129.314V26H127.849L121.912 18.4933ZM139.492 16.8633H135.963V26H134.273V16.8633H130.729V15.3829H139.492V16.8633ZM142.974 15.3829H144.559L148.686 26H146.921L145.8 23.1139H141.703L140.596 26H138.816L142.974 15.3829ZM145.471 21.8728L143.766 17.2222L142.002 21.8728H145.471Z" fill="#5B5B5B"/>
<path d="M53.991 11H44.01C42.899 11 42 11.899 42 13.01V18.647L37.298 23.289C37.1571 23.4283 37.0608 23.6064 37.0213 23.8006C36.9818 23.9947 37.0008 24.1963 37.0761 24.3796C37.1513 24.5629 37.2793 24.7197 37.4438 24.8302C37.6083 24.9407 37.8019 24.9998 38 25V30C38 30.2652 38.1054 30.5196 38.2929 30.7071C38.4805 30.8946 38.7348 31 39 31H55C55.2652 31 55.5196 30.8946 55.7071 30.7071C55.8947 30.5196 56 30.2652 56 30V13.009C56 11.899 55.102 11 53.991 11ZM45.922 24.111V29H40V23.432L42.987 20.483L45.922 23.486V24.111ZM48 18H46V16H48V18ZM52 26H50V24H52V26ZM52 22H50V20H52V22ZM52 18H50V16H52V18Z" fill="#104B86"/>
<path d="M42 24H44V26H42V24Z" fill="#104B86"/>
<path d="M39.3635 23.1815L43.1817 19.3633L46.9999 23.1815V29.7269H39.3635V23.1815Z" fill="#E81D2C"/>
<rect x="41.5454" y="24.2734" width="3.27273" height="3.27273" fill="white"/>
</svg>
