<svg width="100" height="50" viewBox="0 0 100 50" fill="none" xmlns="http://www.w3.org/2000/svg">
<path d="M27.9709 40.7829V42H21.9836V33.271H27.8603V34.4881H23.3605V36.9716H27.2579V38.115H23.3605V40.7829H27.9709ZM29.9447 33.271L32.5757 40.2665L35.1944 33.271H36.6574L33.1658 42H31.9856L28.4816 33.271H29.9447ZM43.7112 40.7829V42H37.7238V33.271H43.6005V34.4881H39.1008V36.9716H42.9981V38.115H39.1008V40.7829H43.7112ZM46.5086 35.8528V42H45.1317V33.271H46.2136L51.2051 39.5657V33.2832H52.5944V42H51.451L46.5086 35.8528ZM60.962 34.4881H58.0605V42H56.6712V34.4881H53.7575V33.271H60.962V34.4881ZM65.3512 42.0615C64.7283 42.0615 64.1586 41.9385 63.6423 41.6926C63.1341 41.4386 62.6956 41.1066 62.3268 40.6968C61.9579 40.2788 61.6711 39.8034 61.4662 39.2706C61.2694 38.7379 61.1711 38.1928 61.1711 37.6355C61.1711 37.0535 61.2776 36.4962 61.4907 35.9634C61.7038 35.4307 61.9948 34.9594 62.3636 34.5496C62.7407 34.1398 63.1833 33.816 63.6914 33.5783C64.2078 33.3324 64.7693 33.2095 65.3758 33.2095C65.9987 33.2095 66.5642 33.3406 67.0724 33.6029C67.5888 33.857 68.0273 34.193 68.3879 34.611C68.7568 35.0291 69.0395 35.5044 69.2362 36.0372C69.4411 36.5618 69.5436 37.0986 69.5436 37.6478C69.5436 38.2297 69.437 38.7871 69.2239 39.3198C69.019 39.8526 68.7281 40.3239 68.351 40.7337C67.974 41.1353 67.5273 41.459 67.0109 41.7049C66.5028 41.9426 65.9495 42.0615 65.3512 42.0615ZM62.5727 37.6355C62.5727 38.0453 62.6382 38.4428 62.7694 38.828C62.9005 39.2133 63.0849 39.5534 63.3226 39.8485C63.5685 40.1435 63.8636 40.3812 64.2078 40.5616C64.5521 40.7337 64.9373 40.8197 65.3635 40.8197C65.8061 40.8197 66.1954 40.7296 66.5315 40.5493C66.8757 40.3607 67.1667 40.1149 67.4044 39.8116C67.6421 39.5083 67.8224 39.1682 67.9453 38.7912C68.0683 38.4141 68.1297 38.0289 68.1297 37.6355C68.1297 37.2175 68.0642 36.8199 67.933 36.4429C67.8019 36.0577 67.6134 35.7216 67.3675 35.4348C67.1298 35.1397 66.8388 34.9061 66.4946 34.734C66.1585 34.5537 65.7815 34.4635 65.3635 34.4635C64.9209 34.4635 64.5275 34.5578 64.1832 34.7463C63.839 34.9266 63.548 35.1643 63.3103 35.4594C63.0726 35.7544 62.8882 36.0946 62.7571 36.4798C62.6341 36.8568 62.5727 37.2421 62.5727 37.6355ZM76.1328 35.3241C76.0509 35.234 75.932 35.1397 75.7763 35.0414C75.6206 34.9348 75.4361 34.8364 75.223 34.7463C75.0181 34.6561 74.7886 34.5824 74.5346 34.525C74.2887 34.4676 74.0346 34.4389 73.7723 34.4389C73.1904 34.4389 72.7601 34.5455 72.4814 34.7586C72.2109 34.9717 72.0757 35.2668 72.0757 35.6438C72.0757 35.8569 72.1167 36.0331 72.1986 36.1724C72.2888 36.3036 72.424 36.4224 72.6043 36.529C72.7847 36.6273 73.01 36.7175 73.2805 36.7995C73.551 36.8732 73.8666 36.9552 74.2272 37.0453C74.6698 37.1519 75.0673 37.2707 75.4198 37.4019C75.7804 37.533 76.0837 37.6929 76.3295 37.8814C76.5754 38.0699 76.7639 38.3035 76.8951 38.5821C77.0344 38.8526 77.1041 39.1846 77.1041 39.578C77.1041 40.0206 77.018 40.4017 76.8459 40.7214C76.682 41.041 76.4525 41.3033 76.1574 41.5082C75.8706 41.7049 75.5345 41.8525 75.1493 41.9508C74.7641 42.041 74.3501 42.0861 73.9075 42.0861C73.2436 42.0861 72.6002 41.9877 71.9773 41.791C71.3626 41.5861 70.8052 41.291 70.3053 40.9058L70.9323 39.7255C71.0388 39.8321 71.1905 39.9509 71.3872 40.0821C71.5921 40.2132 71.8257 40.3362 72.088 40.4509C72.3584 40.5575 72.6494 40.6517 72.9609 40.7337C73.2723 40.8074 73.5961 40.8443 73.9321 40.8443C74.4731 40.8443 74.8911 40.7501 75.1862 40.5616C75.4812 40.373 75.6288 40.0944 75.6288 39.7255C75.6288 39.5042 75.5714 39.3198 75.4566 39.1723C75.3501 39.0247 75.1944 38.8977 74.9895 38.7912C74.7845 38.6764 74.5346 38.574 74.2395 38.4838C73.9444 38.3936 73.6084 38.2994 73.2313 38.201C72.7969 38.0863 72.4158 37.9674 72.088 37.8445C71.7683 37.7133 71.5019 37.5576 71.2888 37.3773C71.0757 37.197 70.9118 36.988 70.7971 36.7503C70.6905 36.5044 70.6372 36.2093 70.6372 35.8651C70.6372 35.4389 70.7192 35.0618 70.8831 34.734C71.047 34.3979 71.2683 34.1193 71.547 33.898C71.8339 33.6685 72.1699 33.4964 72.5552 33.3816C72.9404 33.2669 73.3584 33.2095 73.8092 33.2095C74.3993 33.2095 74.9444 33.3037 75.4443 33.4923C75.9443 33.6808 76.3828 33.9144 76.7598 34.193L76.1328 35.3241Z" fill="#5B5B5B"/>
<path fill-rule="evenodd" clip-rule="evenodd" d="M60 8.25V19.5C60 20.163 59.7366 20.7989 59.2678 21.2678C58.7989 21.7366 58.163 22 57.5 22H42.5C41.837 22 41.2011 21.7366 40.7322 21.2678C40.2634 20.7989 40 20.163 40 19.5V8.25H60ZM50 12.6163C53.125 9.5 57.2812 14.22 50 19.0312C42.7188 14.2188 46.25 9.5 50 12.6163Z" fill="#104B86"/>
<path d="M44.8169 2.18306C44.6997 2.06585 44.5408 2 44.375 2C44.2092 2 44.0503 2.06585 43.9331 2.18306C43.8158 2.30027 43.75 2.45924 43.75 2.625V3.25H42.5C41.837 3.25 41.2011 3.51339 40.7322 3.98223C40.2634 4.45107 40 5.08696 40 5.75V7H60V5.75C60 5.08696 59.7366 4.45107 59.2678 3.98223C58.7989 3.51339 58.163 3.25 57.5 3.25H56.25V2.625C56.25 2.45924 56.1842 2.30027 56.0669 2.18306C55.9497 2.06585 55.7908 2 55.625 2C55.4592 2 55.3003 2.06585 55.1831 2.18306C55.0658 2.30027 55 2.45924 55 2.625V3.25H45V2.625C45 2.45924 44.9342 2.30027 44.8169 2.18306Z" fill="#104B86"/>
<path d="M54.4617 14.5221C53.2425 14.3018 52.7054 15.8027 52.7054 15.8027C52.7054 15.8027 52.2748 14.3241 51.0556 14.5444C49.6057 14.8034 49.2243 17.1138 52.7054 19.5C56.1849 17.1138 55.9115 14.7836 54.4633 14.5221" fill="#E81D2C"/>
</svg>
