<svg width="100" height="50" viewBox="0 0 100 50" fill="none" xmlns="http://www.w3.org/2000/svg">
<path d="M24.1472 35.3241C24.0653 35.234 23.9464 35.1397 23.7907 35.0414C23.6349 34.9348 23.4505 34.8364 23.2374 34.7463C23.0325 34.6561 22.803 34.5824 22.5489 34.525C22.3031 34.4676 22.049 34.4389 21.7867 34.4389C21.2047 34.4389 20.7744 34.5455 20.4958 34.7586C20.2253 34.9717 20.0901 35.2668 20.0901 35.6438C20.0901 35.8569 20.131 36.0331 20.213 36.1724C20.3032 36.3036 20.4384 36.4224 20.6187 36.529C20.799 36.6273 21.0244 36.7175 21.2949 36.7995C21.5654 36.8732 21.8809 36.9552 22.2416 37.0453C22.6842 37.1519 23.0817 37.2707 23.4341 37.4019C23.7948 37.533 24.098 37.6929 24.3439 37.8814C24.5898 38.0699 24.7783 38.3035 24.9095 38.5821C25.0488 38.8526 25.1185 39.1846 25.1185 39.578C25.1185 40.0206 25.0324 40.4017 24.8603 40.7214C24.6964 41.041 24.4669 41.3033 24.1718 41.5082C23.8849 41.7049 23.5489 41.8525 23.1637 41.9508C22.7784 42.041 22.3645 42.0861 21.9219 42.0861C21.258 42.0861 20.6146 41.9877 19.9917 41.791C19.377 41.5861 18.8196 41.291 18.3197 40.9058L18.9467 39.7255C19.0532 39.8321 19.2049 39.9509 19.4016 40.0821C19.6065 40.2132 19.8401 40.3362 20.1023 40.4509C20.3728 40.5575 20.6638 40.6517 20.9753 40.7337C21.2867 40.8074 21.6105 40.8443 21.9465 40.8443C22.4875 40.8443 22.9055 40.7501 23.2005 40.5616C23.4956 40.373 23.6431 40.0944 23.6431 39.7255C23.6431 39.5042 23.5858 39.3198 23.471 39.1723C23.3645 39.0247 23.2087 38.8977 23.0038 38.7912C22.7989 38.6764 22.5489 38.574 22.2539 38.4838C21.9588 38.3936 21.6228 38.2994 21.2457 38.201C20.8113 38.0863 20.4302 37.9674 20.1023 37.8445C19.7827 37.7133 19.5163 37.5576 19.3032 37.3773C19.0901 37.197 18.9262 36.988 18.8114 36.7503C18.7049 36.5044 18.6516 36.2093 18.6516 35.8651C18.6516 35.4389 18.7336 35.0618 18.8975 34.734C19.0614 34.3979 19.2827 34.1193 19.5614 33.898C19.8483 33.6685 20.1843 33.4964 20.5695 33.3816C20.9548 33.2669 21.3728 33.2095 21.8236 33.2095C22.4137 33.2095 22.9588 33.3037 23.4587 33.4923C23.9587 33.6808 24.3972 33.9144 24.7742 34.193L24.1472 35.3241ZM32.4869 40.7829V42H26.4995V33.271H32.3762V34.4881H27.8765V36.9716H31.7738V38.115H27.8765V40.7829H32.4869ZM33.9074 42V33.271H37.7063C38.0998 33.271 38.4604 33.3529 38.7882 33.5168C39.1243 33.6808 39.4112 33.898 39.6489 34.1684C39.8866 34.4307 40.071 34.734 40.2021 35.0782C40.3414 35.4143 40.4111 35.7585 40.4111 36.111C40.4111 36.406 40.3701 36.6888 40.2882 36.9593C40.2062 37.2298 40.0915 37.4797 39.9439 37.7092C39.7964 37.9387 39.6161 38.1395 39.403 38.3117C39.1899 38.4756 38.9563 38.5985 38.7022 38.6805L40.7554 42H39.194L37.3006 38.9633H35.2843V42H33.9074ZM35.2843 37.7461H37.694C37.8908 37.7461 38.067 37.7051 38.2227 37.6232C38.3866 37.533 38.526 37.4142 38.6407 37.2666C38.7555 37.1109 38.8456 36.9347 38.9112 36.738C38.9768 36.5413 39.0095 36.3323 39.0095 36.111C39.0095 35.8897 38.9686 35.6807 38.8866 35.484C38.8128 35.2872 38.7104 35.1151 38.5792 34.9676C38.4563 34.8201 38.3088 34.7053 38.1366 34.6233C37.9727 34.5332 37.8006 34.4881 37.6203 34.4881H35.2843V37.7461ZM42.3848 33.271L45.0158 40.2665L47.6345 33.271H49.0975L45.6059 42H44.4256L40.9217 33.271H42.3848ZM50.1639 42V33.271H51.5408V42H50.1639ZM52.9604 37.574C52.9604 37.0494 53.0546 36.529 53.2431 36.0126C53.4317 35.4881 53.7062 35.0209 54.0669 34.611C54.4357 34.193 54.8824 33.857 55.407 33.6029C55.9315 33.3488 56.5257 33.2218 57.1896 33.2218C57.9847 33.2218 58.665 33.398 59.2305 33.7504C59.7961 34.1029 60.2223 34.5619 60.5091 35.1274L59.4272 35.8528C59.3043 35.5905 59.1568 35.3692 58.9846 35.1889C58.8125 35.0086 58.624 34.8651 58.4191 34.7586C58.2142 34.652 58.0011 34.5783 57.7798 34.5373C57.5585 34.4881 57.3454 34.4635 57.1405 34.4635C56.6815 34.4635 56.2799 34.5578 55.9356 34.7463C55.5914 34.9266 55.3004 35.1684 55.0627 35.4717C54.8332 35.7749 54.657 36.1151 54.5341 36.4921C54.4193 36.8691 54.3619 37.2462 54.3619 37.6232C54.3619 38.0494 54.4316 38.4551 54.5709 38.8403C54.7103 39.2256 54.9029 39.5657 55.1488 39.8608C55.4029 40.1558 55.702 40.3935 56.0463 40.5738C56.3905 40.746 56.7675 40.832 57.1774 40.832C57.3905 40.832 57.6077 40.8074 57.829 40.7583C58.0585 40.7009 58.2757 40.6148 58.4806 40.5001C58.6937 40.3771 58.8863 40.2255 59.0584 40.0452C59.2387 39.8649 59.3863 39.6477 59.501 39.3936L60.6444 40.0452C60.505 40.373 60.3083 40.664 60.0543 40.9181C59.8002 41.164 59.5133 41.373 59.1936 41.5451C58.874 41.7172 58.5338 41.8484 58.1732 41.9385C57.8208 42.0287 57.4724 42.0738 57.1282 42.0738C56.5135 42.0738 55.952 41.9426 55.4438 41.6803C54.9357 41.4181 54.4972 41.0779 54.1283 40.6599C53.7595 40.2337 53.4726 39.7542 53.2677 39.2215C53.0628 38.6805 52.9604 38.1314 52.9604 37.574ZM61.918 42V33.271H63.295V42H61.918ZM68.8946 42.0615C68.2717 42.0615 67.7021 41.9385 67.1857 41.6926C66.6775 41.4386 66.239 41.1066 65.8702 40.6968C65.5014 40.2788 65.2145 39.8034 65.0096 39.2706C64.8129 38.7379 64.7145 38.1928 64.7145 37.6355C64.7145 37.0535 64.8211 36.4962 65.0342 35.9634C65.2473 35.4307 65.5382 34.9594 65.9071 34.5496C66.2841 34.1398 66.7267 33.816 67.2349 33.5783C67.7512 33.3324 68.3127 33.2095 68.9192 33.2095C69.5421 33.2095 70.1077 33.3406 70.6158 33.6029C71.1322 33.857 71.5707 34.193 71.9313 34.611C72.3002 35.0291 72.5829 35.5044 72.7797 36.0372C72.9846 36.5618 73.087 37.0986 73.087 37.6478C73.087 38.2297 72.9805 38.7871 72.7674 39.3198C72.5625 39.8526 72.2715 40.3239 71.8945 40.7337C71.5174 41.1353 71.0707 41.459 70.5544 41.7049C70.0462 41.9426 69.4929 42.0615 68.8946 42.0615ZM66.1161 37.6355C66.1161 38.0453 66.1816 38.4428 66.3128 38.828C66.4439 39.2133 66.6283 39.5534 66.866 39.8485C67.1119 40.1435 67.407 40.3812 67.7512 40.5616C68.0955 40.7337 68.4807 40.8197 68.9069 40.8197C69.3495 40.8197 69.7388 40.7296 70.0749 40.5493C70.4191 40.3607 70.7101 40.1149 70.9478 39.8116C71.1855 39.5083 71.3658 39.1682 71.4887 38.7912C71.6117 38.4141 71.6732 38.0289 71.6732 37.6355C71.6732 37.2175 71.6076 36.8199 71.4764 36.4429C71.3453 36.0577 71.1568 35.7216 70.9109 35.4348C70.6732 35.1397 70.3822 34.9061 70.038 34.734C69.702 34.5537 69.3249 34.4635 68.9069 34.4635C68.4643 34.4635 68.0709 34.5578 67.7266 34.7463C67.3824 34.9266 67.0914 35.1643 66.8537 35.4594C66.616 35.7544 66.4316 36.0946 66.3005 36.4798C66.1775 36.8568 66.1161 37.2421 66.1161 37.6355ZM79.6763 35.3241C79.5943 35.234 79.4754 35.1397 79.3197 35.0414C79.164 34.9348 78.9796 34.8364 78.7665 34.7463C78.5616 34.6561 78.3321 34.5824 78.078 34.525C77.8321 34.4676 77.578 34.4389 77.3157 34.4389C76.7338 34.4389 76.3035 34.5455 76.0248 34.7586C75.7543 34.9717 75.6191 35.2668 75.6191 35.6438C75.6191 35.8569 75.6601 36.0331 75.742 36.1724C75.8322 36.3036 75.9674 36.4224 76.1478 36.529C76.3281 36.6273 76.5535 36.7175 76.8239 36.7995C77.0944 36.8732 77.41 36.9552 77.7706 37.0453C78.2132 37.1519 78.6107 37.2707 78.9632 37.4019C79.3238 37.533 79.6271 37.6929 79.873 37.8814C80.1189 38.0699 80.3074 38.3035 80.4385 38.5821C80.5778 38.8526 80.6475 39.1846 80.6475 39.578C80.6475 40.0206 80.5615 40.4017 80.3893 40.7214C80.2254 41.041 79.9959 41.3033 79.7008 41.5082C79.414 41.7049 79.0779 41.8525 78.6927 41.9508C78.3075 42.041 77.8936 42.0861 77.451 42.0861C76.7871 42.0861 76.1437 41.9877 75.5207 41.791C74.906 41.5861 74.3487 41.291 73.8487 40.9058L74.4757 39.7255C74.5823 39.8321 74.7339 39.9509 74.9306 40.0821C75.1355 40.2132 75.3691 40.3362 75.6314 40.4509C75.9019 40.5575 76.1928 40.6517 76.5043 40.7337C76.8158 40.8074 77.1395 40.8443 77.4756 40.8443C78.0165 40.8443 78.4345 40.7501 78.7296 40.5616C79.0247 40.373 79.1722 40.0944 79.1722 39.7255C79.1722 39.5042 79.1148 39.3198 79.0001 39.1723C78.8935 39.0247 78.7378 38.8977 78.5329 38.7912C78.328 38.6764 78.078 38.574 77.7829 38.4838C77.4878 38.3936 77.1518 38.2994 76.7748 38.201C76.3404 38.0863 75.9592 37.9674 75.6314 37.8445C75.3117 37.7133 75.0454 37.5576 74.8323 37.3773C74.6191 37.197 74.4552 36.988 74.3405 36.7503C74.2339 36.5044 74.1806 36.2093 74.1806 35.8651C74.1806 35.4389 74.2626 35.0618 74.4265 34.734C74.5905 34.3979 74.8118 34.1193 75.0904 33.898C75.3773 33.6685 75.7134 33.4964 76.0986 33.3816C76.4838 33.2669 76.9018 33.2095 77.3526 33.2095C77.9427 33.2095 78.4878 33.3037 78.9878 33.4923C79.4877 33.6808 79.9262 33.9144 80.3033 34.193L79.6763 35.3241Z" fill="#5B5B5B"/>
<path d="M41.0086 15.3508L41.0439 15.3862L41.0848 15.4148C41.9941 16.0513 43.5378 16.9233 45.0807 17.7948C45.1993 17.8618 45.3178 17.9287 45.436 17.9956C47.1226 18.9491 48.7466 19.8787 49.6223 20.5354C52.171 22.4469 54.9417 21.6276 56.5526 20.5537C58.3982 19.3233 59.0872 17.6358 59.0872 16.6582V16.4221L58.9202 16.2551L50.9378 8.27261L50.7708 8.10561H50.5346H45.4033H45.2687L45.1483 8.1658C43.9564 8.76174 42.1522 9.95865 40.9377 11.7806C40.0094 13.1731 40.219 14.5611 41.0086 15.3508Z" stroke="#104B86" stroke-width="1.14035"/>
<path d="M48.748 8.52335C48.7178 8.53845 48.6927 8.56216 48.676 8.59148C48.2917 9.26403 47.7986 10.3062 47.5748 11.2452C47.4633 11.7131 47.4142 12.1728 47.4916 12.5537C47.571 12.9447 47.7876 13.2625 48.2002 13.4C48.5822 13.5274 48.9283 13.4996 49.2313 13.3635C49.5299 13.2294 49.7757 12.9953 49.9742 12.7264C50.344 12.2254 50.5737 11.5713 50.682 11.0884L52.1993 10.5826L57.8262 16.2096C57.8746 16.258 57.9472 16.2729 58.0107 16.2474L60.8616 15.1071C60.9005 15.0915 60.9323 15.0622 60.9511 15.0248C61.5506 13.8257 61.3542 12.8271 60.9511 12.0209C60.6598 11.4384 60.3648 10.9946 59.9212 10.551C59.4811 10.1109 58.8991 9.67558 58.0421 9.1042C58.0322 9.09763 58.0217 9.0921 58.0107 9.0877L52.3091 6.807C52.2637 6.78886 52.2127 6.79098 52.169 6.81283L48.748 8.52335Z" fill="#104B86" stroke="white" stroke-width="0.342105" stroke-linejoin="round"/>
<path d="M48.0538 17.6252C49.1183 18.3152 49.9506 19.1276 50.4383 19.8765C50.6824 20.2512 50.8357 20.6031 50.8933 20.9106C50.9507 21.2168 50.9118 21.4686 50.7864 21.662C50.6611 21.8554 50.4471 21.9937 50.1441 22.0664C49.8399 22.1393 49.4561 22.1431 49.0144 22.0733C48.1316 21.9339 47.0502 21.5058 45.9857 20.8158C44.9212 20.1258 44.0889 19.3135 43.6012 18.5645C43.3571 18.1898 43.2038 17.8379 43.1462 17.5305C43.0888 17.2242 43.1277 16.9724 43.253 16.779C43.3784 16.5856 43.5924 16.4473 43.8954 16.3746C44.1996 16.3017 44.5834 16.298 45.0251 16.3677C45.9079 16.5072 46.9893 16.9352 48.0538 17.6252Z" fill="#104B86" stroke="white" stroke-width="0.342105"/>
<path d="M61.9387 11.5268C61.0264 9.70227 57.3773 7.5356 56.8071 6.96543L66.5001 1.26367V15.5181C63.8393 16.0882 59.4299 17.1145 60.7984 16.6584C62.5089 16.0882 63.0791 13.8075 61.9387 11.5268Z" fill="#104B86"/>
<path d="M38.5613 11.5268C39.4736 9.70227 43.1227 7.5356 43.6929 6.96543L33.9999 1.26367V15.5181C36.6607 16.0882 41.0701 17.1145 39.7016 16.6584C37.9911 16.0882 37.4209 13.8075 38.5613 11.5268Z" fill="#E81D2C"/>
<path d="M54.5264 21.2199L50.5352 17.7988" stroke="#104B86" stroke-width="0.570175" stroke-linecap="round"/>
<path d="M56.8069 20.0797L49.9648 14.3779" stroke="#104B86" stroke-width="0.570175" stroke-linecap="round"/>
<path d="M58.5176 18.3693L54.5264 14.9482" stroke="#104B86" stroke-width="0.570175" stroke-linecap="round"/>
<line x1="15.75" y1="46.25" x2="83.25" y2="46.25" stroke="#104B86" stroke-width="1.5" stroke-linecap="round"/>
</svg>
