<svg width="100" height="50" viewBox="0 0 100 50" fill="none" xmlns="http://www.w3.org/2000/svg">
<path d="M2.18307 41V31.77H3.63907V41H2.18307ZM7.18106 34.5V41H5.72506V31.77H6.86906L12.1471 38.426V31.783H13.6161V41H12.4071L7.18106 34.5ZM15.6909 41V31.77H17.1469V41H15.6909ZM18.6479 36.32C18.6479 35.7653 18.7475 35.215 18.9469 34.669C19.1462 34.1143 19.4365 33.6203 19.8179 33.187C20.2079 32.745 20.6802 32.3897 21.2349 32.121C21.7895 31.8523 22.4179 31.718 23.1199 31.718C23.9605 31.718 24.6799 31.9043 25.2779 32.277C25.8759 32.6497 26.3265 33.135 26.6299 33.733L25.4859 34.5C25.3559 34.2227 25.1999 33.9887 25.0179 33.798C24.8359 33.6073 24.6365 33.4557 24.4199 33.343C24.2032 33.2303 23.9779 33.1523 23.7439 33.109C23.5099 33.057 23.2845 33.031 23.0679 33.031C22.5825 33.031 22.1579 33.1307 21.7939 33.33C21.4299 33.5207 21.1222 33.7763 20.8709 34.097C20.6282 34.4177 20.4419 34.7773 20.3119 35.176C20.1905 35.5747 20.1299 35.9733 20.1299 36.372C20.1299 36.8227 20.2035 37.2517 20.3509 37.659C20.4982 38.0663 20.7019 38.426 20.9619 38.738C21.2305 39.05 21.5469 39.3013 21.9109 39.492C22.2749 39.674 22.6735 39.765 23.1069 39.765C23.3322 39.765 23.5619 39.739 23.7959 39.687C24.0385 39.6263 24.2682 39.5353 24.4849 39.414C24.7102 39.284 24.9139 39.1237 25.0959 38.933C25.2865 38.7423 25.4425 38.5127 25.5639 38.244L26.7729 38.933C26.6255 39.2797 26.4175 39.5873 26.1489 39.856C25.8802 40.116 25.5769 40.337 25.2389 40.519C24.9009 40.701 24.5412 40.8397 24.1599 40.935C23.7872 41.0303 23.4189 41.078 23.0549 41.078C22.4049 41.078 21.8112 40.9393 21.2739 40.662C20.7365 40.3847 20.2729 40.025 19.8829 39.583C19.4929 39.1323 19.1895 38.6253 18.9729 38.062C18.7562 37.49 18.6479 36.9093 18.6479 36.32ZM28.1196 41V31.77H29.5756V41H28.1196ZM34.3786 31.77H35.6526L39.2926 41H37.7586L36.7836 38.491H33.2216L32.2596 41H30.7126L34.3786 31.77ZM36.4976 37.412L35.0156 33.447L33.4816 37.412H36.4976ZM40.434 41V31.77H44.451C44.867 31.77 45.2484 31.8567 45.595 32.03C45.9504 32.2033 46.2537 32.433 46.505 32.719C46.7564 32.9963 46.9514 33.317 47.09 33.681C47.2374 34.0363 47.311 34.4003 47.311 34.773C47.311 35.085 47.2677 35.384 47.181 35.67C47.0944 35.956 46.973 36.2203 46.817 36.463C46.661 36.7057 46.4704 36.918 46.245 37.1C46.0197 37.2733 45.7727 37.4033 45.504 37.49L47.675 41H46.024L44.022 37.789H41.89V41H40.434ZM41.89 36.502H44.438C44.646 36.502 44.8324 36.4587 44.997 36.372C45.1704 36.2767 45.3177 36.151 45.439 35.995C45.5604 35.8303 45.6557 35.644 45.725 35.436C45.7944 35.228 45.829 35.007 45.829 34.773C45.829 34.539 45.7857 34.318 45.699 34.11C45.621 33.902 45.5127 33.72 45.374 33.564C45.244 33.408 45.088 33.2867 44.906 33.2C44.7327 33.1047 44.5507 33.057 44.36 33.057H41.89V36.502ZM57.7007 33.941C57.614 33.8457 57.4884 33.746 57.3237 33.642C57.159 33.5293 56.964 33.4253 56.7387 33.33C56.522 33.2347 56.2794 33.1567 56.0107 33.096C55.7507 33.0353 55.482 33.005 55.2047 33.005C54.5894 33.005 54.1344 33.1177 53.8397 33.343C53.5537 33.5683 53.4107 33.8803 53.4107 34.279C53.4107 34.5043 53.454 34.6907 53.5407 34.838C53.636 34.9767 53.779 35.1023 53.9697 35.215C54.1604 35.319 54.3987 35.4143 54.6847 35.501C54.9707 35.579 55.3044 35.6657 55.6857 35.761C56.1537 35.8737 56.574 35.9993 56.9467 36.138C57.328 36.2767 57.6487 36.4457 57.9087 36.645C58.1687 36.8443 58.368 37.0913 58.5067 37.386C58.654 37.672 58.7277 38.023 58.7277 38.439C58.7277 38.907 58.6367 39.31 58.4547 39.648C58.2814 39.986 58.0387 40.2633 57.7267 40.48C57.4234 40.688 57.068 40.844 56.6607 40.948C56.2534 41.0433 55.8157 41.091 55.3477 41.091C54.6457 41.091 53.9654 40.987 53.3067 40.779C52.6567 40.5623 52.0674 40.2503 51.5387 39.843L52.2017 38.595C52.3144 38.7077 52.4747 38.8333 52.6827 38.972C52.8994 39.1107 53.1464 39.2407 53.4237 39.362C53.7097 39.4747 54.0174 39.5743 54.3467 39.661C54.676 39.739 55.0184 39.778 55.3737 39.778C55.9457 39.778 56.3877 39.6783 56.6997 39.479C57.0117 39.2797 57.1677 38.985 57.1677 38.595C57.1677 38.361 57.107 38.166 56.9857 38.01C56.873 37.854 56.7084 37.7197 56.4917 37.607C56.275 37.4857 56.0107 37.3773 55.6987 37.282C55.3867 37.1867 55.0314 37.087 54.6327 36.983C54.1734 36.8617 53.7704 36.736 53.4237 36.606C53.0857 36.4673 52.804 36.3027 52.5787 36.112C52.3534 35.9213 52.18 35.7003 52.0587 35.449C51.946 35.189 51.8897 34.877 51.8897 34.513C51.8897 34.0623 51.9764 33.6637 52.1497 33.317C52.323 32.9617 52.557 32.667 52.8517 32.433C53.155 32.1903 53.5104 32.0083 53.9177 31.887C54.325 31.7657 54.767 31.705 55.2437 31.705C55.8677 31.705 56.444 31.8047 56.9727 32.004C57.5014 32.2033 57.965 32.4503 58.3637 32.745L57.7007 33.941ZM66.519 39.713V41H60.188V31.77H66.402V33.057H61.644V35.683H65.765V36.892H61.644V39.713H66.519ZM73.2905 33.941C73.2039 33.8457 73.0782 33.746 72.9135 33.642C72.7489 33.5293 72.5539 33.4253 72.3285 33.33C72.1119 33.2347 71.8692 33.1567 71.6005 33.096C71.3405 33.0353 71.0719 33.005 70.7945 33.005C70.1792 33.005 69.7242 33.1177 69.4295 33.343C69.1435 33.5683 69.0005 33.8803 69.0005 34.279C69.0005 34.5043 69.0439 34.6907 69.1305 34.838C69.2259 34.9767 69.3689 35.1023 69.5595 35.215C69.7502 35.319 69.9885 35.4143 70.2745 35.501C70.5605 35.579 70.8942 35.6657 71.2755 35.761C71.7435 35.8737 72.1639 35.9993 72.5365 36.138C72.9179 36.2767 73.2385 36.4457 73.4985 36.645C73.7585 36.8443 73.9579 37.0913 74.0965 37.386C74.2439 37.672 74.3175 38.023 74.3175 38.439C74.3175 38.907 74.2265 39.31 74.0445 39.648C73.8712 39.986 73.6285 40.2633 73.3165 40.48C73.0132 40.688 72.6579 40.844 72.2505 40.948C71.8432 41.0433 71.4055 41.091 70.9375 41.091C70.2355 41.091 69.5552 40.987 68.8965 40.779C68.2465 40.5623 67.6572 40.2503 67.1285 39.843L67.7915 38.595C67.9042 38.7077 68.0645 38.8333 68.2725 38.972C68.4892 39.1107 68.7362 39.2407 69.0135 39.362C69.2995 39.4747 69.6072 39.5743 69.9365 39.661C70.2659 39.739 70.6082 39.778 70.9635 39.778C71.5355 39.778 71.9775 39.6783 72.2895 39.479C72.6015 39.2797 72.7575 38.985 72.7575 38.595C72.7575 38.361 72.6969 38.166 72.5755 38.01C72.4629 37.854 72.2982 37.7197 72.0815 37.607C71.8649 37.4857 71.6005 37.3773 71.2885 37.282C70.9765 37.1867 70.6212 37.087 70.2225 36.983C69.7632 36.8617 69.3602 36.736 69.0135 36.606C68.6755 36.4673 68.3939 36.3027 68.1685 36.112C67.9432 35.9213 67.7699 35.7003 67.6485 35.449C67.5359 35.189 67.4795 34.877 67.4795 34.513C67.4795 34.0623 67.5662 33.6637 67.7395 33.317C67.9129 32.9617 68.1469 32.667 68.4415 32.433C68.7449 32.1903 69.1002 32.0083 69.5075 31.887C69.9149 31.7657 70.3569 31.705 70.8335 31.705C71.4575 31.705 72.0339 31.8047 72.5625 32.004C73.0912 32.2033 73.5549 32.4503 73.9535 32.745L73.2905 33.941ZM75.7778 41V31.77H77.2338V41H75.7778ZM83.5188 30.808L82.5828 30.522L83.3238 29.092H84.6888L83.5188 30.808ZM83.1548 41.065C82.4961 41.065 81.8938 40.935 81.3478 40.675C80.8105 40.4063 80.3468 40.0553 79.9568 39.622C79.5668 39.18 79.2635 38.6773 79.0468 38.114C78.8388 37.5507 78.7348 36.9743 78.7348 36.385C78.7348 35.7697 78.8475 35.1803 79.0728 34.617C79.2981 34.0537 79.6058 33.5553 79.9958 33.122C80.3945 32.6887 80.8625 32.3463 81.3998 32.095C81.9458 31.835 82.5395 31.705 83.1808 31.705C83.8395 31.705 84.4375 31.8437 84.9748 32.121C85.5208 32.3897 85.9845 32.745 86.3658 33.187C86.7558 33.629 87.0548 34.1317 87.2628 34.695C87.4795 35.2497 87.5878 35.8173 87.5878 36.398C87.5878 37.0133 87.4751 37.6027 87.2498 38.166C87.0331 38.7293 86.7255 39.2277 86.3268 39.661C85.9281 40.0857 85.4558 40.428 84.9098 40.688C84.3725 40.9393 83.7875 41.065 83.1548 41.065ZM80.2168 36.385C80.2168 36.8183 80.2861 37.2387 80.4248 37.646C80.5635 38.0533 80.7585 38.413 81.0098 38.725C81.2698 39.037 81.5818 39.2883 81.9458 39.479C82.3098 39.661 82.7171 39.752 83.1678 39.752C83.6358 39.752 84.0475 39.6567 84.4028 39.466C84.7668 39.2667 85.0745 39.0067 85.3258 38.686C85.5771 38.3653 85.7678 38.0057 85.8978 37.607C86.0278 37.2083 86.0928 36.801 86.0928 36.385C86.0928 35.943 86.0235 35.5227 85.8848 35.124C85.7461 34.7167 85.5468 34.3613 85.2868 34.058C85.0355 33.746 84.7278 33.499 84.3638 33.317C84.0085 33.1263 83.6098 33.031 83.1678 33.031C82.6998 33.031 82.2838 33.1307 81.9198 33.33C81.5558 33.5207 81.2481 33.772 80.9968 34.084C80.7455 34.396 80.5505 34.7557 80.4118 35.163C80.2818 35.5617 80.2168 35.969 80.2168 36.385ZM90.5512 34.5V41H89.0952V31.77H90.2392L95.5172 38.426V31.783H96.9862V41H95.7772L90.5512 34.5Z" fill="#545454"/>
<path d="M38 8.02561V13.0579C38 13.6385 38.4968 14.1224 39.093 14.1224H45.1209V18.0901C45.1209 18.445 45.2865 18.7353 45.6177 18.8966C45.7502 18.9288 45.9158 18.9288 45.982 18.9288C46.2139 18.9288 46.4126 18.8643 46.5782 18.703L54.3615 11.1224C54.6596 10.8321 54.6265 10.2514 54.3615 9.92883L46.5782 2.38045C46.3132 2.12238 45.982 2.09012 45.6177 2.1869C45.2865 2.34819 45.1209 2.60625 45.1209 2.96109V6.96109H39.093C38.4968 6.96109 38 7.44496 38 8.02561Z" fill="#104B86"/>
<path d="M50.8228 21H57.2812C58.5067 21 59.5334 20.5806 60.3283 19.7742C61.1232 19 61.62 17.9677 61.62 16.8065V4.19355C61.62 3.03226 61.1232 2 60.3283 1.22581C59.5334 0.451613 58.4736 0 57.2812 0H50.8228V2.64516H57.2812C58.2086 2.64516 58.9041 3.32258 58.9041 4.19355V16.8065C58.9041 17.6774 58.2086 18.3871 57.2812 18.3871H50.8228V21Z" fill="#E81D2C"/>
<line x1="15.75" y1="46.25" x2="83.25" y2="46.25" stroke="#104B86" stroke-width="1.5" stroke-linecap="round"/>
</svg>
