<svg width="100" height="50" viewBox="0 0 100 50" fill="none" xmlns="http://www.w3.org/2000/svg">
<path d="M22.9836 42V33.271H26.7825C27.176 33.271 27.5366 33.3529 27.8644 33.5168C28.2005 33.6808 28.4874 33.898 28.7251 34.1684C28.9627 34.4307 29.1472 34.734 29.2783 35.0782C29.4176 35.4143 29.4873 35.7585 29.4873 36.111C29.4873 36.406 29.4463 36.6888 29.3644 36.9593C29.2824 37.2298 29.1677 37.4797 29.0201 37.7092C28.8726 37.9387 28.6923 38.1395 28.4792 38.3117C28.2661 38.4756 28.0325 38.5985 27.7784 38.6805L29.8316 42H28.2702L26.3768 38.9633H24.3605V42H22.9836ZM24.3605 37.7461H26.7702C26.9669 37.7461 27.1432 37.7051 27.2989 37.6232C27.4628 37.533 27.6022 37.4142 27.7169 37.2666C27.8317 37.1109 27.9218 36.9347 27.9874 36.738C28.053 36.5413 28.0857 36.3323 28.0857 36.111C28.0857 35.8897 28.0448 35.6807 27.9628 35.484C27.889 35.2872 27.7866 35.1151 27.6554 34.9676C27.5325 34.8201 27.385 34.7053 27.2128 34.6233C27.0489 34.5332 26.8768 34.4881 26.6965 34.4881H24.3605V37.7461ZM37.0992 40.7829V42H31.1118V33.271H36.9885V34.4881H32.4888V36.9716H36.3861V38.115H32.4888V40.7829H37.0992ZM39.0729 33.271L41.7039 40.2665L44.3227 33.271H45.7857L42.2941 42H41.1138L37.6099 33.271H39.0729ZM52.8394 40.7829V42H46.852V33.271H52.7288V34.4881H48.229V36.9716H52.1263V38.115H48.229V40.7829H52.8394ZM55.6369 35.8528V42H54.2599V33.271H55.3418L60.3334 39.5657V33.2832H61.7226V42H60.5792L55.6369 35.8528ZM70.0902 34.4881H67.1888V42H65.7995V34.4881H62.8857V33.271H70.0902V34.4881ZM72.9659 33.271H74.1707L77.6132 42H76.1624L75.2404 39.6272H71.8717L70.9619 42H69.4989L72.9659 33.271ZM74.9699 38.6067L73.5683 34.8569L72.1176 38.6067H74.9699Z" fill="#5B5B5B"/>
<path d="M56.9913 4.00098H47.0103C45.8993 4.00098 45.0003 4.89998 45.0003 6.01098V11.648L40.2983 16.29C40.1574 16.4293 40.0611 16.6074 40.0216 16.8015C39.982 16.9957 40.0011 17.1972 40.0763 17.3806C40.1515 17.5639 40.2795 17.7207 40.444 17.8312C40.6085 17.9416 40.8021 18.0007 41.0003 18.001V23.001C41.0003 23.2662 41.1056 23.5205 41.2932 23.7081C41.4807 23.8956 41.7351 24.001 42.0003 24.001H58.0003C58.2655 24.001 58.5198 23.8956 58.7074 23.7081C58.8949 23.5205 59.0003 23.2662 59.0003 23.001V6.00998C59.0003 4.89998 58.1023 4.00098 56.9913 4.00098ZM48.9223 17.112V22.001H43.0003V16.433L45.9873 13.484L48.9223 16.487V17.112V17.112ZM51.0003 11.001H49.0003V9.00098H51.0003V11.001ZM55.0003 19.001H53.0003V17.001H55.0003V19.001ZM55.0003 15.001H53.0003V13.001H55.0003V15.001ZM55.0003 11.001H53.0003V9.00098H55.0003V11.001Z" fill="#104B86"/>
<path d="M45 17H47V19H45V17Z" fill="#104B86"/>
<path d="M42.3638 16.1815L46.182 12.3633L50.0001 16.1815V22.7269H42.3638V16.1815Z" fill="#E81D2C"/>
<rect x="44.5454" y="17.2725" width="3.27273" height="3.27273" fill="white"/>
<line x1="15.75" y1="46.25" x2="83.25" y2="46.25" stroke="#104B86" stroke-width="1.5" stroke-linecap="round"/>
</svg>
