<svg width="299" height="41" viewBox="0 0 299 41" fill="none" xmlns="http://www.w3.org/2000/svg">
<rect width="299" height="41" fill="white"/>
<path d="M88.5 17.855C88.4 17.745 88.255 17.63 88.065 17.51C87.875 17.38 87.65 17.26 87.39 17.15C87.13 17.04 86.85 16.95 86.55 16.88C86.25 16.81 85.94 16.775 85.62 16.775C84.92 16.775 84.4 16.905 84.06 17.165C83.72 17.425 83.55 17.785 83.55 18.245C83.55 18.585 83.645 18.855 83.835 19.055C84.025 19.245 84.315 19.405 84.705 19.535C85.095 19.665 85.585 19.805 86.175 19.955C86.895 20.125 87.52 20.33 88.05 20.57C88.58 20.8 88.985 21.11 89.265 21.5C89.545 21.89 89.685 22.405 89.685 23.045C89.685 23.585 89.585 24.05 89.385 24.44C89.185 24.83 88.905 25.15 88.545 25.4C88.185 25.64 87.77 25.82 87.3 25.94C86.83 26.05 86.325 26.105 85.785 26.105C85.255 26.105 84.725 26.05 84.195 25.94C83.675 25.83 83.175 25.67 82.695 25.46C82.225 25.24 81.79 24.975 81.39 24.665L82.155 23.225C82.285 23.355 82.47 23.5 82.71 23.66C82.96 23.81 83.245 23.955 83.565 24.095C83.895 24.235 84.25 24.355 84.63 24.455C85.02 24.545 85.415 24.59 85.815 24.59C86.485 24.59 86.995 24.475 87.345 24.245C87.705 24.005 87.885 23.665 87.885 23.225C87.885 22.865 87.77 22.58 87.54 22.37C87.31 22.15 86.975 21.965 86.535 21.815C86.095 21.665 85.57 21.515 84.96 21.365C84.26 21.175 83.675 20.97 83.205 20.75C82.735 20.52 82.38 20.23 82.14 19.88C81.91 19.52 81.795 19.065 81.795 18.515C81.795 17.815 81.965 17.225 82.305 16.745C82.645 16.255 83.105 15.89 83.685 15.65C84.275 15.4 84.935 15.275 85.665 15.275C86.145 15.275 86.6 15.33 87.03 15.44C87.46 15.54 87.86 15.68 88.23 15.86C88.61 16.04 88.955 16.245 89.265 16.475L88.5 17.855ZM98.6749 24.515V26H91.3699V15.35H98.5399V16.835H93.0499V19.865H97.8049V21.26H93.0499V24.515H98.6749ZM100.408 26V15.35H105.043C105.523 15.35 105.963 15.45 106.363 15.65C106.763 15.85 107.108 16.115 107.398 16.445C107.698 16.775 107.928 17.145 108.088 17.555C108.258 17.965 108.343 18.385 108.343 18.815C108.343 19.285 108.258 19.735 108.088 20.165C107.918 20.595 107.673 20.965 107.353 21.275C107.043 21.585 106.678 21.81 106.258 21.95L108.763 26H106.873L104.563 22.295H102.088V26H100.408ZM102.088 20.81H105.028C105.338 20.81 105.613 20.72 105.853 20.54C106.093 20.36 106.283 20.12 106.423 19.82C106.563 19.51 106.633 19.175 106.633 18.815C106.633 18.445 106.553 18.115 106.393 17.825C106.233 17.525 106.023 17.285 105.763 17.105C105.513 16.925 105.238 16.835 104.938 16.835H102.088V20.81ZM110.663 15.35L113.873 23.945L117.068 15.35H118.853L114.668 26H113.078L108.878 15.35H110.663ZM120.154 26V15.35H121.834V26H120.154ZM123.566 20.6C123.566 19.95 123.681 19.315 123.911 18.695C124.141 18.065 124.476 17.495 124.916 16.985C125.366 16.465 125.911 16.055 126.551 15.755C127.191 15.445 127.916 15.29 128.726 15.29C129.686 15.29 130.516 15.51 131.216 15.95C131.916 16.38 132.436 16.935 132.776 17.615L131.456 18.5C131.256 18.07 131.001 17.73 130.691 17.48C130.391 17.23 130.061 17.055 129.701 16.955C129.351 16.855 129.006 16.805 128.666 16.805C128.106 16.805 127.616 16.92 127.196 17.15C126.776 17.37 126.421 17.665 126.131 18.035C125.851 18.405 125.636 18.82 125.486 19.28C125.346 19.74 125.276 20.2 125.276 20.66C125.276 21.17 125.361 21.665 125.531 22.145C125.701 22.615 125.936 23.035 126.236 23.405C126.546 23.765 126.911 24.05 127.331 24.26C127.751 24.47 128.211 24.575 128.711 24.575C129.051 24.575 129.406 24.515 129.776 24.395C130.146 24.275 130.486 24.09 130.796 23.84C131.116 23.58 131.366 23.24 131.546 22.82L132.941 23.615C132.721 24.145 132.376 24.595 131.906 24.965C131.446 25.335 130.926 25.615 130.346 25.805C129.776 25.995 129.211 26.09 128.651 26.09C127.901 26.09 127.216 25.935 126.596 25.625C125.976 25.305 125.441 24.885 124.991 24.365C124.541 23.835 124.191 23.245 123.941 22.595C123.691 21.935 123.566 21.27 123.566 20.6ZM134.495 26V15.35H136.175V26H134.495ZM143.007 26.075C142.237 26.075 141.542 25.925 140.922 25.625C140.302 25.325 139.767 24.92 139.317 24.41C138.867 23.89 138.517 23.31 138.267 22.67C138.027 22.02 137.907 21.355 137.907 20.675C137.907 19.965 138.037 19.29 138.297 18.65C138.557 18 138.917 17.425 139.377 16.925C139.837 16.415 140.377 16.015 140.997 15.725C141.627 15.425 142.307 15.275 143.037 15.275C143.797 15.275 144.487 15.43 145.107 15.74C145.737 16.05 146.272 16.465 146.712 16.985C147.162 17.505 147.507 18.085 147.747 18.725C147.997 19.365 148.122 20.02 148.122 20.69C148.122 21.4 147.992 22.08 147.732 22.73C147.482 23.37 147.127 23.945 146.667 24.455C146.207 24.955 145.662 25.35 145.032 25.64C144.412 25.93 143.737 26.075 143.007 26.075ZM139.617 20.675C139.617 21.175 139.697 21.66 139.857 22.13C140.017 22.6 140.242 23.02 140.532 23.39C140.832 23.75 141.192 24.035 141.612 24.245C142.032 24.455 142.502 24.56 143.022 24.56C143.562 24.56 144.042 24.45 144.462 24.23C144.882 24.01 145.232 23.715 145.512 23.345C145.802 22.965 146.022 22.545 146.172 22.085C146.322 21.615 146.397 21.145 146.397 20.675C146.397 20.175 146.317 19.695 146.157 19.235C146.007 18.765 145.782 18.35 145.482 17.99C145.182 17.62 144.822 17.33 144.402 17.12C143.992 16.91 143.532 16.805 143.022 16.805C142.482 16.805 142.002 16.915 141.582 17.135C141.162 17.355 140.807 17.65 140.517 18.02C140.227 18.39 140.002 18.805 139.842 19.265C139.692 19.725 139.617 20.195 139.617 20.675ZM156.146 17.855C156.046 17.745 155.901 17.63 155.711 17.51C155.521 17.38 155.296 17.26 155.036 17.15C154.776 17.04 154.496 16.95 154.196 16.88C153.896 16.81 153.586 16.775 153.266 16.775C152.566 16.775 152.046 16.905 151.706 17.165C151.366 17.425 151.196 17.785 151.196 18.245C151.196 18.585 151.291 18.855 151.481 19.055C151.671 19.245 151.961 19.405 152.351 19.535C152.741 19.665 153.231 19.805 153.821 19.955C154.541 20.125 155.166 20.33 155.696 20.57C156.226 20.8 156.631 21.11 156.911 21.5C157.191 21.89 157.331 22.405 157.331 23.045C157.331 23.585 157.231 24.05 157.031 24.44C156.831 24.83 156.551 25.15 156.191 25.4C155.831 25.64 155.416 25.82 154.946 25.94C154.476 26.05 153.971 26.105 153.431 26.105C152.901 26.105 152.371 26.05 151.841 25.94C151.321 25.83 150.821 25.67 150.341 25.46C149.871 25.24 149.436 24.975 149.036 24.665L149.801 23.225C149.931 23.355 150.116 23.5 150.356 23.66C150.606 23.81 150.891 23.955 151.211 24.095C151.541 24.235 151.896 24.355 152.276 24.455C152.666 24.545 153.061 24.59 153.461 24.59C154.131 24.59 154.641 24.475 154.991 24.245C155.351 24.005 155.531 23.665 155.531 23.225C155.531 22.865 155.416 22.58 155.186 22.37C154.956 22.15 154.621 21.965 154.181 21.815C153.741 21.665 153.216 21.515 152.606 21.365C151.906 21.175 151.321 20.97 150.851 20.75C150.381 20.52 150.026 20.23 149.786 19.88C149.556 19.52 149.441 19.065 149.441 18.515C149.441 17.815 149.611 17.225 149.951 16.745C150.291 16.255 150.751 15.89 151.331 15.65C151.921 15.4 152.581 15.275 153.311 15.275C153.791 15.275 154.246 15.33 154.676 15.44C155.106 15.54 155.506 15.68 155.876 15.86C156.256 16.04 156.601 16.245 156.911 16.475L156.146 17.855Z" fill="#5B5B5B"/>
<path d="M38.0088 23.0872L38.0442 23.1225L38.0851 23.1511C38.9943 23.7876 40.538 24.6596 42.081 25.5312C42.1995 25.5981 42.318 25.6651 42.4363 25.7319C44.1228 26.6854 45.7469 27.615 46.6226 28.2718C49.1712 30.1833 51.942 29.364 53.5529 28.29C55.3985 27.0596 56.0875 25.3721 56.0875 24.3946V24.1584L55.9205 23.9914L47.938 16.0089L47.771 15.8419H47.5349H42.4036H42.269L42.1486 15.9021C40.9567 16.4981 39.1525 17.695 37.9379 19.5169C37.0096 20.9094 37.2193 22.2975 38.0088 23.0872Z" stroke="#104B86" stroke-width="1.14035"/>
<path d="M54.8265 23.9449C54.8749 23.9933 54.9474 24.0082 55.011 23.9828L57.8618 22.8424C57.9007 22.8269 57.9326 22.7976 57.9513 22.7601C58.5508 21.561 58.3544 20.5625 57.9513 19.7563C57.6601 19.1738 57.365 18.7299 56.9214 18.2864C56.4813 17.8462 55.8994 17.4109 55.0423 16.8395C55.0325 16.833 55.0219 16.8275 55.011 16.8231L49.3093 14.5424C49.2639 14.5242 49.213 14.5263 49.1693 14.5482L45.7482 16.2587C45.718 16.2738 45.693 16.2975 45.6762 16.3268C45.2919 16.9994 44.7988 18.0416 44.575 18.9806C44.4635 19.4484 44.4144 19.9081 44.4918 20.2891C44.5712 20.6801 44.7878 20.9978 45.2005 21.1354C45.5824 21.2627 45.9285 21.235 46.2316 21.0988C46.5301 20.9647 46.7759 20.7306 46.9744 20.4618C47.3443 19.9608 47.574 19.3067 47.6822 18.8237L49.1996 18.3179L54.8265 23.9449Z" fill="#104B86" stroke="white" stroke-width="0.342105" stroke-linejoin="round"/>
<path d="M45.0538 25.3606C46.1183 26.0506 46.9506 26.8629 47.4383 27.6119C47.6824 27.9866 47.8357 28.3385 47.8933 28.6459C47.9507 28.9522 47.9118 29.204 47.7864 29.3974C47.6611 29.5908 47.4471 29.7291 47.1441 29.8017C46.8399 29.8747 46.4561 29.8784 46.0144 29.8087C45.1316 29.6692 44.0502 29.2412 42.9857 28.5512C41.9212 27.8612 41.0889 27.0488 40.6012 26.2999C40.3571 25.9252 40.2038 25.5733 40.1462 25.2658C40.0888 24.9595 40.1277 24.7078 40.253 24.5144C40.3784 24.3209 40.5924 24.1827 40.8954 24.11C41.1996 24.0371 41.5834 24.0333 42.0251 24.1031C42.9079 24.2425 43.9893 24.6706 45.0538 25.3606Z" fill="#104B86" stroke="white" stroke-width="0.342105"/>
<path d="M58.9387 19.2632C58.0264 17.4386 54.3773 15.2719 53.8071 14.7018L63.5001 9V23.2544C60.8393 23.8246 56.4299 24.8509 57.7984 24.3947C59.5089 23.8246 60.0791 21.5439 58.9387 19.2632Z" fill="#104B86"/>
<path d="M35.5613 19.2632C36.4736 17.4386 40.1227 15.2719 40.6929 14.7018L30.9999 9V23.2544C33.6607 23.8246 38.0701 24.8509 36.7016 24.3947C34.9911 23.8246 34.4209 21.5439 35.5613 19.2632Z" fill="#E81D2C"/>
<path d="M51.5264 28.9562L47.5352 25.5352" stroke="#104B86" stroke-width="0.570175" stroke-linecap="round"/>
<path d="M53.8069 27.815L46.9648 22.1133" stroke="#104B86" stroke-width="0.570175" stroke-linecap="round"/>
<path d="M55.5176 26.1046L51.5264 22.6836" stroke="#104B86" stroke-width="0.570175" stroke-linecap="round"/>
</svg>
