<svg width="299" height="41" viewBox="0 0 299 41" fill="none" xmlns="http://www.w3.org/2000/svg">
<rect width="299" height="41" fill="white"/>
<path d="M81.2 26V15.35H85.67C86.15 15.35 86.59 15.45 86.99 15.65C87.4 15.85 87.75 16.115 88.04 16.445C88.33 16.765 88.555 17.135 88.715 17.555C88.885 17.965 88.97 18.385 88.97 18.815C88.97 19.265 88.89 19.7 88.73 20.12C88.58 20.53 88.365 20.9 88.085 21.23C87.805 21.55 87.465 21.81 87.065 22.01C86.675 22.2 86.24 22.295 85.76 22.295H82.88V26H81.2ZM82.88 20.81H85.655C85.895 20.81 86.11 20.76 86.3 20.66C86.5 20.56 86.67 20.42 86.81 20.24C86.95 20.06 87.06 19.85 87.14 19.61C87.22 19.37 87.26 19.105 87.26 18.815C87.26 18.515 87.215 18.245 87.125 18.005C87.035 17.765 86.91 17.56 86.75 17.39C86.59 17.21 86.405 17.075 86.195 16.985C85.995 16.885 85.785 16.835 85.565 16.835H82.88V20.81ZM90.5457 26V15.35H95.1807C95.6607 15.35 96.1007 15.45 96.5007 15.65C96.9107 15.85 97.2607 16.115 97.5507 16.445C97.8407 16.765 98.0657 17.135 98.2257 17.555C98.3957 17.965 98.4807 18.385 98.4807 18.815C98.4807 19.175 98.4307 19.52 98.3307 19.85C98.2307 20.18 98.0907 20.485 97.9107 20.765C97.7307 21.045 97.5107 21.29 97.2507 21.5C96.9907 21.7 96.7057 21.85 96.3957 21.95L98.9007 26H96.9957L94.6857 22.295H92.2257V26H90.5457ZM92.2257 20.81H95.1657C95.4057 20.81 95.6207 20.76 95.8107 20.66C96.0107 20.55 96.1807 20.405 96.3207 20.225C96.4607 20.035 96.5707 19.82 96.6507 19.58C96.7307 19.34 96.7707 19.085 96.7707 18.815C96.7707 18.545 96.7207 18.29 96.6207 18.05C96.5307 17.81 96.4057 17.6 96.2457 17.42C96.0957 17.24 95.9157 17.1 95.7057 17C95.5057 16.89 95.2957 16.835 95.0757 16.835H92.2257V20.81ZM107.768 24.515V26H100.463V15.35H107.633V16.835H102.143V19.865H106.898V21.26H102.143V24.515H107.768ZM110.176 15.35L113.386 23.885L116.581 15.35H118.366L114.106 26H112.666L108.391 15.35H110.176ZM126.972 24.515V26H119.667V15.35H126.837V16.835H121.347V19.865H126.102V21.26H121.347V24.515H126.972ZM130.385 18.5V26H128.705V15.35H130.025L136.115 23.03V15.365H137.81V26H136.415L130.385 18.5ZM148.019 16.835H144.479V26H142.784V16.835H139.229V15.35H148.019V16.835ZM151.527 15.35H152.997L157.197 26H155.427L154.302 23.105H150.192L149.082 26H147.297L151.527 15.35ZM153.972 21.86L152.262 17.285L150.492 21.86H153.972Z" fill="#5B5B5B"/>
<path d="M38.9815 15.666L61.7315 18.3743L56.8566 25.9577L47.648 30.291L35.5509 28.666C35.5509 28.666 33.565 28.666 32.4815 27.041C31.3981 25.416 32.4816 24.3327 32.4816 24.3327L38.9815 15.666Z" fill="#104B86" stroke="#104B86" stroke-width="0.325"/>
<path d="M42.347 20.2246L38.9814 25.4599" stroke="white" stroke-width="0.65" stroke-linecap="round"/>
<path d="M44.6926 22.0625L43.2988 24.2382" stroke="white" stroke-width="0.65" stroke-linecap="round"/>
<path d="M48.4659 18.9011L39.5252 20.6689" stroke="white" stroke-width="0.65" stroke-linecap="round"/>
<path d="M55.0234 10.6895L52.5248 19.0036" stroke="#E81D2C" stroke-width="0.866667" stroke-linecap="round"/>
<path d="M55.583 10.6895L58.0816 19.0036" stroke="#E81D2C" stroke-width="0.866667" stroke-linecap="round"/>
<path d="M52.5903 14.1458L57.987 14.1459" stroke="#E81D2C" stroke-width="0.866667" stroke-linecap="round"/>
<path d="M55.2571 7L55.2571 8.10404" stroke="#E81D2C" stroke-width="0.866667" stroke-linecap="round"/>
<path d="M53.1573 21.7207L49.7917 26.956" stroke="white" stroke-width="0.65" stroke-linecap="round"/>
<path d="M55.2314 22.6066L48.4663 18.867" stroke="white" stroke-width="0.65" stroke-linecap="round"/>
<path d="M49.1799 22.6758L47.7861 24.8515" stroke="white" stroke-width="0.65" stroke-linecap="round"/>
<path d="M46.8887 31.9143L54.6897 33.0007L59.023 25.959L46.8887 31.9143Z" fill="#E81D2C"/>
<path d="M51.9814 30.4984L54.7673 30.8327L56.3148 28.666L51.9814 30.4984Z" fill="white"/>
<path d="M49.7919 26.9555L39.0154 25.5957" stroke="white" stroke-width="0.65" stroke-linecap="round"/>
<path d="M47.7862 24.8494L43.2988 24.2715" stroke="white" stroke-width="0.65" stroke-linecap="round"/>
<mask id="path-17-inside-1_941_23752" fill="white">
<path d="M56.2431 8.22146C56.906 8.76017 57.0066 9.73424 56.4679 10.3971C55.9292 11.06 54.9551 11.1606 54.2923 10.6219C53.6294 10.0832 53.5288 9.10913 54.0675 8.44626C54.6062 7.7834 55.5802 7.68275 56.2431 8.22146ZM54.7547 10.0529C55.1033 10.3362 55.6156 10.2833 55.8989 9.93467C56.1822 9.58606 56.1293 9.07379 55.7807 8.79047C55.4321 8.50716 54.9198 8.56009 54.6365 8.9087C54.3532 9.25731 54.4061 9.76958 54.7547 10.0529Z"/>
</mask>
<path d="M56.2431 8.22146C56.906 8.76017 57.0066 9.73424 56.4679 10.3971C55.9292 11.06 54.9551 11.1606 54.2923 10.6219C53.6294 10.0832 53.5288 9.10913 54.0675 8.44626C54.6062 7.7834 55.5802 7.68275 56.2431 8.22146ZM54.7547 10.0529C55.1033 10.3362 55.6156 10.2833 55.8989 9.93467C56.1822 9.58606 56.1293 9.07379 55.7807 8.79047C55.4321 8.50716 54.9198 8.56009 54.6365 8.9087C54.3532 9.25731 54.4061 9.76958 54.7547 10.0529Z" fill="#E81D2C" stroke="#E81D2C" stroke-width="0.290537" mask="url(#path-17-inside-1_941_23752)"/>
<path d="M40.4952 12.1463C40.4952 12.1463 41.0369 11.063 42.1202 11.063C43.2036 11.063 43.6649 11.7972 43.6649 11.7972L36.1618 24.0625C36.1618 24.0625 35.6202 23.5208 34.5368 23.5208C33.4535 23.5208 32.4813 24.6655 32.4813 24.6655L40.4952 12.1463Z" fill="white" stroke="#104B86" stroke-width="0.758333" stroke-linejoin="round"/>
</svg>
