<svg width="116" height="50" viewBox="0 0 116 50" fill="none" xmlns="http://www.w3.org/2000/svg">
<path d="M13.9336 41V31.77H17.9506C18.3666 31.77 18.7479 31.8567 19.0946 32.03C19.4412 32.2033 19.7402 32.433 19.9916 32.719C20.2516 33.005 20.4509 33.3257 20.5896 33.681C20.7369 34.0363 20.8106 34.4003 20.8106 34.773C20.8106 35.1803 20.7369 35.5703 20.5896 35.943C20.4422 36.3157 20.2299 36.6363 19.9526 36.905C19.6839 37.1737 19.3676 37.3687 19.0036 37.49L21.1746 41H19.5366L17.5346 37.789H15.3896V41H13.9336ZM15.3896 36.502H17.9376C18.2062 36.502 18.4446 36.424 18.6526 36.268C18.8606 36.112 19.0252 35.904 19.1466 35.644C19.2679 35.3753 19.3286 35.085 19.3286 34.773C19.3286 34.4523 19.2592 34.1663 19.1206 33.915C18.9819 33.655 18.7999 33.447 18.5746 33.291C18.3579 33.135 18.1196 33.057 17.8596 33.057H15.3896V36.502ZM28.8593 39.713V41H22.5283V31.77H28.7423V33.057H23.9843V35.683H28.1053V36.892H23.9843V39.713H28.8593ZM33.9663 41.065C33.3596 41.065 32.7919 40.9393 32.2633 40.688C31.7346 40.4367 31.2709 40.09 30.8722 39.648C30.4823 39.206 30.1746 38.7033 29.9493 38.14C29.7326 37.5767 29.6243 36.9787 29.6243 36.346C29.6243 35.7133 29.7326 35.1197 29.9493 34.565C30.1746 34.0103 30.4823 33.5163 30.8722 33.083C31.2709 32.6497 31.7346 32.3117 32.2633 32.069C32.8006 31.8263 33.3856 31.705 34.0183 31.705C34.8936 31.705 35.6303 31.8913 36.2283 32.264C36.8349 32.628 37.2899 33.1133 37.5933 33.72L36.4753 34.526C36.2326 34.0233 35.8859 33.6463 35.4353 33.395C34.9933 33.1437 34.5079 33.018 33.9793 33.018C33.5459 33.018 33.1516 33.109 32.7963 33.291C32.4409 33.473 32.1333 33.7243 31.8733 34.045C31.6219 34.357 31.4313 34.7167 31.3013 35.124C31.1713 35.5227 31.1063 35.943 31.1063 36.385C31.1063 36.853 31.1799 37.2907 31.3273 37.698C31.4746 38.1053 31.6826 38.465 31.9513 38.777C32.2199 39.0803 32.5363 39.3187 32.9003 39.492C33.2643 39.6653 33.6586 39.752 34.0833 39.752C34.5859 39.752 35.0626 39.6263 35.5133 39.375C35.9726 39.115 36.4016 38.7293 36.8002 38.218V39.7C35.9943 40.61 35.0496 41.065 33.9663 41.065ZM36.6573 37.412H34.7203V36.333H37.8793V41H36.6573V37.412ZM39.54 41V31.77H40.996V41H39.54ZM48.542 33.941C48.4553 33.8457 48.3297 33.746 48.165 33.642C48.0003 33.5293 47.8053 33.4253 47.58 33.33C47.3547 33.2347 47.112 33.1567 46.852 33.096C46.592 33.0353 46.3233 33.005 46.046 33.005C45.4393 33.005 44.9887 33.1177 44.694 33.343C44.3993 33.5683 44.252 33.8803 44.252 34.279C44.252 34.5737 44.3343 34.8077 44.499 34.981C44.6637 35.1457 44.915 35.2843 45.253 35.397C45.591 35.5097 46.0157 35.631 46.527 35.761C47.151 35.9083 47.6927 36.086 48.152 36.294C48.6113 36.4933 48.9623 36.762 49.205 37.1C49.4477 37.438 49.569 37.8843 49.569 38.439C49.569 38.907 49.4823 39.31 49.309 39.648C49.1357 39.986 48.893 40.2633 48.581 40.48C48.269 40.688 47.9093 40.844 47.502 40.948C47.0947 41.0433 46.657 41.091 46.189 41.091C45.7297 41.091 45.2703 41.0433 44.811 40.948C44.3603 40.8527 43.927 40.714 43.511 40.532C43.1037 40.3413 42.7267 40.1117 42.38 39.843L43.043 38.595C43.1557 38.7077 43.316 38.8333 43.524 38.972C43.7407 39.102 43.9877 39.2277 44.265 39.349C44.551 39.4703 44.8587 39.5743 45.188 39.661C45.526 39.739 45.8683 39.778 46.215 39.778C46.7957 39.778 47.2377 39.6783 47.541 39.479C47.853 39.271 48.009 38.9763 48.009 38.595C48.009 38.283 47.9093 38.036 47.71 37.854C47.5107 37.6633 47.2203 37.503 46.839 37.373C46.4577 37.243 46.0027 37.113 45.474 36.983C44.8673 36.8183 44.3603 36.6407 43.953 36.45C43.5457 36.2507 43.238 35.9993 43.03 35.696C42.8307 35.384 42.731 34.9897 42.731 34.513C42.731 33.9063 42.8783 33.395 43.173 32.979C43.4677 32.5543 43.8663 32.238 44.369 32.03C44.8803 31.8133 45.4523 31.705 46.085 31.705C46.501 31.705 46.8953 31.7527 47.268 31.848C47.6407 31.9347 47.9873 32.056 48.308 32.212C48.6373 32.368 48.9363 32.5457 49.205 32.745L48.542 33.941ZM57.8023 33.057H54.7343V41H53.2653V33.057H50.1843V31.77H57.8023V33.057ZM59.04 41V31.77H63.057C63.473 31.77 63.8543 31.8567 64.201 32.03C64.5477 32.2033 64.8467 32.433 65.098 32.719C65.358 33.005 65.5573 33.3257 65.696 33.681C65.8433 34.0363 65.917 34.4003 65.917 34.773C65.917 35.1803 65.8433 35.5703 65.696 35.943C65.5487 36.3157 65.3363 36.6363 65.059 36.905C64.7903 37.1737 64.474 37.3687 64.11 37.49L66.281 41H64.643L62.641 37.789H60.496V41H59.04ZM60.496 36.502H63.044C63.3127 36.502 63.551 36.424 63.759 36.268C63.967 36.112 64.1317 35.904 64.253 35.644C64.3743 35.3753 64.435 35.085 64.435 34.773C64.435 34.4523 64.3657 34.1663 64.227 33.915C64.0883 33.655 63.9063 33.447 63.681 33.291C63.4643 33.135 63.226 33.057 62.966 33.057H60.496V36.502ZM70.2997 31.77H71.6777L75.2657 41H73.7317L72.7567 38.491H69.1947L68.2327 41H66.6857L70.2997 31.77ZM72.4707 37.412L70.9887 33.369L69.4547 37.412H72.4707ZM76.4072 41V31.77H80.4242C80.8402 31.77 81.2215 31.8567 81.5682 32.03C81.9149 32.2033 82.2139 32.433 82.4652 32.719C82.7252 33.005 82.9245 33.3257 83.0632 33.681C83.2105 34.0363 83.2842 34.4003 83.2842 34.773C83.2842 35.1803 83.2105 35.5703 83.0632 35.943C82.9159 36.3157 82.7035 36.6363 82.4262 36.905C82.1575 37.1737 81.8412 37.3687 81.4772 37.49L83.6482 41H82.0102L80.0082 37.789H77.8632V41H76.4072ZM77.8632 36.502H80.4112C80.6799 36.502 80.9182 36.424 81.1262 36.268C81.3342 36.112 81.4989 35.904 81.6202 35.644C81.7415 35.3753 81.8022 35.085 81.8022 34.773C81.8022 34.4523 81.7329 34.1663 81.5942 33.915C81.4555 33.655 81.2735 33.447 81.0482 33.291C80.8315 33.135 80.5932 33.057 80.3332 33.057H77.8632V36.502ZM92.7629 41V34.422L90.0459 39.414H89.1879L86.4579 34.422V41H85.0019V31.77H86.5619L89.6169 37.412L92.6719 31.77H94.2319V41H92.7629ZM102.644 39.713V41H96.3134V31.77H102.527V33.057H97.7694V35.683H101.89V36.892H97.7694V39.713H102.644Z" fill="#545454"/>
<path d="M51.4648 5.85074C51.4648 8.61567 53.5506 10.7015 56.3156 10.7015C59.0805 10.7015 61.1663 8.61567 61.1663 5.85074C61.1663 3.08582 59.0805 1 56.3156 1C53.5506 1 51.4648 3.08582 51.4648 5.85074ZM50.7719 20.3309H64.6311V18.945C64.6311 15.124 61.5225 12.0153 57.7015 12.0153H54.9296C51.1086 12.0153 48 15.124 48 18.945V20.3309H50.7719Z" fill="#104B86"/>
<mask id="path-3-outside-1_1791_39634" maskUnits="userSpaceOnUse" x="58.0874" y="12.1963" width="11" height="11" fill="black">
<rect fill="white" x="58.0874" y="12.1963" width="11" height="11"/>
<path d="M66.4011 13.2325C64.4025 12.8714 63.5222 15.3316 63.5222 15.3316C63.5222 15.3316 62.8163 12.9079 60.8177 13.269C58.4411 13.6937 57.8159 17.4808 63.5222 21.3924C69.2258 17.4808 68.7778 13.6612 66.4038 13.2325"/>
</mask>
<path d="M66.4011 13.2325C64.4025 12.8714 63.5222 15.3316 63.5222 15.3316C63.5222 15.3316 62.8163 12.9079 60.8177 13.269C58.4411 13.6937 57.8159 17.4808 63.5222 21.3924C69.2258 17.4808 68.7778 13.6612 66.4038 13.2325" fill="#E81D2C"/>
<path d="M63.5222 15.3316L62.8835 15.5176L63.4572 17.4878L64.1485 15.5558L63.5222 15.3316ZM60.8177 13.269L60.9347 13.9239L60.936 13.9236L60.8177 13.269ZM63.5222 21.3924L63.146 21.9411L63.5223 22.199L63.8984 21.941L63.5222 21.3924ZM66.5194 12.5778C65.1841 12.3366 64.2448 13.0613 63.6989 13.7234C63.4237 14.0572 63.2258 14.3986 63.0973 14.6527C63.0324 14.7809 62.9838 14.89 62.9506 14.9689C62.934 15.0084 62.9212 15.0406 62.9121 15.0641C62.9075 15.0759 62.9039 15.0855 62.9012 15.0928C62.8999 15.0964 62.8987 15.0995 62.8978 15.1019C62.8974 15.1032 62.897 15.1043 62.8967 15.1052C62.8965 15.1056 62.8963 15.1061 62.8962 15.1065C62.8961 15.1067 62.896 15.1069 62.896 15.107C62.8959 15.1073 62.8958 15.1075 63.5222 15.3316C64.1485 15.5558 64.1484 15.556 64.1484 15.5562C64.1483 15.5563 64.1483 15.5565 64.1482 15.5566C64.1481 15.5568 64.1481 15.557 64.148 15.5572C64.1479 15.5575 64.1478 15.5577 64.1478 15.5578C64.1478 15.5579 64.1479 15.5574 64.1483 15.5564C64.149 15.5544 64.1506 15.5503 64.153 15.5441C64.1578 15.5317 64.1658 15.5114 64.1772 15.4844C64.2 15.4301 64.2357 15.3498 64.2846 15.253C64.3837 15.0571 64.5307 14.806 64.7254 14.5698C65.1193 14.0921 65.6195 13.7673 66.2828 13.8871L66.5194 12.5778ZM63.5222 15.3316C64.1609 15.1456 64.1608 15.1454 64.1607 15.1451C64.1607 15.145 64.1606 15.1447 64.1606 15.1445C64.1604 15.1441 64.1603 15.1437 64.1602 15.1432C64.1599 15.1422 64.1595 15.1411 64.1592 15.1398C64.1584 15.1373 64.1575 15.1342 64.1563 15.1305C64.1541 15.1231 64.1511 15.1134 64.1473 15.1016C64.1397 15.078 64.129 15.0458 64.1151 15.0063C64.0872 14.9275 64.0459 14.8187 63.9897 14.6909C63.8784 14.4378 63.7032 14.0966 63.449 13.7623C62.9387 13.0909 62.038 12.3725 60.6994 12.6144L60.936 13.9236C61.596 13.8044 62.0476 14.1173 62.3898 14.5675C62.562 14.794 62.6881 15.0361 62.7716 15.2263C62.8129 15.32 62.8423 15.3978 62.8608 15.4501C62.87 15.4762 62.8765 15.4957 62.8802 15.5074C62.8821 15.5133 62.8833 15.5172 62.8838 15.5189C62.8841 15.5198 62.8842 15.5201 62.8841 15.5199C62.8841 15.5198 62.884 15.5196 62.8839 15.5192C62.8839 15.519 62.8838 15.5188 62.8837 15.5185C62.8837 15.5184 62.8836 15.5182 62.8836 15.5181C62.8835 15.5179 62.8835 15.5176 63.5222 15.3316ZM60.7007 12.6141C59.9363 12.7507 59.2847 13.1665 58.8744 13.8095C58.4661 14.4493 58.3302 15.2596 58.4835 16.1375C58.7872 17.8774 60.2222 19.9369 63.146 21.9411L63.8983 20.8437C61.1158 18.9364 60.0102 17.1465 59.7942 15.9087C59.6875 15.2979 59.7969 14.8372 59.996 14.5252C60.193 14.2165 60.5109 13.9996 60.9347 13.9239L60.7007 12.6141ZM63.8984 21.941C66.8199 19.9375 68.2912 17.8758 68.644 16.1388C68.8219 15.2631 68.7168 14.447 68.3281 13.7969C67.9356 13.1405 67.2904 12.7166 66.522 12.5778L66.2855 13.8871C66.7041 13.9627 67.0052 14.177 67.1862 14.4797C67.3709 14.7886 67.4664 15.2523 67.3402 15.874C67.0846 17.1318 65.9282 18.9357 63.1459 20.8438L63.8984 21.941Z" fill="white" mask="url(#path-3-outside-1_1791_39634)"/>
<line x1="23.75" y1="46.25" x2="91.25" y2="46.25" stroke="#104B86" stroke-width="1.5" stroke-linecap="round"/>
</svg>
