<svg width="100" height="50" viewBox="0 0 100 50" fill="none" xmlns="http://www.w3.org/2000/svg">
<path d="M40.8438 39.7501C40.8438 40.1026 40.7701 40.4181 40.6225 40.6968C40.4832 40.9755 40.2906 41.2132 40.0447 41.4099C39.807 41.5984 39.5242 41.7459 39.1964 41.8525C38.8685 41.9508 38.5202 42 38.1514 42H33.9836V33.271H38.4833C38.7866 33.271 39.0612 33.3365 39.307 33.4677C39.5529 33.5988 39.7619 33.7709 39.9341 33.984C40.1062 34.1889 40.2373 34.4266 40.3275 34.6971C40.4258 34.9594 40.475 35.2258 40.475 35.4962C40.475 35.9225 40.3644 36.3241 40.1431 36.7011C39.93 37.0699 39.6226 37.3445 39.221 37.5248C39.721 37.6724 40.1144 37.9428 40.4012 38.3363C40.6963 38.7215 40.8438 39.1928 40.8438 39.7501ZM39.43 39.4919C39.43 39.3116 39.3972 39.1395 39.3316 38.9756C39.2743 38.8116 39.1923 38.6682 39.0857 38.5453C38.9874 38.4223 38.8644 38.324 38.7169 38.2502C38.5694 38.1764 38.4095 38.1395 38.2374 38.1395H35.3605V40.8074H38.1514C38.3317 40.8074 38.4997 40.7747 38.6554 40.7091C38.8112 40.6353 38.9464 40.5411 39.0612 40.4263C39.1759 40.3034 39.2661 40.164 39.3316 40.0083C39.3972 39.8444 39.43 39.6723 39.43 39.4919ZM35.3605 34.4635V37.0331H37.8932C38.0653 37.0331 38.221 37.0003 38.3604 36.9347C38.5079 36.8691 38.6349 36.7831 38.7415 36.6765C38.8562 36.5618 38.9423 36.4265 38.9997 36.2708C39.0653 36.1151 39.098 35.9429 39.098 35.7544C39.098 35.3774 38.9915 35.07 38.7784 34.8323C38.5653 34.5865 38.2948 34.4635 37.9669 34.4635H35.3605ZM42.2799 42V33.271H43.6569V40.7829H48.341V42H42.2799ZM52.5342 42.0615C51.9113 42.0615 51.3417 41.9385 50.8253 41.6926C50.3171 41.4386 49.8786 41.1066 49.5098 40.6968C49.141 40.2788 48.8541 39.8034 48.6492 39.2706C48.4525 38.7379 48.3541 38.1928 48.3541 37.6355C48.3541 37.0535 48.4607 36.4962 48.6738 35.9634C48.8869 35.4307 49.1778 34.9594 49.5467 34.5496C49.9237 34.1398 50.3663 33.816 50.8745 33.5783C51.3908 33.3324 51.9523 33.2095 52.5588 33.2095C53.1817 33.2095 53.7473 33.3406 54.2554 33.6029C54.7718 33.857 55.2103 34.193 55.5709 34.611C55.9398 35.0291 56.2225 35.5044 56.4193 36.0372C56.6242 36.5618 56.7266 37.0986 56.7266 37.6478C56.7266 38.2297 56.6201 38.7871 56.407 39.3198C56.2021 39.8526 55.9111 40.3239 55.5341 40.7337C55.157 41.1353 54.7103 41.459 54.194 41.7049C53.6858 41.9426 53.1325 42.0615 52.5342 42.0615ZM49.7557 37.6355C49.7557 38.0453 49.8212 38.4428 49.9524 38.828C50.0835 39.2133 50.2679 39.5534 50.5056 39.8485C50.7515 40.1435 51.0466 40.3812 51.3908 40.5616C51.7351 40.7337 52.1203 40.8197 52.5465 40.8197C52.9891 40.8197 53.3784 40.7296 53.7145 40.5493C54.0587 40.3607 54.3497 40.1149 54.5874 39.8116C54.8251 39.5083 55.0054 39.1682 55.1283 38.7912C55.2513 38.4141 55.3128 38.0289 55.3128 37.6355C55.3128 37.2175 55.2472 36.8199 55.116 36.4429C54.9849 36.0577 54.7964 35.7216 54.5505 35.4348C54.3128 35.1397 54.0218 34.9061 53.6776 34.734C53.3416 34.5537 52.9645 34.4635 52.5465 34.4635C52.1039 34.4635 51.7105 34.5578 51.3662 34.7463C51.022 34.9266 50.731 35.1643 50.4933 35.4594C50.2556 35.7544 50.0712 36.0946 49.9401 36.4798C49.8171 36.8568 49.7557 37.2421 49.7557 37.6355ZM64.2625 40.9181C63.5249 41.6803 62.6765 42.0615 61.7176 42.0615C61.1356 42.0615 60.5947 41.9426 60.0947 41.7049C59.5947 41.459 59.1603 41.1312 58.7915 40.7214C58.4227 40.3116 58.1317 39.8362 57.9186 39.2952C57.7137 38.7543 57.6112 38.1887 57.6112 37.5986C57.6112 37.0085 57.7137 36.447 57.9186 35.9143C58.1317 35.3815 58.4227 34.9143 58.7915 34.5127C59.1603 34.1111 59.5988 33.7955 60.107 33.566C60.6152 33.3283 61.1684 33.2095 61.7668 33.2095C62.6028 33.2095 63.3036 33.3857 63.8691 33.7381C64.4346 34.0824 64.8609 34.5414 65.1477 35.1151L64.0904 35.8774C63.8527 35.402 63.5249 35.0455 63.1068 34.8078C62.6888 34.5701 62.2298 34.4512 61.7299 34.4512C61.3201 34.4512 60.9471 34.5414 60.6111 34.7217C60.275 34.8938 59.9882 35.1274 59.7505 35.4225C59.5128 35.7093 59.3284 36.0454 59.1972 36.4306C59.0743 36.8158 59.0128 37.2175 59.0128 37.6355C59.0128 38.0781 59.0825 38.492 59.2218 38.8772C59.3693 39.2624 59.5661 39.5985 59.8119 39.8854C60.066 40.1722 60.3652 40.4017 60.7094 40.5738C61.0537 40.7378 61.4266 40.8197 61.8282 40.8197C62.2708 40.8197 62.6929 40.7173 63.0946 40.5124C63.5044 40.3075 63.8937 39.9837 64.2625 39.5411V38.6067H62.4307V37.5863H65.4182V42H64.2625V40.9181Z" fill="#5B5B5B"/>
<path d="M41 5.19557C41 4.53528 41.5353 4 42.1956 4H55.3469C56.0072 4 56.5425 4.53528 56.5425 5.19558V20.7381C56.5425 21.3984 56.0072 21.9336 55.3469 21.9336H42.1956C41.5353 21.9336 41 21.3983 41 20.7381V5.19557Z" fill="white"/>
<path d="M42.1956 4.59779H55.3469V3.40221H42.1956V4.59779ZM55.9447 5.19558V20.7381H57.1403V5.19558H55.9447ZM55.3469 21.3358H42.1956V22.5314H55.3469V21.3358ZM41.5978 20.7381V5.19557H40.4022V20.7381H41.5978ZM42.1956 21.3358C41.8654 21.3358 41.5978 21.0682 41.5978 20.7381H40.4022C40.4022 21.7285 41.2051 22.5314 42.1956 22.5314V21.3358ZM55.9447 20.7381C55.9447 21.0682 55.6771 21.3358 55.3469 21.3358V22.5314C56.3373 22.5314 57.1403 21.7285 57.1403 20.7381H55.9447ZM55.3469 4.59779C55.6771 4.59779 55.9447 4.86543 55.9447 5.19558H57.1403C57.1403 4.20513 56.3374 3.40221 55.3469 3.40221V4.59779ZM42.1956 3.40221C41.2051 3.40221 40.4022 4.20513 40.4022 5.19557H41.5978C41.5978 4.86543 41.8654 4.59779 42.1956 4.59779V3.40221Z" fill="#104B86"/>
<path d="M43.3911 8.18568C43.3911 7.85553 43.6588 7.58789 43.9889 7.58789H53.5535C53.8837 7.58789 54.1513 7.85553 54.1513 8.18568C54.1513 8.51583 53.8837 8.78347 53.5535 8.78347H43.9889C43.6588 8.78347 43.3911 8.51583 43.3911 8.18568Z" fill="#104B86"/>
<path d="M43.3911 10.5744C43.3911 10.2442 43.6588 9.97656 43.9889 9.97656H53.5535C53.8837 9.97656 54.1513 10.2442 54.1513 10.5744C54.1513 10.9045 53.8837 11.1721 53.5535 11.1721H43.9889C43.6588 11.1721 43.3911 10.9045 43.3911 10.5744Z" fill="#104B86"/>
<path d="M43.3911 12.9679C43.3911 12.6378 43.6588 12.3701 43.9889 12.3701H53.5535C53.8837 12.3701 54.1513 12.6378 54.1513 12.9679C54.1513 13.2981 53.8837 13.5657 53.5535 13.5657H43.9889C43.6588 13.5657 43.3911 13.2981 43.3911 12.9679Z" fill="#104B86"/>
<path d="M43.3911 15.3585C43.3911 15.0284 43.6588 14.7607 43.9889 14.7607H53.5535C53.8837 14.7607 54.1513 15.0284 54.1513 15.3585C54.1513 15.6887 53.8837 15.9563 53.5535 15.9563H43.9889C43.6588 15.9563 43.3911 15.6887 43.3911 15.3585Z" fill="#104B86"/>
<path d="M43.3911 17.7472C43.3911 17.4171 43.6588 17.1494 43.9889 17.1494H53.5535C53.8837 17.1494 54.1513 17.4171 54.1513 17.7472C54.1513 18.0774 53.8837 18.345 53.5535 18.345H43.9889C43.6588 18.345 43.3911 18.0774 43.3911 17.7472Z" fill="#104B86"/>
<path d="M57.9511 8.56841L57.9508 8.56822L56.099 8.99198L55.423 10.0676C55.3639 10.1616 55.3446 10.2753 55.3693 10.3835C55.394 10.4917 55.4607 10.5857 55.5548 10.6447L58.8351 12.7038C59.0307 12.8266 59.2889 12.7676 59.4118 12.5721L60.0875 11.4972L60.0878 11.4968C60.4815 10.8687 60.2939 10.0406 59.6652 9.64579C59.6652 9.64579 59.6652 9.64579 59.6652 9.64578C59.6651 9.64574 59.665 9.64569 59.6649 9.64565L57.9511 8.56841ZM49.6813 19.9084C49.7003 19.9235 49.7203 19.9368 49.741 19.9481L52.9992 21.9945C53.195 22.1174 53.4532 22.0584 53.5762 21.8627L58.9205 13.354C58.9796 13.26 58.9989 13.1464 58.9741 13.0382C58.9494 12.93 58.8827 12.8361 58.7887 12.7771L55.5085 10.717C55.4145 10.658 55.3009 10.6387 55.1927 10.6634C55.0845 10.6882 54.9906 10.7549 54.9315 10.8488L49.5877 19.3585C49.4744 19.5389 49.5147 19.7756 49.6813 19.9084ZM48.951 24.1167C48.9454 24.2661 49.02 24.4071 49.1466 24.4866C49.2732 24.5661 49.4327 24.572 49.5648 24.5021L51.2766 23.5966L51.2769 23.5965L52.8671 22.7568C52.9993 22.687 53.0842 22.5519 53.0899 22.4025C53.0955 22.2531 53.021 22.112 52.8943 22.0324L49.7296 20.0438C49.6029 19.9642 49.4434 19.9583 49.3112 20.0282C49.179 20.0982 49.0942 20.2333 49.0887 20.3828L49.0229 22.1818L49.0229 22.182L48.951 24.1167Z" fill="#E81D2C" stroke="white" stroke-width="0.836903" stroke-linejoin="round"/>
<line x1="15.75" y1="46.25" x2="83.25" y2="46.25" stroke="#104B86" stroke-width="1.5" stroke-linecap="round"/>
</svg>
