<svg width="18" height="12" viewBox="0 0 18 12" fill="none" xmlns="http://www.w3.org/2000/svg">
<path d="M2.15085 3.01118C2.15085 4.72756 3.44566 6.02237 5.16203 6.02237C6.87841 6.02237 8.17321 4.72756 8.17321 3.01118C8.17321 1.29481 6.87841 0 5.16203 0C3.44566 0 2.15085 1.29481 2.15085 3.01118ZM14.6258 2.53628H12.9051V5.11729H10.3241V6.83797H12.9051V9.41898H14.6258V6.83797H17.2068V5.11729H14.6258V2.53628ZM1.72068 12H10.3241V11.1397C10.3241 8.76771 8.39432 6.83797 6.02237 6.83797H4.30169C1.92974 6.83797 0 8.76771 0 11.1397V12H1.72068Z" fill="#104B86"/>
</svg>
