<svg width="44" height="44" viewBox="0 0 44 44" fill="none" xmlns="http://www.w3.org/2000/svg">
<path fill-rule="evenodd" clip-rule="evenodd" d="M21.7723 43.4952C33.6915 43.4952 43.3539 33.8328 43.3539 21.9136C43.3539 9.99444 33.6915 0.332031 21.7723 0.332031C9.85309 0.332031 0.190674 9.99444 0.190674 21.9136C0.190674 33.8328 9.85309 43.4952 21.7723 43.4952ZM21.7727 7.53003C17.8645 7.53003 17.3753 7.54572 15.8411 7.61636C14.3107 7.68699 13.2631 7.93027 12.3475 8.28473C11.388 8.64631 10.519 9.21274 9.80084 9.94455C9.06853 10.663 8.50166 11.5325 8.13971 12.4925C7.78525 13.4081 7.54066 14.4545 7.47134 15.9874C7.40201 17.5203 7.38501 18.0095 7.38501 21.9178C7.38501 25.8247 7.40071 26.3139 7.47134 27.8507C7.54197 29.3811 7.78525 30.4275 8.13971 31.343C8.50112 32.3029 9.06756 33.1725 9.79953 33.891C10.5187 34.6225 11.3886 35.1884 12.3488 35.5495C13.2644 35.9053 14.3107 36.1498 15.8411 36.2192C17.3753 36.2885 17.8645 36.3055 21.7727 36.3055C25.681 36.3055 26.1702 36.2898 27.7057 36.2192C29.2361 36.1485 30.2824 35.9053 31.198 35.5495C32.1568 35.1885 33.0266 34.6234 33.746 33.891C34.4775 33.1718 35.0435 32.3019 35.4045 31.3417C35.7602 30.4261 36.0048 29.3798 36.0742 27.8494C36.1435 26.3152 36.1605 25.826 36.1605 21.9178C36.1605 18.0108 36.1448 17.5217 36.0742 15.9848C36.0035 14.4545 35.7602 13.4081 35.4045 12.4925C35.0435 11.5324 34.4784 10.6639 33.746 9.94586C33.0266 9.21339 32.1568 8.64704 31.198 8.28473C30.2824 7.93027 29.2361 7.68568 27.7031 7.61636C26.1702 7.54703 25.681 7.53003 21.7727 7.53003ZM21.7727 10.1224C25.6143 10.1224 26.0694 10.1368 27.5867 10.2061C28.9902 10.2702 29.7514 10.5044 30.2589 10.7019C30.8837 10.9324 31.4491 11.2997 31.9135 11.777C32.4171 12.2806 32.727 12.7606 32.9886 13.4316C33.1861 13.9391 33.4203 14.7004 33.4844 16.1038C33.5537 17.6211 33.5681 18.0762 33.5681 21.9178C33.5681 25.7593 33.5537 26.2145 33.4844 27.7317C33.4203 29.1352 33.1861 29.8964 32.9886 30.4039C32.7584 31.0278 32.3909 31.5942 31.9135 32.0585C31.4099 32.5621 30.9299 32.8721 30.2589 33.1337C29.7514 33.3312 28.9902 33.5653 27.5867 33.6294C26.0694 33.6987 25.6156 33.7131 21.7727 33.7131C17.9299 33.7131 17.476 33.6987 15.9588 33.6294C14.5553 33.5653 13.7941 33.3312 13.2866 33.1337C12.6627 32.9035 12.0963 32.5359 11.632 32.0585C11.1546 31.5942 10.7871 31.0278 10.5569 30.4039C10.3593 29.8964 10.1252 29.1352 10.0611 27.7317C9.99181 26.2145 9.97742 25.7593 9.97742 21.9178C9.97742 18.0762 9.99181 17.6211 10.0611 16.1038C10.1252 14.7004 10.3593 13.9391 10.5569 13.4316C10.7873 12.8068 11.1547 12.2414 11.632 11.777C12.1356 11.2735 12.6156 10.9635 13.2866 10.7019C13.7941 10.5044 14.5553 10.2702 15.9588 10.2061C17.476 10.1368 17.9312 10.1224 21.7727 10.1224ZM23.1683 26.5162C22.1042 26.838 20.9614 26.7803 19.935 26.3531C19.2795 26.0813 18.6924 25.6675 18.216 25.1416C17.7396 24.6156 17.3857 23.9906 17.1798 23.3114C16.974 22.6323 16.9213 21.916 17.0255 21.214C17.1297 20.5121 17.3882 19.842 17.7825 19.2519C18.1768 18.6619 18.697 18.1666 19.3056 17.8017C19.9143 17.4369 20.5963 17.2115 21.3025 17.1418C22.0087 17.0722 22.7216 17.16 23.3898 17.3989C24.0581 17.6378 24.665 18.0219 25.1669 18.5236C25.9543 19.3083 26.4449 20.3421 26.5548 21.4483C26.6646 22.5546 26.3871 23.6647 25.7694 24.589C25.1518 25.5133 24.2324 26.1945 23.1683 26.5162ZM18.9427 15.0854C18.0454 15.457 17.2302 16.0018 16.5435 16.6885C15.1566 18.0754 14.3774 19.9564 14.3774 21.9178C14.3774 23.8791 15.1566 25.7602 16.5435 27.1471C17.9303 28.5339 19.8114 29.3131 21.7727 29.3131C23.7341 29.3131 25.6151 28.5339 27.002 27.1471C27.6888 26.4603 28.2335 25.6451 28.6051 24.7478C28.9768 23.8506 29.1681 22.8889 29.1681 21.9178C29.1681 20.9466 28.9768 19.9849 28.6051 19.0877C28.2335 18.1905 27.6888 17.3752 27.002 16.6885C26.3153 16.0018 25.5001 15.457 24.6028 15.0854C23.7056 14.7137 22.7439 14.5224 21.7727 14.5224C20.8016 14.5224 19.8399 14.7137 18.9427 15.0854ZM31.2089 15.0561C31.1147 15.2702 30.9784 15.4633 30.8082 15.6238C30.4773 15.936 30.0377 16.1069 29.5828 16.1003C29.1278 16.0936 28.6934 15.91 28.3717 15.5883C28.05 15.2665 27.8663 14.8321 27.8597 14.3772C27.853 13.9223 28.024 13.4827 28.3362 13.1517C28.4967 12.9815 28.6897 12.8453 28.9039 12.7511C29.118 12.6568 29.3488 12.6065 29.5828 12.6031C29.8167 12.5997 30.0489 12.6433 30.2657 12.7312C30.4825 12.8192 30.6794 12.9497 30.8448 13.1151C31.0102 13.2806 31.1408 13.4775 31.2287 13.6943C31.3167 13.9111 31.3602 14.1433 31.3568 14.3772C31.3534 14.6111 31.3031 14.842 31.2089 15.0561Z" fill="url(#paint0_radial_2461_51289)"/>
<defs>
<radialGradient id="paint0_radial_2461_51289" cx="0" cy="0" r="1" gradientUnits="userSpaceOnUse" gradientTransform="translate(1.20389 43.4952) rotate(-44.4112) scale(52.623 102.507)">
<stop stop-color="#154383"/>
<stop offset="1" stop-color="#2954A1"/>
</radialGradient>
</defs>
</svg>
