<svg width="46" height="46" viewBox="0 0 46 46" fill="none" xmlns="http://www.w3.org/2000/svg">
<path d="M23.0701 0.912109C11.0404 0.912109 1.2887 10.6638 1.2887 22.6936C1.2887 34.7233 11.0404 44.475 23.0701 44.475C35.0998 44.475 44.8516 34.7233 44.8516 22.6936C44.8516 10.6638 35.0998 0.912109 23.0701 0.912109ZM17.7382 31.7215H13.3275V17.5273H17.7382V31.7215ZM15.5056 15.7847C14.1125 15.7847 13.2118 14.7978 13.2118 13.5771C13.2118 12.3315 14.1397 11.374 15.5623 11.374C16.9849 11.374 17.8562 12.3315 17.8834 13.5771C17.8834 14.7978 16.9849 15.7847 15.5056 15.7847ZM33.8474 31.7215H29.4367V23.8552C29.4367 22.0242 28.7968 20.7809 27.2018 20.7809C25.9834 20.7809 25.2596 21.6226 24.9397 22.4326C24.8217 22.7208 24.7922 23.1292 24.7922 23.5353V31.7192H20.3792V22.0537C20.3792 20.2817 20.3225 18.8001 20.2635 17.525H24.0957L24.2976 19.4967H24.3861C24.9669 18.571 26.3895 17.2051 28.7696 17.2051C31.6715 17.2051 33.8474 19.1495 33.8474 23.3288V31.7215Z" fill="url(#paint0_radial_2461_51283)"/>
<defs>
<radialGradient id="paint0_radial_2461_51283" cx="0" cy="0" r="1" gradientUnits="userSpaceOnUse" gradientTransform="translate(2.3113 44.475) rotate(-44.4112) scale(53.1103 103.456)">
<stop stop-color="#154383"/>
<stop offset="1" stop-color="#2954A1"/>
</radialGradient>
</defs>
</svg>
