<svg width="45" height="45" viewBox="0 0 45 45" fill="none" xmlns="http://www.w3.org/2000/svg">
<circle cx="22.1517" cy="22.3537" r="22.0217" fill="url(#paint0_radial_2461_51287)"/>
<path d="M32.4425 13.8563C32.2263 13.7445 32.0158 13.622 31.8119 13.4893C31.2188 13.0972 30.6751 12.6352 30.1924 12.1133C28.9846 10.7313 28.5335 9.32936 28.3673 8.34778H28.374C28.2352 7.53302 28.2926 7.00586 28.3013 7.00586H22.8001V28.2777C22.8001 28.5633 22.8001 28.8456 22.7881 29.1245C22.7881 29.1592 22.7848 29.1913 22.7828 29.2286C22.7828 29.244 22.7828 29.26 22.7795 29.276V29.288C22.7215 30.0512 22.4768 30.7885 22.067 31.435C21.6572 32.0815 21.0948 32.6174 20.4293 32.9955C19.7356 33.3901 18.9511 33.5971 18.1531 33.596C15.5901 33.596 13.5128 31.5061 13.5128 28.925C13.5128 26.3439 15.5901 24.254 18.1531 24.254C18.6383 24.2535 19.1205 24.3299 19.5818 24.4802L19.5885 18.879C18.1881 18.6981 16.7654 18.8094 15.4101 19.2058C14.0549 19.6023 12.7966 20.2753 11.7144 21.1824C10.7663 22.0063 9.96913 22.9893 9.35891 24.0872C9.12669 24.4875 8.25054 26.0964 8.14444 28.7075C8.07771 30.1895 8.5228 31.725 8.73499 32.3596V32.3729C8.86845 32.7466 9.3856 34.0218 10.2284 35.0968C10.908 35.9591 11.7109 36.7166 12.6113 37.3449V37.3315L12.6246 37.3449C15.2878 39.1546 18.2405 39.0358 18.2405 39.0358C18.7517 39.0151 20.464 39.0358 22.4084 38.1143C24.5651 37.0926 25.7929 35.5706 25.7929 35.5706C26.5773 34.6611 27.201 33.6246 27.6373 32.5057C28.1351 31.1971 28.3013 29.6277 28.3013 29.0004V17.7152C28.368 17.7552 29.2568 18.3431 29.2568 18.3431C29.2568 18.3431 30.5374 19.1639 32.5352 19.6984C33.9686 20.0787 35.8997 20.1588 35.8997 20.1588V14.6977C35.2231 14.7711 33.8491 14.5576 32.4425 13.8563Z" fill="white"/>
<defs>
<radialGradient id="paint0_radial_2461_51287" cx="0" cy="0" r="1" gradientUnits="userSpaceOnUse" gradientTransform="translate(1.16388 44.3754) rotate(-44.4112) scale(53.6961 104.597)">
<stop stop-color="#154383"/>
<stop offset="1" stop-color="#2954A1"/>
</radialGradient>
</defs>
</svg>
