<svg width="45" height="44" viewBox="0 0 45 44" fill="none" xmlns="http://www.w3.org/2000/svg">
<path d="M26.0609 21.6139L20.9939 19.2496C20.5518 19.0443 20.1885 19.2745 20.1885 19.764V24.2174C20.1885 24.7069 20.5518 24.937 20.9939 24.7317L26.0587 22.3674C26.5031 22.1599 26.5031 21.8215 26.0609 21.6139ZM22.4445 0.333008C10.4832 0.333008 0.786865 10.0293 0.786865 21.9907C0.786865 33.952 10.4832 43.6484 22.4445 43.6484C34.4059 43.6484 44.1022 33.952 44.1022 21.9907C44.1022 10.0293 34.4059 0.333008 22.4445 0.333008ZM22.4445 30.7891C11.3585 30.7891 11.1645 29.7897 11.1645 21.9907C11.1645 14.1917 11.3585 13.1923 22.4445 13.1923C33.5306 13.1923 33.7246 14.1917 33.7246 21.9907C33.7246 29.7897 33.5306 30.7891 22.4445 30.7891Z" fill="url(#paint0_radial_2461_51288)"/>
<defs>
<radialGradient id="paint0_radial_2461_51288" cx="0" cy="0" r="1" gradientUnits="userSpaceOnUse" gradientTransform="translate(1.80366 43.6484) rotate(-44.4112) scale(52.8085 102.868)">
<stop stop-color="#154383"/>
<stop offset="1" stop-color="#2954A1"/>
</radialGradient>
</defs>
</svg>
